ISO-10303-21;
HEADER;
/* Generated by software containing ST-Developer
 * from STEP Tools, Inc. (www.steptools.com) 
 */
/* OPTION: strings as raw bytes, not using required /X/ escapes */

FILE_DESCRIPTION(
/* description */ ('Unknown'),
/* implementation_level */ '2;1');

FILE_NAME(
/* name */ '104JT-025',
/* time_stamp */ '2024-05-20T13:55:34+02:00',
/* author */ ('Unknown'),
/* organization */ ('Unknown'),
/* preprocessor_version */ 'ST-DEVELOPER v19.4',
/* originating_system */ 'Solid Edge',
/* authorisation */ 'Unknown');

FILE_SCHEMA (('AUTOMOTIVE_DESIGN {1 0 10303 214 3 1 1}'));
ENDSEC;

DATA;
#10=PROPERTY_DEFINITION_REPRESENTATION(#14,#12);
#11=PROPERTY_DEFINITION_REPRESENTATION(#15,#13);
#12=REPRESENTATION('',(#16),#1382);
#13=REPRESENTATION('',(#17),#1382);
#14=PROPERTY_DEFINITION('pmi validation property','',#1387);
#15=PROPERTY_DEFINITION('pmi validation property','',#1387);
#16=VALUE_REPRESENTATION_ITEM('number of annotations',COUNT_MEASURE(0.));
#17=VALUE_REPRESENTATION_ITEM('number of views',COUNT_MEASURE(0.));
#18=COLOUR_RGB('',0.699999988079071,0.699999988079071,0.699999988079071);
#19=SHAPE_REPRESENTATION_RELATIONSHIP('','',#880,#20);
#20=ADVANCED_BREP_SHAPE_REPRESENTATION('',(#877,#878),#1382);
#21=CYLINDRICAL_SURFACE('',#892,0.600000000000001);
#22=CYLINDRICAL_SURFACE('',#893,0.600000000000001);
#23=CIRCLE('',#887,0.600000000000001);
#24=CIRCLE('',#888,0.600000000000001);
#25=CIRCLE('',#890,0.600000000000001);
#26=CIRCLE('',#891,0.600000000000001);
#27=ORIENTED_EDGE('',*,*,#261,.F.);
#28=ORIENTED_EDGE('',*,*,#262,.F.);
#29=ORIENTED_EDGE('',*,*,#263,.T.);
#30=ORIENTED_EDGE('',*,*,#264,.T.);
#31=ORIENTED_EDGE('',*,*,#265,.F.);
#32=ORIENTED_EDGE('',*,*,#266,.T.);
#33=ORIENTED_EDGE('',*,*,#267,.T.);
#34=ORIENTED_EDGE('',*,*,#268,.F.);
#35=ORIENTED_EDGE('',*,*,#269,.T.);
#36=ORIENTED_EDGE('',*,*,#270,.T.);
#37=ORIENTED_EDGE('',*,*,#271,.F.);
#38=ORIENTED_EDGE('',*,*,#264,.F.);
#39=ORIENTED_EDGE('',*,*,#272,.F.);
#40=ORIENTED_EDGE('',*,*,#273,.T.);
#41=ORIENTED_EDGE('',*,*,#274,.T.);
#42=ORIENTED_EDGE('',*,*,#275,.T.);
#43=ORIENTED_EDGE('',*,*,#276,.F.);
#44=ORIENTED_EDGE('',*,*,#277,.T.);
#45=ORIENTED_EDGE('',*,*,#278,.T.);
#46=ORIENTED_EDGE('',*,*,#262,.T.);
#47=ORIENTED_EDGE('',*,*,#274,.F.);
#48=ORIENTED_EDGE('',*,*,#279,.T.);
#49=ORIENTED_EDGE('',*,*,#269,.F.);
#50=ORIENTED_EDGE('',*,*,#263,.F.);
#51=ORIENTED_EDGE('',*,*,#278,.F.);
#52=ORIENTED_EDGE('',*,*,#280,.T.);
#53=ORIENTED_EDGE('',*,*,#271,.T.);
#54=ORIENTED_EDGE('',*,*,#281,.T.);
#55=ORIENTED_EDGE('',*,*,#272,.T.);
#56=ORIENTED_EDGE('',*,*,#282,.T.);
#57=ORIENTED_EDGE('',*,*,#276,.T.);
#58=ORIENTED_EDGE('',*,*,#261,.T.);
#59=ORIENTED_EDGE('',*,*,#280,.F.);
#60=ORIENTED_EDGE('',*,*,#277,.F.);
#61=ORIENTED_EDGE('',*,*,#282,.F.);
#62=ORIENTED_EDGE('',*,*,#275,.F.);
#63=ORIENTED_EDGE('',*,*,#279,.F.);
#64=ORIENTED_EDGE('',*,*,#273,.F.);
#65=ORIENTED_EDGE('',*,*,#281,.F.);
#66=ORIENTED_EDGE('',*,*,#270,.F.);
#67=ORIENTED_EDGE('',*,*,#283,.F.);
#68=ORIENTED_EDGE('',*,*,#267,.F.);
#69=ORIENTED_EDGE('',*,*,#284,.T.);
#70=ORIENTED_EDGE('',*,*,#285,.T.);
#71=ORIENTED_EDGE('',*,*,#286,.F.);
#72=ORIENTED_EDGE('',*,*,#285,.F.);
#73=ORIENTED_EDGE('',*,*,#287,.T.);
#74=ORIENTED_EDGE('',*,*,#288,.T.);
#75=ORIENTED_EDGE('',*,*,#289,.F.);
#76=ORIENTED_EDGE('',*,*,#288,.F.);
#77=ORIENTED_EDGE('',*,*,#290,.T.);
#78=ORIENTED_EDGE('',*,*,#265,.T.);
#79=ORIENTED_EDGE('',*,*,#266,.F.);
#80=ORIENTED_EDGE('',*,*,#290,.F.);
#81=ORIENTED_EDGE('',*,*,#287,.F.);
#82=ORIENTED_EDGE('',*,*,#284,.F.);
#83=ORIENTED_EDGE('',*,*,#268,.T.);
#84=ORIENTED_EDGE('',*,*,#283,.T.);
#85=ORIENTED_EDGE('',*,*,#286,.T.);
#86=ORIENTED_EDGE('',*,*,#289,.T.);
#87=ORIENTED_EDGE('',*,*,#291,.T.);
#88=ORIENTED_EDGE('',*,*,#292,.F.);
#89=ORIENTED_EDGE('',*,*,#293,.F.);
#90=ORIENTED_EDGE('',*,*,#294,.T.);
#91=ORIENTED_EDGE('',*,*,#295,.T.);
#92=ORIENTED_EDGE('',*,*,#296,.F.);
#93=ORIENTED_EDGE('',*,*,#297,.F.);
#94=ORIENTED_EDGE('',*,*,#292,.T.);
#95=ORIENTED_EDGE('',*,*,#298,.T.);
#96=ORIENTED_EDGE('',*,*,#294,.F.);
#97=ORIENTED_EDGE('',*,*,#299,.F.);
#98=ORIENTED_EDGE('',*,*,#300,.T.);
#99=ORIENTED_EDGE('',*,*,#301,.F.);
#100=ORIENTED_EDGE('',*,*,#302,.T.);
#101=ORIENTED_EDGE('',*,*,#303,.T.);
#102=ORIENTED_EDGE('',*,*,#304,.F.);
#103=ORIENTED_EDGE('',*,*,#305,.F.);
#104=ORIENTED_EDGE('',*,*,#296,.T.);
#105=ORIENTED_EDGE('',*,*,#306,.T.);
#106=ORIENTED_EDGE('',*,*,#307,.F.);
#107=ORIENTED_EDGE('',*,*,#300,.F.);
#108=ORIENTED_EDGE('',*,*,#308,.F.);
#109=ORIENTED_EDGE('',*,*,#309,.T.);
#110=ORIENTED_EDGE('',*,*,#310,.T.);
#111=ORIENTED_EDGE('',*,*,#311,.T.);
#112=ORIENTED_EDGE('',*,*,#312,.F.);
#113=ORIENTED_EDGE('',*,*,#313,.F.);
#114=ORIENTED_EDGE('',*,*,#307,.T.);
#115=ORIENTED_EDGE('',*,*,#314,.T.);
#116=ORIENTED_EDGE('',*,*,#315,.F.);
#117=ORIENTED_EDGE('',*,*,#316,.F.);
#118=ORIENTED_EDGE('',*,*,#312,.T.);
#119=ORIENTED_EDGE('',*,*,#317,.T.);
#120=ORIENTED_EDGE('',*,*,#318,.F.);
#121=ORIENTED_EDGE('',*,*,#319,.F.);
#122=ORIENTED_EDGE('',*,*,#315,.T.);
#123=ORIENTED_EDGE('',*,*,#320,.T.);
#124=ORIENTED_EDGE('',*,*,#321,.F.);
#125=ORIENTED_EDGE('',*,*,#322,.F.);
#126=ORIENTED_EDGE('',*,*,#318,.T.);
#127=ORIENTED_EDGE('',*,*,#323,.T.);
#128=ORIENTED_EDGE('',*,*,#324,.F.);
#129=ORIENTED_EDGE('',*,*,#325,.F.);
#130=ORIENTED_EDGE('',*,*,#321,.T.);
#131=ORIENTED_EDGE('',*,*,#326,.T.);
#132=ORIENTED_EDGE('',*,*,#327,.F.);
#133=ORIENTED_EDGE('',*,*,#328,.F.);
#134=ORIENTED_EDGE('',*,*,#324,.T.);
#135=ORIENTED_EDGE('',*,*,#329,.T.);
#136=ORIENTED_EDGE('',*,*,#330,.F.);
#137=ORIENTED_EDGE('',*,*,#331,.F.);
#138=ORIENTED_EDGE('',*,*,#327,.T.);
#139=ORIENTED_EDGE('',*,*,#332,.T.);
#140=ORIENTED_EDGE('',*,*,#333,.F.);
#141=ORIENTED_EDGE('',*,*,#334,.F.);
#142=ORIENTED_EDGE('',*,*,#330,.T.);
#143=ORIENTED_EDGE('',*,*,#335,.T.);
#144=ORIENTED_EDGE('',*,*,#336,.F.);
#145=ORIENTED_EDGE('',*,*,#337,.F.);
#146=ORIENTED_EDGE('',*,*,#333,.T.);
#147=ORIENTED_EDGE('',*,*,#338,.T.);
#148=ORIENTED_EDGE('',*,*,#339,.F.);
#149=ORIENTED_EDGE('',*,*,#340,.F.);
#150=ORIENTED_EDGE('',*,*,#336,.T.);
#151=ORIENTED_EDGE('',*,*,#341,.T.);
#152=ORIENTED_EDGE('',*,*,#342,.F.);
#153=ORIENTED_EDGE('',*,*,#343,.F.);
#154=ORIENTED_EDGE('',*,*,#339,.T.);
#155=ORIENTED_EDGE('',*,*,#344,.F.);
#156=ORIENTED_EDGE('',*,*,#345,.F.);
#157=ORIENTED_EDGE('',*,*,#342,.T.);
#158=ORIENTED_EDGE('',*,*,#346,.T.);
#159=ORIENTED_EDGE('',*,*,#347,.T.);
#160=ORIENTED_EDGE('',*,*,#348,.F.);
#161=ORIENTED_EDGE('',*,*,#349,.F.);
#162=ORIENTED_EDGE('',*,*,#304,.T.);
#163=ORIENTED_EDGE('',*,*,#350,.T.);
#164=ORIENTED_EDGE('',*,*,#351,.F.);
#165=ORIENTED_EDGE('',*,*,#352,.F.);
#166=ORIENTED_EDGE('',*,*,#348,.T.);
#167=ORIENTED_EDGE('',*,*,#353,.T.);
#168=ORIENTED_EDGE('',*,*,#354,.F.);
#169=ORIENTED_EDGE('',*,*,#355,.F.);
#170=ORIENTED_EDGE('',*,*,#351,.T.);
#171=ORIENTED_EDGE('',*,*,#356,.T.);
#172=ORIENTED_EDGE('',*,*,#357,.F.);
#173=ORIENTED_EDGE('',*,*,#358,.F.);
#174=ORIENTED_EDGE('',*,*,#354,.T.);
#175=ORIENTED_EDGE('',*,*,#359,.T.);
#176=ORIENTED_EDGE('',*,*,#360,.F.);
#177=ORIENTED_EDGE('',*,*,#361,.F.);
#178=ORIENTED_EDGE('',*,*,#357,.T.);
#179=ORIENTED_EDGE('',*,*,#362,.T.);
#180=ORIENTED_EDGE('',*,*,#363,.F.);
#181=ORIENTED_EDGE('',*,*,#364,.F.);
#182=ORIENTED_EDGE('',*,*,#360,.T.);
#183=ORIENTED_EDGE('',*,*,#365,.T.);
#184=ORIENTED_EDGE('',*,*,#366,.F.);
#185=ORIENTED_EDGE('',*,*,#367,.F.);
#186=ORIENTED_EDGE('',*,*,#363,.T.);
#187=ORIENTED_EDGE('',*,*,#368,.T.);
#188=ORIENTED_EDGE('',*,*,#309,.F.);
#189=ORIENTED_EDGE('',*,*,#369,.F.);
#190=ORIENTED_EDGE('',*,*,#366,.T.);
#191=ORIENTED_EDGE('',*,*,#370,.F.);
#192=ORIENTED_EDGE('',*,*,#371,.F.);
#193=ORIENTED_EDGE('',*,*,#372,.T.);
#194=ORIENTED_EDGE('',*,*,#373,.T.);
#195=ORIENTED_EDGE('',*,*,#370,.T.);
#196=ORIENTED_EDGE('',*,*,#374,.T.);
#197=ORIENTED_EDGE('',*,*,#346,.F.);
#198=ORIENTED_EDGE('',*,*,#341,.F.);
#199=ORIENTED_EDGE('',*,*,#338,.F.);
#200=ORIENTED_EDGE('',*,*,#335,.F.);
#201=ORIENTED_EDGE('',*,*,#332,.F.);
#202=ORIENTED_EDGE('',*,*,#329,.F.);
#203=ORIENTED_EDGE('',*,*,#326,.F.);
#204=ORIENTED_EDGE('',*,*,#323,.F.);
#205=ORIENTED_EDGE('',*,*,#320,.F.);
#206=ORIENTED_EDGE('',*,*,#317,.F.);
#207=ORIENTED_EDGE('',*,*,#314,.F.);
#208=ORIENTED_EDGE('',*,*,#311,.F.);
#209=ORIENTED_EDGE('',*,*,#306,.F.);
#210=ORIENTED_EDGE('',*,*,#295,.F.);
#211=ORIENTED_EDGE('',*,*,#291,.F.);
#212=ORIENTED_EDGE('',*,*,#298,.F.);
#213=ORIENTED_EDGE('',*,*,#310,.F.);
#214=ORIENTED_EDGE('',*,*,#368,.F.);
#215=ORIENTED_EDGE('',*,*,#365,.F.);
#216=ORIENTED_EDGE('',*,*,#362,.F.);
#217=ORIENTED_EDGE('',*,*,#359,.F.);
#218=ORIENTED_EDGE('',*,*,#356,.F.);
#219=ORIENTED_EDGE('',*,*,#353,.F.);
#220=ORIENTED_EDGE('',*,*,#350,.F.);
#221=ORIENTED_EDGE('',*,*,#347,.F.);
#222=ORIENTED_EDGE('',*,*,#303,.F.);
#223=ORIENTED_EDGE('',*,*,#375,.T.);
#224=ORIENTED_EDGE('',*,*,#375,.F.);
#225=ORIENTED_EDGE('',*,*,#302,.F.);
#226=ORIENTED_EDGE('',*,*,#376,.T.);
#227=ORIENTED_EDGE('',*,*,#371,.T.);
#228=ORIENTED_EDGE('',*,*,#374,.F.);
#229=ORIENTED_EDGE('',*,*,#373,.F.);
#230=ORIENTED_EDGE('',*,*,#377,.T.);
#231=ORIENTED_EDGE('',*,*,#344,.T.);
#232=ORIENTED_EDGE('',*,*,#377,.F.);
#233=ORIENTED_EDGE('',*,*,#372,.F.);
#234=ORIENTED_EDGE('',*,*,#376,.F.);
#235=ORIENTED_EDGE('',*,*,#301,.T.);
#236=ORIENTED_EDGE('',*,*,#349,.T.);
#237=ORIENTED_EDGE('',*,*,#352,.T.);
#238=ORIENTED_EDGE('',*,*,#355,.T.);
#239=ORIENTED_EDGE('',*,*,#358,.T.);
#240=ORIENTED_EDGE('',*,*,#361,.T.);
#241=ORIENTED_EDGE('',*,*,#364,.T.);
#242=ORIENTED_EDGE('',*,*,#367,.T.);
#243=ORIENTED_EDGE('',*,*,#369,.T.);
#244=ORIENTED_EDGE('',*,*,#308,.T.);
#245=ORIENTED_EDGE('',*,*,#299,.T.);
#246=ORIENTED_EDGE('',*,*,#293,.T.);
#247=ORIENTED_EDGE('',*,*,#297,.T.);
#248=ORIENTED_EDGE('',*,*,#305,.T.);
#249=ORIENTED_EDGE('',*,*,#313,.T.);
#250=ORIENTED_EDGE('',*,*,#316,.T.);
#251=ORIENTED_EDGE('',*,*,#319,.T.);
#252=ORIENTED_EDGE('',*,*,#322,.T.);
#253=ORIENTED_EDGE('',*,*,#325,.T.);
#254=ORIENTED_EDGE('',*,*,#328,.T.);
#255=ORIENTED_EDGE('',*,*,#331,.T.);
#256=ORIENTED_EDGE('',*,*,#334,.T.);
#257=ORIENTED_EDGE('',*,*,#337,.T.);
#258=ORIENTED_EDGE('',*,*,#340,.T.);
#259=ORIENTED_EDGE('',*,*,#343,.T.);
#260=ORIENTED_EDGE('',*,*,#345,.T.);
#261=EDGE_CURVE('',#378,#379,#456,.T.);
#262=EDGE_CURVE('',#380,#378,#457,.T.);
#263=EDGE_CURVE('',#380,#381,#458,.T.);
#264=EDGE_CURVE('',#381,#379,#459,.T.);
#265=EDGE_CURVE('',#382,#383,#460,.T.);
#266=EDGE_CURVE('',#382,#384,#461,.T.);
#267=EDGE_CURVE('',#384,#385,#462,.T.);
#268=EDGE_CURVE('',#383,#385,#463,.T.);
#269=EDGE_CURVE('',#381,#386,#464,.T.);
#270=EDGE_CURVE('',#386,#387,#465,.T.);
#271=EDGE_CURVE('',#379,#387,#466,.T.);
#272=EDGE_CURVE('',#388,#389,#467,.T.);
#273=EDGE_CURVE('',#388,#390,#468,.F.);
#274=EDGE_CURVE('',#390,#391,#469,.T.);
#275=EDGE_CURVE('',#391,#389,#470,.T.);
#276=EDGE_CURVE('',#392,#378,#471,.T.);
#277=EDGE_CURVE('',#392,#393,#472,.F.);
#278=EDGE_CURVE('',#393,#380,#473,.T.);
#279=EDGE_CURVE('',#390,#386,#23,.F.);
#280=EDGE_CURVE('',#393,#391,#24,.F.);
#281=EDGE_CURVE('',#387,#388,#25,.T.);
#282=EDGE_CURVE('',#389,#392,#26,.T.);
#283=EDGE_CURVE('',#385,#394,#474,.T.);
#284=EDGE_CURVE('',#384,#395,#475,.T.);
#285=EDGE_CURVE('',#395,#394,#476,.T.);
#286=EDGE_CURVE('',#394,#396,#477,.T.);
#287=EDGE_CURVE('',#395,#397,#478,.T.);
#288=EDGE_CURVE('',#397,#396,#479,.T.);
#289=EDGE_CURVE('',#396,#383,#480,.T.);
#290=EDGE_CURVE('',#397,#382,#481,.T.);
#291=EDGE_CURVE('',#398,#399,#482,.T.);
#292=EDGE_CURVE('',#400,#399,#483,.T.);
#293=EDGE_CURVE('',#401,#400,#484,.T.);
#294=EDGE_CURVE('',#401,#398,#485,.T.);
#295=EDGE_CURVE('',#399,#402,#486,.T.);
#296=EDGE_CURVE('',#403,#402,#487,.T.);
#297=EDGE_CURVE('',#400,#403,#488,.T.);
#298=EDGE_CURVE('',#404,#398,#489,.T.);
#299=EDGE_CURVE('',#405,#401,#490,.T.);
#300=EDGE_CURVE('',#405,#404,#491,.T.);
#301=EDGE_CURVE('',#406,#407,#492,.T.);
#302=EDGE_CURVE('',#406,#408,#493,.T.);
#303=EDGE_CURVE('',#408,#409,#494,.T.);
#304=EDGE_CURVE('',#407,#409,#495,.T.);
#305=EDGE_CURVE('',#403,#410,#496,.T.);
#306=EDGE_CURVE('',#402,#411,#497,.T.);
#307=EDGE_CURVE('',#410,#411,#498,.T.);
#308=EDGE_CURVE('',#412,#405,#499,.T.);
#309=EDGE_CURVE('',#412,#413,#500,.T.);
#310=EDGE_CURVE('',#413,#404,#501,.T.);
#311=EDGE_CURVE('',#411,#414,#502,.T.);
#312=EDGE_CURVE('',#415,#414,#503,.T.);
#313=EDGE_CURVE('',#410,#415,#504,.T.);
#314=EDGE_CURVE('',#414,#416,#505,.T.);
#315=EDGE_CURVE('',#417,#416,#506,.T.);
#316=EDGE_CURVE('',#415,#417,#507,.T.);
#317=EDGE_CURVE('',#416,#418,#508,.T.);
#318=EDGE_CURVE('',#419,#418,#509,.T.);
#319=EDGE_CURVE('',#417,#419,#510,.T.);
#320=EDGE_CURVE('',#418,#420,#511,.T.);
#321=EDGE_CURVE('',#421,#420,#512,.T.);
#322=EDGE_CURVE('',#419,#421,#513,.T.);
#323=EDGE_CURVE('',#420,#422,#514,.T.);
#324=EDGE_CURVE('',#423,#422,#515,.T.);
#325=EDGE_CURVE('',#421,#423,#516,.T.);
#326=EDGE_CURVE('',#422,#424,#517,.T.);
#327=EDGE_CURVE('',#425,#424,#518,.T.);
#328=EDGE_CURVE('',#423,#425,#519,.T.);
#329=EDGE_CURVE('',#424,#426,#520,.T.);
#330=EDGE_CURVE('',#427,#426,#521,.T.);
#331=EDGE_CURVE('',#425,#427,#522,.T.);
#332=EDGE_CURVE('',#426,#428,#523,.T.);
#333=EDGE_CURVE('',#429,#428,#524,.T.);
#334=EDGE_CURVE('',#427,#429,#525,.T.);
#335=EDGE_CURVE('',#428,#430,#526,.T.);
#336=EDGE_CURVE('',#431,#430,#527,.T.);
#337=EDGE_CURVE('',#429,#431,#528,.T.);
#338=EDGE_CURVE('',#430,#432,#529,.T.);
#339=EDGE_CURVE('',#433,#432,#530,.T.);
#340=EDGE_CURVE('',#431,#433,#531,.T.);
#341=EDGE_CURVE('',#432,#434,#532,.T.);
#342=EDGE_CURVE('',#435,#434,#533,.T.);
#343=EDGE_CURVE('',#433,#435,#534,.T.);
#344=EDGE_CURVE('',#436,#437,#535,.T.);
#345=EDGE_CURVE('',#435,#436,#536,.T.);
#346=EDGE_CURVE('',#434,#437,#537,.T.);
#347=EDGE_CURVE('',#409,#438,#538,.T.);
#348=EDGE_CURVE('',#439,#438,#539,.T.);
#349=EDGE_CURVE('',#407,#439,#540,.T.);
#350=EDGE_CURVE('',#438,#440,#541,.T.);
#351=EDGE_CURVE('',#441,#440,#542,.T.);
#352=EDGE_CURVE('',#439,#441,#543,.T.);
#353=EDGE_CURVE('',#440,#442,#544,.T.);
#354=EDGE_CURVE('',#443,#442,#545,.T.);
#355=EDGE_CURVE('',#441,#443,#546,.T.);
#356=EDGE_CURVE('',#442,#444,#547,.T.);
#357=EDGE_CURVE('',#445,#444,#548,.T.);
#358=EDGE_CURVE('',#443,#445,#549,.T.);
#359=EDGE_CURVE('',#444,#446,#550,.T.);
#360=EDGE_CURVE('',#447,#446,#551,.T.);
#361=EDGE_CURVE('',#445,#447,#552,.T.);
#362=EDGE_CURVE('',#446,#448,#553,.T.);
#363=EDGE_CURVE('',#449,#448,#554,.T.);
#364=EDGE_CURVE('',#447,#449,#555,.T.);
#365=EDGE_CURVE('',#448,#450,#556,.T.);
#366=EDGE_CURVE('',#451,#450,#557,.T.);
#367=EDGE_CURVE('',#449,#451,#558,.T.);
#368=EDGE_CURVE('',#450,#413,#559,.T.);
#369=EDGE_CURVE('',#451,#412,#560,.T.);
#370=EDGE_CURVE('',#452,#453,#561,.T.);
#371=EDGE_CURVE('',#454,#452,#562,.T.);
#372=EDGE_CURVE('',#454,#455,#563,.T.);
#373=EDGE_CURVE('',#455,#453,#564,.T.);
#374=EDGE_CURVE('',#453,#437,#565,.T.);
#375=EDGE_CURVE('',#408,#452,#566,.T.);
#376=EDGE_CURVE('',#406,#454,#567,.T.);
#377=EDGE_CURVE('',#455,#436,#568,.T.);
#378=VERTEX_POINT('',#1144);
#379=VERTEX_POINT('',#1145);
#380=VERTEX_POINT('',#1147);
#381=VERTEX_POINT('',#1149);
#382=VERTEX_POINT('',#1152);
#383=VERTEX_POINT('',#1153);
#384=VERTEX_POINT('',#1155);
#385=VERTEX_POINT('',#1157);
#386=VERTEX_POINT('',#1161);
#387=VERTEX_POINT('',#1163);
#388=VERTEX_POINT('',#1167);
#389=VERTEX_POINT('',#1168);
#390=VERTEX_POINT('',#1170);
#391=VERTEX_POINT('',#1172);
#392=VERTEX_POINT('',#1176);
#393=VERTEX_POINT('',#1178);
#394=VERTEX_POINT('',#1190);
#395=VERTEX_POINT('',#1192);
#396=VERTEX_POINT('',#1196);
#397=VERTEX_POINT('',#1198);
#398=VERTEX_POINT('',#1207);
#399=VERTEX_POINT('',#1208);
#400=VERTEX_POINT('',#1210);
#401=VERTEX_POINT('',#1212);
#402=VERTEX_POINT('',#1216);
#403=VERTEX_POINT('',#1218);
#404=VERTEX_POINT('',#1222);
#405=VERTEX_POINT('',#1224);
#406=VERTEX_POINT('',#1228);
#407=VERTEX_POINT('',#1229);
#408=VERTEX_POINT('',#1231);
#409=VERTEX_POINT('',#1233);
#410=VERTEX_POINT('',#1237);
#411=VERTEX_POINT('',#1239);
#412=VERTEX_POINT('',#1243);
#413=VERTEX_POINT('',#1245);
#414=VERTEX_POINT('',#1249);
#415=VERTEX_POINT('',#1251);
#416=VERTEX_POINT('',#1255);
#417=VERTEX_POINT('',#1257);
#418=VERTEX_POINT('',#1261);
#419=VERTEX_POINT('',#1263);
#420=VERTEX_POINT('',#1267);
#421=VERTEX_POINT('',#1269);
#422=VERTEX_POINT('',#1273);
#423=VERTEX_POINT('',#1275);
#424=VERTEX_POINT('',#1279);
#425=VERTEX_POINT('',#1281);
#426=VERTEX_POINT('',#1285);
#427=VERTEX_POINT('',#1287);
#428=VERTEX_POINT('',#1291);
#429=VERTEX_POINT('',#1293);
#430=VERTEX_POINT('',#1297);
#431=VERTEX_POINT('',#1299);
#432=VERTEX_POINT('',#1303);
#433=VERTEX_POINT('',#1305);
#434=VERTEX_POINT('',#1309);
#435=VERTEX_POINT('',#1311);
#436=VERTEX_POINT('',#1315);
#437=VERTEX_POINT('',#1316);
#438=VERTEX_POINT('',#1321);
#439=VERTEX_POINT('',#1323);
#440=VERTEX_POINT('',#1327);
#441=VERTEX_POINT('',#1329);
#442=VERTEX_POINT('',#1333);
#443=VERTEX_POINT('',#1335);
#444=VERTEX_POINT('',#1339);
#445=VERTEX_POINT('',#1341);
#446=VERTEX_POINT('',#1345);
#447=VERTEX_POINT('',#1347);
#448=VERTEX_POINT('',#1351);
#449=VERTEX_POINT('',#1353);
#450=VERTEX_POINT('',#1357);
#451=VERTEX_POINT('',#1359);
#452=VERTEX_POINT('',#1366);
#453=VERTEX_POINT('',#1367);
#454=VERTEX_POINT('',#1369);
#455=VERTEX_POINT('',#1371);
#456=LINE('',#1143,#569);
#457=LINE('',#1146,#570);
#458=LINE('',#1148,#571);
#459=LINE('',#1150,#572);
#460=LINE('',#1151,#573);
#461=LINE('',#1154,#574);
#462=LINE('',#1156,#575);
#463=LINE('',#1158,#576);
#464=LINE('',#1160,#577);
#465=LINE('',#1162,#578);
#466=LINE('',#1164,#579);
#467=LINE('',#1166,#580);
#468=LINE('',#1169,#581);
#469=LINE('',#1171,#582);
#470=LINE('',#1173,#583);
#471=LINE('',#1175,#584);
#472=LINE('',#1177,#585);
#473=LINE('',#1179,#586);
#474=LINE('',#1189,#587);
#475=LINE('',#1191,#588);
#476=LINE('',#1193,#589);
#477=LINE('',#1195,#590);
#478=LINE('',#1197,#591);
#479=LINE('',#1199,#592);
#480=LINE('',#1201,#593);
#481=LINE('',#1202,#594);
#482=LINE('',#1206,#595);
#483=LINE('',#1209,#596);
#484=LINE('',#1211,#597);
#485=LINE('',#1213,#598);
#486=LINE('',#1215,#599);
#487=LINE('',#1217,#600);
#488=LINE('',#1219,#601);
#489=LINE('',#1221,#602);
#490=LINE('',#1223,#603);
#491=LINE('',#1225,#604);
#492=LINE('',#1227,#605);
#493=LINE('',#1230,#606);
#494=LINE('',#1232,#607);
#495=LINE('',#1234,#608);
#496=LINE('',#1236,#609);
#497=LINE('',#1238,#610);
#498=LINE('',#1240,#611);
#499=LINE('',#1242,#612);
#500=LINE('',#1244,#613);
#501=LINE('',#1246,#614);
#502=LINE('',#1248,#615);
#503=LINE('',#1250,#616);
#504=LINE('',#1252,#617);
#505=LINE('',#1254,#618);
#506=LINE('',#1256,#619);
#507=LINE('',#1258,#620);
#508=LINE('',#1260,#621);
#509=LINE('',#1262,#622);
#510=LINE('',#1264,#623);
#511=LINE('',#1266,#624);
#512=LINE('',#1268,#625);
#513=LINE('',#1270,#626);
#514=LINE('',#1272,#627);
#515=LINE('',#1274,#628);
#516=LINE('',#1276,#629);
#517=LINE('',#1278,#630);
#518=LINE('',#1280,#631);
#519=LINE('',#1282,#632);
#520=LINE('',#1284,#633);
#521=LINE('',#1286,#634);
#522=LINE('',#1288,#635);
#523=LINE('',#1290,#636);
#524=LINE('',#1292,#637);
#525=LINE('',#1294,#638);
#526=LINE('',#1296,#639);
#527=LINE('',#1298,#640);
#528=LINE('',#1300,#641);
#529=LINE('',#1302,#642);
#530=LINE('',#1304,#643);
#531=LINE('',#1306,#644);
#532=LINE('',#1308,#645);
#533=LINE('',#1310,#646);
#534=LINE('',#1312,#647);
#535=LINE('',#1314,#648);
#536=LINE('',#1317,#649);
#537=LINE('',#1318,#650);
#538=LINE('',#1320,#651);
#539=LINE('',#1322,#652);
#540=LINE('',#1324,#653);
#541=LINE('',#1326,#654);
#542=LINE('',#1328,#655);
#543=LINE('',#1330,#656);
#544=LINE('',#1332,#657);
#545=LINE('',#1334,#658);
#546=LINE('',#1336,#659);
#547=LINE('',#1338,#660);
#548=LINE('',#1340,#661);
#549=LINE('',#1342,#662);
#550=LINE('',#1344,#663);
#551=LINE('',#1346,#664);
#552=LINE('',#1348,#665);
#553=LINE('',#1350,#666);
#554=LINE('',#1352,#667);
#555=LINE('',#1354,#668);
#556=LINE('',#1356,#669);
#557=LINE('',#1358,#670);
#558=LINE('',#1360,#671);
#559=LINE('',#1362,#672);
#560=LINE('',#1363,#673);
#561=LINE('',#1365,#674);
#562=LINE('',#1368,#675);
#563=LINE('',#1370,#676);
#564=LINE('',#1372,#677);
#565=LINE('',#1374,#678);
#566=LINE('',#1375,#679);
#567=LINE('',#1377,#680);
#568=LINE('',#1379,#681);
#569=VECTOR('',#934,1000.);
#570=VECTOR('',#935,1000.);
#571=VECTOR('',#936,1000.);
#572=VECTOR('',#937,1000.);
#573=VECTOR('',#938,1000.);
#574=VECTOR('',#939,1000.);
#575=VECTOR('',#940,1000.);
#576=VECTOR('',#941,1000.);
#577=VECTOR('',#944,1000.);
#578=VECTOR('',#945,1000.);
#579=VECTOR('',#946,1000.);
#580=VECTOR('',#949,1000.);
#581=VECTOR('',#950,1000.);
#582=VECTOR('',#951,1000.);
#583=VECTOR('',#952,1000.);
#584=VECTOR('',#955,1000.);
#585=VECTOR('',#956,1000.);
#586=VECTOR('',#957,1000.);
#587=VECTOR('',#976,1000.);
#588=VECTOR('',#977,1000.);
#589=VECTOR('',#978,1000.);
#590=VECTOR('',#981,1000.);
#591=VECTOR('',#982,1000.);
#592=VECTOR('',#983,1000.);
#593=VECTOR('',#986,1000.);
#594=VECTOR('',#987,1000.);
#595=VECTOR('',#994,1000.);
#596=VECTOR('',#995,1000.);
#597=VECTOR('',#996,1000.);
#598=VECTOR('',#997,1000.);
#599=VECTOR('',#1000,1000.);
#600=VECTOR('',#1001,1000.);
#601=VECTOR('',#1002,1000.);
#602=VECTOR('',#1005,1000.);
#603=VECTOR('',#1006,1000.);
#604=VECTOR('',#1007,1000.);
#605=VECTOR('',#1010,1000.);
#606=VECTOR('',#1011,1000.);
#607=VECTOR('',#1012,1000.);
#608=VECTOR('',#1013,1000.);
#609=VECTOR('',#1016,1000.);
#610=VECTOR('',#1017,1000.);
#611=VECTOR('',#1018,1000.);
#612=VECTOR('',#1021,1000.);
#613=VECTOR('',#1022,1000.);
#614=VECTOR('',#1023,1000.);
#615=VECTOR('',#1026,1000.);
#616=VECTOR('',#1027,1000.);
#617=VECTOR('',#1028,1000.);
#618=VECTOR('',#1031,1000.);
#619=VECTOR('',#1032,1000.);
#620=VECTOR('',#1033,1000.);
#621=VECTOR('',#1036,1000.);
#622=VECTOR('',#1037,1000.);
#623=VECTOR('',#1038,1000.);
#624=VECTOR('',#1041,1000.);
#625=VECTOR('',#1042,1000.);
#626=VECTOR('',#1043,1000.);
#627=VECTOR('',#1046,1000.);
#628=VECTOR('',#1047,1000.);
#629=VECTOR('',#1048,1000.);
#630=VECTOR('',#1051,1000.);
#631=VECTOR('',#1052,1000.);
#632=VECTOR('',#1053,1000.);
#633=VECTOR('',#1056,1000.);
#634=VECTOR('',#1057,1000.);
#635=VECTOR('',#1058,1000.);
#636=VECTOR('',#1061,1000.);
#637=VECTOR('',#1062,1000.);
#638=VECTOR('',#1063,1000.);
#639=VECTOR('',#1066,1000.);
#640=VECTOR('',#1067,1000.);
#641=VECTOR('',#1068,1000.);
#642=VECTOR('',#1071,1000.);
#643=VECTOR('',#1072,1000.);
#644=VECTOR('',#1073,1000.);
#645=VECTOR('',#1076,1000.);
#646=VECTOR('',#1077,1000.);
#647=VECTOR('',#1078,1000.);
#648=VECTOR('',#1081,1000.);
#649=VECTOR('',#1082,1000.);
#650=VECTOR('',#1083,1000.);
#651=VECTOR('',#1086,1000.);
#652=VECTOR('',#1087,1000.);
#653=VECTOR('',#1088,1000.);
#654=VECTOR('',#1091,1000.);
#655=VECTOR('',#1092,1000.);
#656=VECTOR('',#1093,1000.);
#657=VECTOR('',#1096,1000.);
#658=VECTOR('',#1097,1000.);
#659=VECTOR('',#1098,1000.);
#660=VECTOR('',#1101,1000.);
#661=VECTOR('',#1102,1000.);
#662=VECTOR('',#1103,1000.);
#663=VECTOR('',#1106,1000.);
#664=VECTOR('',#1107,1000.);
#665=VECTOR('',#1108,1000.);
#666=VECTOR('',#1111,1000.);
#667=VECTOR('',#1112,1000.);
#668=VECTOR('',#1113,1000.);
#669=VECTOR('',#1116,1000.);
#670=VECTOR('',#1117,1000.);
#671=VECTOR('',#1118,1000.);
#672=VECTOR('',#1121,1000.);
#673=VECTOR('',#1122,1000.);
#674=VECTOR('',#1125,1000.);
#675=VECTOR('',#1126,1000.);
#676=VECTOR('',#1127,1000.);
#677=VECTOR('',#1128,1000.);
#678=VECTOR('',#1131,1000.);
#679=VECTOR('',#1132,1000.);
#680=VECTOR('',#1135,1000.);
#681=VECTOR('',#1138,1000.);
#682=EDGE_LOOP('',(#27,#28,#29,#30));
#683=EDGE_LOOP('',(#31,#32,#33,#34));
#684=EDGE_LOOP('',(#35,#36,#37,#38));
#685=EDGE_LOOP('',(#39,#40,#41,#42));
#686=EDGE_LOOP('',(#43,#44,#45,#46));
#687=EDGE_LOOP('',(#47,#48,#49,#50,#51,#52));
#688=EDGE_LOOP('',(#53,#54,#55,#56,#57,#58));
#689=EDGE_LOOP('',(#59,#60,#61,#62));
#690=EDGE_LOOP('',(#63,#64,#65,#66));
#691=EDGE_LOOP('',(#67,#68,#69,#70));
#692=EDGE_LOOP('',(#71,#72,#73,#74));
#693=EDGE_LOOP('',(#75,#76,#77,#78));
#694=EDGE_LOOP('',(#79,#80,#81,#82));
#695=EDGE_LOOP('',(#83,#84,#85,#86));
#696=EDGE_LOOP('',(#87,#88,#89,#90));
#697=EDGE_LOOP('',(#91,#92,#93,#94));
#698=EDGE_LOOP('',(#95,#96,#97,#98));
#699=EDGE_LOOP('',(#99,#100,#101,#102));
#700=EDGE_LOOP('',(#103,#104,#105,#106));
#701=EDGE_LOOP('',(#107,#108,#109,#110));
#702=EDGE_LOOP('',(#111,#112,#113,#114));
#703=EDGE_LOOP('',(#115,#116,#117,#118));
#704=EDGE_LOOP('',(#119,#120,#121,#122));
#705=EDGE_LOOP('',(#123,#124,#125,#126));
#706=EDGE_LOOP('',(#127,#128,#129,#130));
#707=EDGE_LOOP('',(#131,#132,#133,#134));
#708=EDGE_LOOP('',(#135,#136,#137,#138));
#709=EDGE_LOOP('',(#139,#140,#141,#142));
#710=EDGE_LOOP('',(#143,#144,#145,#146));
#711=EDGE_LOOP('',(#147,#148,#149,#150));
#712=EDGE_LOOP('',(#151,#152,#153,#154));
#713=EDGE_LOOP('',(#155,#156,#157,#158));
#714=EDGE_LOOP('',(#159,#160,#161,#162));
#715=EDGE_LOOP('',(#163,#164,#165,#166));
#716=EDGE_LOOP('',(#167,#168,#169,#170));
#717=EDGE_LOOP('',(#171,#172,#173,#174));
#718=EDGE_LOOP('',(#175,#176,#177,#178));
#719=EDGE_LOOP('',(#179,#180,#181,#182));
#720=EDGE_LOOP('',(#183,#184,#185,#186));
#721=EDGE_LOOP('',(#187,#188,#189,#190));
#722=EDGE_LOOP('',(#191,#192,#193,#194));
#723=EDGE_LOOP('',(#195,#196,#197,#198,#199,#200,#201,#202,#203,#204,#205,
#206,#207,#208,#209,#210,#211,#212,#213,#214,#215,#216,#217,#218,#219,#220,
#221,#222,#223));
#724=EDGE_LOOP('',(#224,#225,#226,#227));
#725=EDGE_LOOP('',(#228,#229,#230,#231));
#726=EDGE_LOOP('',(#232,#233,#234,#235,#236,#237,#238,#239,#240,#241,#242,
#243,#244,#245,#246,#247,#248,#249,#250,#251,#252,#253,#254,#255,#256,#257,
#258,#259,#260));
#727=FACE_BOUND('',#682,.T.);
#728=FACE_BOUND('',#683,.T.);
#729=FACE_BOUND('',#684,.T.);
#730=FACE_BOUND('',#685,.T.);
#731=FACE_BOUND('',#686,.T.);
#732=FACE_BOUND('',#687,.T.);
#733=FACE_BOUND('',#688,.T.);
#734=FACE_BOUND('',#689,.T.);
#735=FACE_BOUND('',#690,.T.);
#736=FACE_BOUND('',#691,.T.);
#737=FACE_BOUND('',#692,.T.);
#738=FACE_BOUND('',#693,.T.);
#739=FACE_BOUND('',#694,.T.);
#740=FACE_BOUND('',#695,.T.);
#741=FACE_BOUND('',#696,.T.);
#742=FACE_BOUND('',#697,.T.);
#743=FACE_BOUND('',#698,.T.);
#744=FACE_BOUND('',#699,.T.);
#745=FACE_BOUND('',#700,.T.);
#746=FACE_BOUND('',#701,.T.);
#747=FACE_BOUND('',#702,.T.);
#748=FACE_BOUND('',#703,.T.);
#749=FACE_BOUND('',#704,.T.);
#750=FACE_BOUND('',#705,.T.);
#751=FACE_BOUND('',#706,.T.);
#752=FACE_BOUND('',#707,.T.);
#753=FACE_BOUND('',#708,.T.);
#754=FACE_BOUND('',#709,.T.);
#755=FACE_BOUND('',#710,.T.);
#756=FACE_BOUND('',#711,.T.);
#757=FACE_BOUND('',#712,.T.);
#758=FACE_BOUND('',#713,.T.);
#759=FACE_BOUND('',#714,.T.);
#760=FACE_BOUND('',#715,.T.);
#761=FACE_BOUND('',#716,.T.);
#762=FACE_BOUND('',#717,.T.);
#763=FACE_BOUND('',#718,.T.);
#764=FACE_BOUND('',#719,.T.);
#765=FACE_BOUND('',#720,.T.);
#766=FACE_BOUND('',#721,.T.);
#767=FACE_BOUND('',#722,.T.);
#768=FACE_BOUND('',#723,.T.);
#769=FACE_BOUND('',#724,.T.);
#770=FACE_BOUND('',#725,.T.);
#771=FACE_BOUND('',#726,.T.);
#772=PLANE('',#882);
#773=PLANE('',#883);
#774=PLANE('',#884);
#775=PLANE('',#885);
#776=PLANE('',#886);
#777=PLANE('',#889);
#778=PLANE('',#894);
#779=PLANE('',#895);
#780=PLANE('',#896);
#781=PLANE('',#897);
#782=PLANE('',#898);
#783=PLANE('',#899);
#784=PLANE('',#900);
#785=PLANE('',#901);
#786=PLANE('',#902);
#787=PLANE('',#903);
#788=PLANE('',#904);
#789=PLANE('',#905);
#790=PLANE('',#906);
#791=PLANE('',#907);
#792=PLANE('',#908);
#793=PLANE('',#909);
#794=PLANE('',#910);
#795=PLANE('',#911);
#796=PLANE('',#912);
#797=PLANE('',#913);
#798=PLANE('',#914);
#799=PLANE('',#915);
#800=PLANE('',#916);
#801=PLANE('',#917);
#802=PLANE('',#918);
#803=PLANE('',#919);
#804=PLANE('',#920);
#805=PLANE('',#921);
#806=PLANE('',#922);
#807=PLANE('',#923);
#808=PLANE('',#924);
#809=PLANE('',#925);
#810=PLANE('',#926);
#811=PLANE('',#927);
#812=PLANE('',#928);
#813=PLANE('',#929);
#814=ADVANCED_FACE('',(#727,#728),#772,.T.);
#815=ADVANCED_FACE('',(#729),#773,.T.);
#816=ADVANCED_FACE('',(#730),#774,.T.);
#817=ADVANCED_FACE('',(#731),#775,.T.);
#818=ADVANCED_FACE('',(#732),#776,.F.);
#819=ADVANCED_FACE('',(#733),#777,.T.);
#820=ADVANCED_FACE('',(#734),#21,.T.);
#821=ADVANCED_FACE('',(#735),#22,.T.);
#822=ADVANCED_FACE('',(#736),#778,.T.);
#823=ADVANCED_FACE('',(#737),#779,.T.);
#824=ADVANCED_FACE('',(#738),#780,.T.);
#825=ADVANCED_FACE('',(#739),#781,.F.);
#826=ADVANCED_FACE('',(#740),#782,.T.);
#827=ADVANCED_FACE('',(#741),#783,.F.);
#828=ADVANCED_FACE('',(#742),#784,.F.);
#829=ADVANCED_FACE('',(#743),#785,.F.);
#830=ADVANCED_FACE('',(#744),#786,.F.);
#831=ADVANCED_FACE('',(#745),#787,.F.);
#832=ADVANCED_FACE('',(#746),#788,.F.);
#833=ADVANCED_FACE('',(#747),#789,.F.);
#834=ADVANCED_FACE('',(#748),#790,.F.);
#835=ADVANCED_FACE('',(#749),#791,.F.);
#836=ADVANCED_FACE('',(#750),#792,.F.);
#837=ADVANCED_FACE('',(#751),#793,.F.);
#838=ADVANCED_FACE('',(#752),#794,.F.);
#839=ADVANCED_FACE('',(#753),#795,.F.);
#840=ADVANCED_FACE('',(#754),#796,.F.);
#841=ADVANCED_FACE('',(#755),#797,.F.);
#842=ADVANCED_FACE('',(#756),#798,.F.);
#843=ADVANCED_FACE('',(#757),#799,.F.);
#844=ADVANCED_FACE('',(#758),#800,.F.);
#845=ADVANCED_FACE('',(#759),#801,.F.);
#846=ADVANCED_FACE('',(#760),#802,.F.);
#847=ADVANCED_FACE('',(#761),#803,.F.);
#848=ADVANCED_FACE('',(#762),#804,.F.);
#849=ADVANCED_FACE('',(#763),#805,.F.);
#850=ADVANCED_FACE('',(#764),#806,.F.);
#851=ADVANCED_FACE('',(#765),#807,.F.);
#852=ADVANCED_FACE('',(#766),#808,.F.);
#853=ADVANCED_FACE('',(#767),#809,.T.);
#854=ADVANCED_FACE('',(#768),#810,.T.);
#855=ADVANCED_FACE('',(#769),#811,.T.);
#856=ADVANCED_FACE('',(#770),#812,.T.);
#857=ADVANCED_FACE('',(#771),#813,.F.);
#858=CLOSED_SHELL('',(#814,#815,#816,#817,#818,#819,#820,#821,#822,#823,
#824,#825,#826));
#859=CLOSED_SHELL('',(#827,#828,#829,#830,#831,#832,#833,#834,#835,#836,
#837,#838,#839,#840,#841,#842,#843,#844,#845,#846,#847,#848,#849,#850,#851,
#852,#853,#854,#855,#856,#857));
#860=STYLED_ITEM('',(#862),#877);
#861=STYLED_ITEM('',(#863),#878);
#862=PRESENTATION_STYLE_ASSIGNMENT((#864));
#863=PRESENTATION_STYLE_ASSIGNMENT((#865));
#864=SURFACE_STYLE_USAGE(.BOTH.,#866);
#865=SURFACE_STYLE_USAGE(.BOTH.,#867);
#866=SURFACE_SIDE_STYLE('',(#870,#868));
#867=SURFACE_SIDE_STYLE('',(#871));
#868=SURFACE_STYLE_RENDERING_WITH_PROPERTIES(.CONSTANT_SHADING.,#876,(#869));
#869=SURFACE_STYLE_TRANSPARENT(0.5);
#870=SURFACE_STYLE_FILL_AREA(#872);
#871=SURFACE_STYLE_FILL_AREA(#873);
#872=FILL_AREA_STYLE('',(#874));
#873=FILL_AREA_STYLE('',(#875));
#874=FILL_AREA_STYLE_COLOUR('',#876);
#875=FILL_AREA_STYLE_COLOUR('',#18);
#876=DRAUGHTING_PRE_DEFINED_COLOUR('yellow');
#877=MANIFOLD_SOLID_BREP('',#858);
#878=MANIFOLD_SOLID_BREP('',#859);
#879=SHAPE_DEFINITION_REPRESENTATION(#1387,#880);
#880=SHAPE_REPRESENTATION('104JT-025',(#881),#1382);
#881=AXIS2_PLACEMENT_3D('',#1141,#930,#931);
#882=AXIS2_PLACEMENT_3D('',#1142,#932,#933);
#883=AXIS2_PLACEMENT_3D('',#1159,#942,#943);
#884=AXIS2_PLACEMENT_3D('',#1165,#947,#948);
#885=AXIS2_PLACEMENT_3D('',#1174,#953,#954);
#886=AXIS2_PLACEMENT_3D('',#1180,#958,#959);
#887=AXIS2_PLACEMENT_3D('',#1181,#960,#961);
#888=AXIS2_PLACEMENT_3D('',#1182,#962,#963);
#889=AXIS2_PLACEMENT_3D('',#1183,#964,#965);
#890=AXIS2_PLACEMENT_3D('',#1184,#966,#967);
#891=AXIS2_PLACEMENT_3D('',#1185,#968,#969);
#892=AXIS2_PLACEMENT_3D('',#1186,#970,#971);
#893=AXIS2_PLACEMENT_3D('',#1187,#972,#973);
#894=AXIS2_PLACEMENT_3D('',#1188,#974,#975);
#895=AXIS2_PLACEMENT_3D('',#1194,#979,#980);
#896=AXIS2_PLACEMENT_3D('',#1200,#984,#985);
#897=AXIS2_PLACEMENT_3D('',#1203,#988,#989);
#898=AXIS2_PLACEMENT_3D('',#1204,#990,#991);
#899=AXIS2_PLACEMENT_3D('',#1205,#992,#993);
#900=AXIS2_PLACEMENT_3D('',#1214,#998,#999);
#901=AXIS2_PLACEMENT_3D('',#1220,#1003,#1004);
#902=AXIS2_PLACEMENT_3D('',#1226,#1008,#1009);
#903=AXIS2_PLACEMENT_3D('',#1235,#1014,#1015);
#904=AXIS2_PLACEMENT_3D('',#1241,#1019,#1020);
#905=AXIS2_PLACEMENT_3D('',#1247,#1024,#1025);
#906=AXIS2_PLACEMENT_3D('',#1253,#1029,#1030);
#907=AXIS2_PLACEMENT_3D('',#1259,#1034,#1035);
#908=AXIS2_PLACEMENT_3D('',#1265,#1039,#1040);
#909=AXIS2_PLACEMENT_3D('',#1271,#1044,#1045);
#910=AXIS2_PLACEMENT_3D('',#1277,#1049,#1050);
#911=AXIS2_PLACEMENT_3D('',#1283,#1054,#1055);
#912=AXIS2_PLACEMENT_3D('',#1289,#1059,#1060);
#913=AXIS2_PLACEMENT_3D('',#1295,#1064,#1065);
#914=AXIS2_PLACEMENT_3D('',#1301,#1069,#1070);
#915=AXIS2_PLACEMENT_3D('',#1307,#1074,#1075);
#916=AXIS2_PLACEMENT_3D('',#1313,#1079,#1080);
#917=AXIS2_PLACEMENT_3D('',#1319,#1084,#1085);
#918=AXIS2_PLACEMENT_3D('',#1325,#1089,#1090);
#919=AXIS2_PLACEMENT_3D('',#1331,#1094,#1095);
#920=AXIS2_PLACEMENT_3D('',#1337,#1099,#1100);
#921=AXIS2_PLACEMENT_3D('',#1343,#1104,#1105);
#922=AXIS2_PLACEMENT_3D('',#1349,#1109,#1110);
#923=AXIS2_PLACEMENT_3D('',#1355,#1114,#1115);
#924=AXIS2_PLACEMENT_3D('',#1361,#1119,#1120);
#925=AXIS2_PLACEMENT_3D('',#1364,#1123,#1124);
#926=AXIS2_PLACEMENT_3D('',#1373,#1129,#1130);
#927=AXIS2_PLACEMENT_3D('',#1376,#1133,#1134);
#928=AXIS2_PLACEMENT_3D('',#1378,#1136,#1137);
#929=AXIS2_PLACEMENT_3D('',#1380,#1139,#1140);
#930=DIRECTION('',(0.,0.,1.));
#931=DIRECTION('',(1.,0.,0.));
#932=DIRECTION('',(1.,-4.8186763221578E-16,0.));
#933=DIRECTION('',(4.8186763221578E-16,1.,0.));
#934=DIRECTION('',(-4.8186763221578E-16,-1.,0.));
#935=DIRECTION('',(0.,0.,-1.));
#936=DIRECTION('',(0.,-1.,0.));
#937=DIRECTION('',(0.,0.,-1.));
#938=DIRECTION('',(0.,0.,-1.));
#939=DIRECTION('',(0.,1.,0.));
#940=DIRECTION('',(0.,0.,-1.));
#941=DIRECTION('',(0.,1.,0.));
#942=DIRECTION('',(0.,-1.,0.));
#943=DIRECTION('',(0.,0.,-1.));
#944=DIRECTION('',(-1.,0.,0.));
#945=DIRECTION('',(0.,0.,-1.));
#946=DIRECTION('',(-1.,0.,0.));
#947=DIRECTION('',(-1.,0.,0.));
#948=DIRECTION('',(0.,0.,1.));
#949=DIRECTION('',(0.,1.,0.));
#950=DIRECTION('',(0.,0.,-1.));
#951=DIRECTION('',(0.,1.,0.));
#952=DIRECTION('',(0.,0.,-1.));
#953=DIRECTION('',(-1.30104260698261E-16,1.,0.));
#954=DIRECTION('',(-1.,-1.30104260698261E-16,0.));
#955=DIRECTION('',(1.,1.30104260698261E-16,0.));
#956=DIRECTION('',(0.,0.,-1.));
#957=DIRECTION('',(1.,1.30104260698261E-16,0.));
#958=DIRECTION('',(0.,0.,-1.));
#959=DIRECTION('',(-1.,0.,0.));
#960=DIRECTION('',(0.,0.,-1.));
#961=DIRECTION('',(-1.,0.,0.));
#962=DIRECTION('',(0.,0.,-1.));
#963=DIRECTION('',(-1.,0.,0.));
#964=DIRECTION('',(0.,0.,-1.));
#965=DIRECTION('',(-1.,0.,0.));
#966=DIRECTION('',(0.,0.,-1.));
#967=DIRECTION('',(-1.,0.,0.));
#968=DIRECTION('',(0.,0.,-1.));
#969=DIRECTION('',(-1.,0.,0.));
#970=DIRECTION('',(0.,0.,-1.));
#971=DIRECTION('',(-1.,0.,0.));
#972=DIRECTION('',(0.,0.,-1.));
#973=DIRECTION('',(-1.,0.,0.));
#974=DIRECTION('',(0.,-1.,0.));
#975=DIRECTION('',(0.,0.,-1.));
#976=DIRECTION('',(-1.,0.,0.));
#977=DIRECTION('',(-1.,0.,0.));
#978=DIRECTION('',(0.,0.,-1.));
#979=DIRECTION('',(1.,1.20210415013819E-15,0.));
#980=DIRECTION('',(-1.20210415013819E-15,1.,0.));
#981=DIRECTION('',(1.20210415013819E-15,-1.,0.));
#982=DIRECTION('',(-1.20210415013819E-15,-1.,0.));
#983=DIRECTION('',(0.,0.,-1.));
#984=DIRECTION('',(0.,1.,0.));
#985=DIRECTION('',(0.,0.,1.));
#986=DIRECTION('',(1.,0.,0.));
#987=DIRECTION('',(1.,0.,0.));
#988=DIRECTION('',(0.,0.,1.));
#989=DIRECTION('',(1.,0.,0.));
#990=DIRECTION('',(0.,0.,1.));
#991=DIRECTION('',(1.,0.,0.));
#992=DIRECTION('',(-1.,0.,0.));
#993=DIRECTION('',(0.,0.,1.));
#994=DIRECTION('',(0.,1.,0.));
#995=DIRECTION('',(0.,0.,-1.));
#996=DIRECTION('',(0.,1.,0.));
#997=DIRECTION('',(0.,0.,-1.));
#998=DIRECTION('',(-3.46944695195362E-16,-1.,0.));
#999=DIRECTION('',(1.,-3.46944695195362E-16,0.));
#1000=DIRECTION('',(-1.,3.46944695195361E-16,0.));
#1001=DIRECTION('',(0.,0.,-1.));
#1002=DIRECTION('',(-1.,3.46944695195361E-16,0.));
#1003=DIRECTION('',(3.90312782094782E-16,1.,0.));
#1004=DIRECTION('',(-1.,3.90312782094782E-16,0.));
#1005=DIRECTION('',(1.,-3.90312782094782E-16,0.));
#1006=DIRECTION('',(1.,-3.90312782094782E-16,0.));
#1007=DIRECTION('',(0.,0.,-1.));
#1008=DIRECTION('',(-1.,0.,0.));
#1009=DIRECTION('',(0.,0.,1.));
#1010=DIRECTION('',(0.,1.,0.));
#1011=DIRECTION('',(0.,0.,-1.));
#1012=DIRECTION('',(0.,1.,0.));
#1013=DIRECTION('',(0.,0.,-1.));
#1014=DIRECTION('',(-1.,0.,0.));
#1015=DIRECTION('',(0.,0.,1.));
#1016=DIRECTION('',(0.,1.,0.));
#1017=DIRECTION('',(0.,1.,0.));
#1018=DIRECTION('',(0.,0.,-1.));
#1019=DIRECTION('',(-1.,0.,0.));
#1020=DIRECTION('',(0.,0.,1.));
#1021=DIRECTION('',(0.,1.,0.));
#1022=DIRECTION('',(0.,0.,-1.));
#1023=DIRECTION('',(0.,1.,0.));
#1024=DIRECTION('',(0.,-1.,0.));
#1025=DIRECTION('',(0.,0.,-1.));
#1026=DIRECTION('',(-1.,0.,0.));
#1027=DIRECTION('',(0.,0.,-1.));
#1028=DIRECTION('',(-1.,0.,0.));
#1029=DIRECTION('',(0.902681045639578,-0.430310271598342,0.));
#1030=DIRECTION('',(0.430310271598342,0.902681045639578,0.));
#1031=DIRECTION('',(-0.430310271598342,-0.902681045639578,0.));
#1032=DIRECTION('',(0.,0.,-1.));
#1033=DIRECTION('',(-0.430310271598342,-0.902681045639578,0.));
#1034=DIRECTION('',(0.,-1.,0.));
#1035=DIRECTION('',(0.,0.,-1.));
#1036=DIRECTION('',(-1.,0.,0.));
#1037=DIRECTION('',(0.,0.,-1.));
#1038=DIRECTION('',(-1.,0.,0.));
#1039=DIRECTION('',(-0.939710422393494,-0.341971229849881,0.));
#1040=DIRECTION('',(0.341971229849881,-0.939710422393494,0.));
#1041=DIRECTION('',(-0.341971229849881,0.939710422393494,0.));
#1042=DIRECTION('',(0.,0.,-1.));
#1043=DIRECTION('',(-0.341971229849881,0.939710422393494,0.));
#1044=DIRECTION('',(0.,-1.,0.));
#1045=DIRECTION('',(0.,0.,-1.));
#1046=DIRECTION('',(-1.,0.,0.));
#1047=DIRECTION('',(0.,0.,-1.));
#1048=DIRECTION('',(-1.,0.,0.));
#1049=DIRECTION('',(-1.,-4.05594283216351E-15,0.));
#1050=DIRECTION('',(4.05594283216351E-15,-1.,0.));
#1051=DIRECTION('',(-4.05594283216351E-15,1.,0.));
#1052=DIRECTION('',(0.,0.,-1.));
#1053=DIRECTION('',(8.11188566432696E-15,1.,0.));
#1054=DIRECTION('',(0.,1.,0.));
#1055=DIRECTION('',(0.,0.,1.));
#1056=DIRECTION('',(1.,0.,0.));
#1057=DIRECTION('',(0.,0.,-1.));
#1058=DIRECTION('',(1.,0.,0.));
#1059=DIRECTION('',(-0.939710422393494,0.341971229849881,0.));
#1060=DIRECTION('',(-0.341971229849881,-0.939710422393494,0.));
#1061=DIRECTION('',(0.341971229849881,0.939710422393494,0.));
#1062=DIRECTION('',(0.,0.,-1.));
#1063=DIRECTION('',(0.341971229849881,0.939710422393494,0.));
#1064=DIRECTION('',(0.,1.,0.));
#1065=DIRECTION('',(0.,0.,1.));
#1066=DIRECTION('',(1.,0.,0.));
#1067=DIRECTION('',(0.,0.,-1.));
#1068=DIRECTION('',(1.,0.,0.));
#1069=DIRECTION('',(0.902681045639578,0.430310271598342,0.));
#1070=DIRECTION('',(-0.430310271598342,0.902681045639578,0.));
#1071=DIRECTION('',(0.430310271598342,-0.902681045639578,0.));
#1072=DIRECTION('',(0.,0.,-1.));
#1073=DIRECTION('',(0.430310271598342,-0.902681045639578,0.));
#1074=DIRECTION('',(0.,1.,0.));
#1075=DIRECTION('',(0.,0.,1.));
#1076=DIRECTION('',(1.,0.,0.));
#1077=DIRECTION('',(0.,0.,-1.));
#1078=DIRECTION('',(1.,0.,0.));
#1079=DIRECTION('',(-1.,0.,0.));
#1080=DIRECTION('',(0.,0.,1.));
#1081=DIRECTION('',(0.,0.,-1.));
#1082=DIRECTION('',(0.,1.,0.));
#1083=DIRECTION('',(0.,1.,0.));
#1084=DIRECTION('',(0.,-1.,0.));
#1085=DIRECTION('',(0.,0.,-1.));
#1086=DIRECTION('',(-1.,0.,0.));
#1087=DIRECTION('',(0.,0.,-1.));
#1088=DIRECTION('',(-1.,-1.38692711488148E-17,0.));
#1089=DIRECTION('',(0.936956044078966,-0.349447237024267,0.));
#1090=DIRECTION('',(0.349447237024267,0.936956044078966,0.));
#1091=DIRECTION('',(-0.349447237024267,-0.936956044078966,0.));
#1092=DIRECTION('',(0.,0.,-1.));
#1093=DIRECTION('',(-0.349447237024267,-0.936956044078966,0.));
#1094=DIRECTION('',(0.,-1.,0.));
#1095=DIRECTION('',(0.,0.,-1.));
#1096=DIRECTION('',(-1.,0.,0.));
#1097=DIRECTION('',(0.,0.,-1.));
#1098=DIRECTION('',(-1.,0.,0.));
#1099=DIRECTION('',(0.999261965988399,-0.0384125412983741,0.));
#1100=DIRECTION('',(0.0384125412983741,0.999261965988399,0.));
#1101=DIRECTION('',(-0.0384125412983741,-0.999261965988399,0.));
#1102=DIRECTION('',(0.,0.,-1.));
#1103=DIRECTION('',(-0.0384125412983741,-0.999261965988399,0.));
#1104=DIRECTION('',(0.999261965988399,0.038412541298374,0.));
#1105=DIRECTION('',(-0.038412541298374,0.999261965988399,0.));
#1106=DIRECTION('',(0.038412541298374,-0.999261965988399,0.));
#1107=DIRECTION('',(0.,0.,-1.));
#1108=DIRECTION('',(0.038412541298374,-0.999261965988399,0.));
#1109=DIRECTION('',(0.,1.,0.));
#1110=DIRECTION('',(0.,0.,1.));
#1111=DIRECTION('',(1.,0.,0.));
#1112=DIRECTION('',(0.,0.,-1.));
#1113=DIRECTION('',(1.,0.,0.));
#1114=DIRECTION('',(0.936956044078966,0.349447237024267,0.));
#1115=DIRECTION('',(-0.349447237024267,0.936956044078966,0.));
#1116=DIRECTION('',(0.349447237024267,-0.936956044078966,0.));
#1117=DIRECTION('',(0.,0.,-1.));
#1118=DIRECTION('',(0.349447237024267,-0.936956044078966,0.));
#1119=DIRECTION('',(0.,1.,0.));
#1120=DIRECTION('',(0.,0.,1.));
#1121=DIRECTION('',(1.,0.,0.));
#1122=DIRECTION('',(1.,0.,0.));
#1123=DIRECTION('',(1.,0.,0.));
#1124=DIRECTION('',(0.,0.,-1.));
#1125=DIRECTION('',(0.,-1.,0.));
#1126=DIRECTION('',(0.,0.,-1.));
#1127=DIRECTION('',(0.,-1.,0.));
#1128=DIRECTION('',(0.,0.,-1.));
#1129=DIRECTION('',(0.,0.,-1.));
#1130=DIRECTION('',(-1.,0.,0.));
#1131=DIRECTION('',(-1.,-1.0842021724855E-16,0.));
#1132=DIRECTION('',(1.,1.30104260698261E-16,0.));
#1133=DIRECTION('',(-1.30104260698261E-16,1.,0.));
#1134=DIRECTION('',(-1.,-1.30104260698261E-16,0.));
#1135=DIRECTION('',(1.,1.30104260698261E-16,0.));
#1136=DIRECTION('',(1.0842021724855E-16,-1.,0.));
#1137=DIRECTION('',(1.,1.0842021724855E-16,0.));
#1138=DIRECTION('',(-1.,-1.0842021724855E-16,0.));
#1139=DIRECTION('',(0.,0.,-1.));
#1140=DIRECTION('',(-1.,0.,0.));
#1141=CARTESIAN_POINT('',(0.,0.,0.));
#1142=CARTESIAN_POINT('',(7.5,-8.67361737988404E-16,0.5));
#1143=CARTESIAN_POINT('',(7.5,-8.67361737988404E-16,0.));
#1144=CARTESIAN_POINT('',(7.5,1.8,0.));
#1145=CARTESIAN_POINT('',(7.5,-1.8,0.));
#1146=CARTESIAN_POINT('',(7.5,1.8,0.5));
#1147=CARTESIAN_POINT('',(7.5,1.8,0.5));
#1148=CARTESIAN_POINT('',(7.5,-8.67361737988404E-16,0.5));
#1149=CARTESIAN_POINT('',(7.5,-1.8,0.5));
#1150=CARTESIAN_POINT('',(7.5,-1.8,0.5));
#1151=CARTESIAN_POINT('',(7.5,-1.4430725289297,0.341832912165886));
#1152=CARTESIAN_POINT('',(7.5,-1.4430725289297,0.341832912165886));
#1153=CARTESIAN_POINT('',(7.5,-1.4430725289297,0.158167087834117));
#1154=CARTESIAN_POINT('',(7.5,1.4430725289297,0.341832912165886));
#1155=CARTESIAN_POINT('',(7.5,1.4430725289297,0.341832912165886));
#1156=CARTESIAN_POINT('',(7.5,1.4430725289297,0.341832912165886));
#1157=CARTESIAN_POINT('',(7.5,1.4430725289297,0.158167087834117));
#1158=CARTESIAN_POINT('',(7.5,1.4430725289297,0.158167087834117));
#1159=CARTESIAN_POINT('',(-12.5,-1.8,0.5));
#1160=CARTESIAN_POINT('',(-12.5,-1.8,0.5));
#1161=CARTESIAN_POINT('',(-11.9,-1.8,0.5));
#1162=CARTESIAN_POINT('',(-11.9,-1.8,0.5));
#1163=CARTESIAN_POINT('',(-11.9,-1.8,0.));
#1164=CARTESIAN_POINT('',(-12.5,-1.8,0.));
#1165=CARTESIAN_POINT('',(-12.5,1.53080849893419E-15,0.5));
#1166=CARTESIAN_POINT('',(-12.5,1.53080849893419E-15,0.));
#1167=CARTESIAN_POINT('',(-12.5,-1.2,0.));
#1168=CARTESIAN_POINT('',(-12.5,1.2,0.));
#1169=CARTESIAN_POINT('',(-12.5,-1.2,0.5));
#1170=CARTESIAN_POINT('',(-12.5,-1.2,0.5));
#1171=CARTESIAN_POINT('',(-12.5,-1.8,0.5));
#1172=CARTESIAN_POINT('',(-12.5,1.2,0.5));
#1173=CARTESIAN_POINT('',(-12.5,1.2,0.5));
#1174=CARTESIAN_POINT('',(7.5,1.8,0.5));
#1175=CARTESIAN_POINT('',(7.5,1.8,0.));
#1176=CARTESIAN_POINT('',(-11.9,1.8,0.));
#1177=CARTESIAN_POINT('',(-11.9,1.8,0.5));
#1178=CARTESIAN_POINT('',(-11.9,1.8,0.5));
#1179=CARTESIAN_POINT('',(7.5,1.8,0.5));
#1180=CARTESIAN_POINT('',(0.,0.,0.5));
#1181=CARTESIAN_POINT('',(-11.9,-1.2,0.5));
#1182=CARTESIAN_POINT('',(-11.9,1.2,0.5));
#1183=CARTESIAN_POINT('',(0.,0.,0.));
#1184=CARTESIAN_POINT('',(-11.9,-1.2,0.));
#1185=CARTESIAN_POINT('',(-11.9,1.2,0.));
#1186=CARTESIAN_POINT('',(-11.9,1.2,0.5));
#1187=CARTESIAN_POINT('',(-11.9,-1.2,0.5));
#1188=CARTESIAN_POINT('',(7.5,1.4430725289297,0.341832912165886));
#1189=CARTESIAN_POINT('',(7.5,1.4430725289297,0.158167087834117));
#1190=CARTESIAN_POINT('',(-11.9912341487203,1.4430725289297,0.158167087834117));
#1191=CARTESIAN_POINT('',(7.5,1.4430725289297,0.341832912165886));
#1192=CARTESIAN_POINT('',(-11.9912341487203,1.4430725289297,0.341832912165886));
#1193=CARTESIAN_POINT('',(-11.9912341487203,1.4430725289297,0.341832912165886));
#1194=CARTESIAN_POINT('',(-11.9912341487203,-1.4430725289297,0.341832912165886));
#1195=CARTESIAN_POINT('',(-11.9912341487203,-1.4430725289297,0.158167087834117));
#1196=CARTESIAN_POINT('',(-11.9912341487203,-1.4430725289297,0.158167087834117));
#1197=CARTESIAN_POINT('',(-11.9912341487203,1.4430725289297,0.341832912165886));
#1198=CARTESIAN_POINT('',(-11.9912341487203,-1.4430725289297,0.341832912165886));
#1199=CARTESIAN_POINT('',(-11.9912341487203,-1.4430725289297,0.341832912165886));
#1200=CARTESIAN_POINT('',(7.5,-1.4430725289297,0.341832912165886));
#1201=CARTESIAN_POINT('',(7.5,-1.4430725289297,0.158167087834117));
#1202=CARTESIAN_POINT('',(7.5,-1.4430725289297,0.341832912165886));
#1203=CARTESIAN_POINT('',(0.,0.,0.341832912165886));
#1204=CARTESIAN_POINT('',(0.,0.,0.158167087834117));
#1205=CARTESIAN_POINT('',(12.5,-0.900000000000002,0.335000000000002));
#1206=CARTESIAN_POINT('',(12.5,-0.900000000000002,0.165000000000002));
#1207=CARTESIAN_POINT('',(12.5,-1.15,0.165000000000002));
#1208=CARTESIAN_POINT('',(12.5,-0.650000000000002,0.165000000000002));
#1209=CARTESIAN_POINT('',(12.5,-0.650000000000002,0.335000000000002));
#1210=CARTESIAN_POINT('',(12.5,-0.650000000000002,0.335000000000002));
#1211=CARTESIAN_POINT('',(12.5,-0.900000000000002,0.335000000000002));
#1212=CARTESIAN_POINT('',(12.5,-1.15,0.335000000000002));
#1213=CARTESIAN_POINT('',(12.5,-1.15,0.335000000000002));
#1214=CARTESIAN_POINT('',(12.5,-0.650000000000002,0.335000000000002));
#1215=CARTESIAN_POINT('',(12.5,-0.650000000000002,0.165000000000002));
#1216=CARTESIAN_POINT('',(7.5,-0.650000000000001,0.165000000000002));
#1217=CARTESIAN_POINT('',(7.5,-0.65,0.335000000000002));
#1218=CARTESIAN_POINT('',(7.5,-0.650000000000001,0.335000000000002));
#1219=CARTESIAN_POINT('',(12.5,-0.650000000000002,0.335000000000002));
#1220=CARTESIAN_POINT('',(12.5,-1.15,0.335000000000002));
#1221=CARTESIAN_POINT('',(12.5,-1.15,0.165000000000002));
#1222=CARTESIAN_POINT('',(7.5,-1.15,0.165000000000002));
#1223=CARTESIAN_POINT('',(12.5,-1.15,0.335000000000002));
#1224=CARTESIAN_POINT('',(7.5,-1.15,0.335000000000002));
#1225=CARTESIAN_POINT('',(7.5,-1.15,0.335000000000002));
#1226=CARTESIAN_POINT('',(7.5,0.517729587559895,0.335000000000002));
#1227=CARTESIAN_POINT('',(7.5,0.517729587559895,0.335000000000002));
#1228=CARTESIAN_POINT('',(7.5,1.15,0.335000000000002));
#1229=CARTESIAN_POINT('',(7.5,1.42723702631303,0.335000000000002));
#1230=CARTESIAN_POINT('',(7.5,1.15,0.335000000000002));
#1231=CARTESIAN_POINT('',(7.5,1.15,0.165000000000002));
#1232=CARTESIAN_POINT('',(7.5,0.517729587559895,0.165000000000002));
#1233=CARTESIAN_POINT('',(7.5,1.42723702631303,0.165000000000002));
#1234=CARTESIAN_POINT('',(7.5,1.42723702631303,0.335000000000002));
#1235=CARTESIAN_POINT('',(7.5,-1.42723702631303,0.335000000000002));
#1236=CARTESIAN_POINT('',(7.5,-1.42723702631303,0.335000000000002));
#1237=CARTESIAN_POINT('',(7.5,-0.517729587559895,0.335000000000002));
#1238=CARTESIAN_POINT('',(7.5,-1.42723702631303,0.165000000000002));
#1239=CARTESIAN_POINT('',(7.5,-0.517729587559895,0.165000000000002));
#1240=CARTESIAN_POINT('',(7.5,-0.517729587559895,0.335000000000002));
#1241=CARTESIAN_POINT('',(7.5,-1.42723702631303,0.335000000000002));
#1242=CARTESIAN_POINT('',(7.5,-1.42723702631303,0.335000000000002));
#1243=CARTESIAN_POINT('',(7.5,-1.42723702631303,0.335000000000002));
#1244=CARTESIAN_POINT('',(7.5,-1.42723702631303,0.335000000000002));
#1245=CARTESIAN_POINT('',(7.5,-1.42723702631303,0.165000000000002));
#1246=CARTESIAN_POINT('',(7.5,-1.42723702631303,0.165000000000002));
#1247=CARTESIAN_POINT('',(7.5,-0.517729587559895,0.335000000000002));
#1248=CARTESIAN_POINT('',(7.5,-0.517729587559895,0.165000000000002));
#1249=CARTESIAN_POINT('',(-7.95236554927,-0.517729587559895,0.165000000000002));
#1250=CARTESIAN_POINT('',(-7.95236554927,-0.517729587559895,0.335000000000002));
#1251=CARTESIAN_POINT('',(-7.95236554927,-0.517729587559895,0.335000000000002));
#1252=CARTESIAN_POINT('',(7.5,-0.517729587559895,0.335000000000002));
#1253=CARTESIAN_POINT('',(-7.95236554927,-0.517729587559895,0.335000000000002));
#1254=CARTESIAN_POINT('',(-7.95236554927,-0.517729587559895,0.165000000000002));
#1255=CARTESIAN_POINT('',(-8.13459479380295,-0.900000000000001,0.165000000000002));
#1256=CARTESIAN_POINT('',(-8.13459479380295,-0.900000000000001,0.335000000000002));
#1257=CARTESIAN_POINT('',(-8.13459479380295,-0.900000000000001,0.335000000000002));
#1258=CARTESIAN_POINT('',(-7.95236554927,-0.517729587559895,0.335000000000002));
#1259=CARTESIAN_POINT('',(-8.13459479380295,-0.900000000000001,0.335000000000002));
#1260=CARTESIAN_POINT('',(-8.13459479380295,-0.900000000000001,0.165000000000002));
#1261=CARTESIAN_POINT('',(-8.60486370024064,-0.900000000000001,0.165000000000002));
#1262=CARTESIAN_POINT('',(-8.60486370024064,-0.900000000000001,0.335000000000002));
#1263=CARTESIAN_POINT('',(-8.60486370024064,-0.900000000000001,0.335000000000002));
#1264=CARTESIAN_POINT('',(-8.13459479380295,-0.900000000000001,0.335000000000002));
#1265=CARTESIAN_POINT('',(-8.60486370024064,-0.900000000000001,0.335000000000002));
#1266=CARTESIAN_POINT('',(-8.60486370024064,-0.900000000000001,0.165000000000002));
#1267=CARTESIAN_POINT('',(-8.77673929510084,-0.427699192952254,0.165000000000002));
#1268=CARTESIAN_POINT('',(-8.77673929510084,-0.427699192952254,0.335000000000002));
#1269=CARTESIAN_POINT('',(-8.77673929510084,-0.427699192952254,0.335000000000002));
#1270=CARTESIAN_POINT('',(-8.60486370024064,-0.900000000000001,0.335000000000002));
#1271=CARTESIAN_POINT('',(-8.77673929510084,-0.427699192952254,0.335000000000002));
#1272=CARTESIAN_POINT('',(-8.77673929510084,-0.427699192952254,0.165000000000002));
#1273=CARTESIAN_POINT('',(-11.6061252444575,-0.427699192952254,0.165000000000002));
#1274=CARTESIAN_POINT('',(-11.6061252444575,-0.427699192952254,0.335000000000002));
#1275=CARTESIAN_POINT('',(-11.6061252444575,-0.427699192952254,0.335000000000002));
#1276=CARTESIAN_POINT('',(-8.77673929510084,-0.427699192952254,0.335000000000002));
#1277=CARTESIAN_POINT('',(-11.6061252444575,0.427699192952254,0.335000000000002));
#1278=CARTESIAN_POINT('',(-11.6061252444575,0.427699192952254,0.165000000000002));
#1279=CARTESIAN_POINT('',(-11.6061252444575,0.427699192952254,0.165000000000002));
#1280=CARTESIAN_POINT('',(-11.6061252444575,0.427699192952254,0.335000000000002));
#1281=CARTESIAN_POINT('',(-11.6061252444575,0.427699192952254,0.335000000000002));
#1282=CARTESIAN_POINT('',(-11.6061252444575,-0.427699192952254,0.335000000000002));
#1283=CARTESIAN_POINT('',(-8.77673929510084,0.427699192952254,0.335000000000002));
#1284=CARTESIAN_POINT('',(-8.77673929510084,0.427699192952254,0.165000000000002));
#1285=CARTESIAN_POINT('',(-8.77673929510084,0.427699192952254,0.165000000000002));
#1286=CARTESIAN_POINT('',(-8.77673929510084,0.427699192952254,0.335000000000002));
#1287=CARTESIAN_POINT('',(-8.77673929510084,0.427699192952254,0.335000000000002));
#1288=CARTESIAN_POINT('',(-8.77673929510084,0.427699192952254,0.335000000000002));
#1289=CARTESIAN_POINT('',(-8.60486370024064,0.900000000000001,0.335000000000002));
#1290=CARTESIAN_POINT('',(-8.60486370024064,0.900000000000001,0.165000000000002));
#1291=CARTESIAN_POINT('',(-8.60486370024064,0.900000000000001,0.165000000000002));
#1292=CARTESIAN_POINT('',(-8.60486370024064,0.900000000000001,0.335000000000002));
#1293=CARTESIAN_POINT('',(-8.60486370024064,0.900000000000001,0.335000000000002));
#1294=CARTESIAN_POINT('',(-8.60486370024064,0.900000000000001,0.335000000000002));
#1295=CARTESIAN_POINT('',(-8.13459479380295,0.900000000000001,0.335000000000002));
#1296=CARTESIAN_POINT('',(-8.13459479380295,0.900000000000001,0.165000000000002));
#1297=CARTESIAN_POINT('',(-8.13459479380295,0.900000000000001,0.165000000000002));
#1298=CARTESIAN_POINT('',(-8.13459479380295,0.900000000000001,0.335000000000002));
#1299=CARTESIAN_POINT('',(-8.13459479380295,0.900000000000001,0.335000000000002));
#1300=CARTESIAN_POINT('',(-8.13459479380295,0.900000000000001,0.335000000000002));
#1301=CARTESIAN_POINT('',(-7.95236554927,0.517729587559895,0.335000000000002));
#1302=CARTESIAN_POINT('',(-7.95236554927,0.517729587559895,0.165000000000002));
#1303=CARTESIAN_POINT('',(-7.95236554927,0.517729587559895,0.165000000000002));
#1304=CARTESIAN_POINT('',(-7.95236554927,0.517729587559895,0.335000000000002));
#1305=CARTESIAN_POINT('',(-7.95236554927,0.517729587559895,0.335000000000002));
#1306=CARTESIAN_POINT('',(-7.95236554927,0.517729587559895,0.335000000000002));
#1307=CARTESIAN_POINT('',(7.5,0.517729587559895,0.335000000000002));
#1308=CARTESIAN_POINT('',(7.5,0.517729587559895,0.165000000000002));
#1309=CARTESIAN_POINT('',(7.5,0.517729587559895,0.165000000000002));
#1310=CARTESIAN_POINT('',(7.5,0.517729587559895,0.335000000000002));
#1311=CARTESIAN_POINT('',(7.5,0.517729587559895,0.335000000000002));
#1312=CARTESIAN_POINT('',(7.5,0.517729587559895,0.335000000000002));
#1313=CARTESIAN_POINT('',(7.5,0.517729587559895,0.335000000000002));
#1314=CARTESIAN_POINT('',(7.5,0.649999999999998,0.335000000000002));
#1315=CARTESIAN_POINT('',(7.5,0.649999999999998,0.335000000000002));
#1316=CARTESIAN_POINT('',(7.5,0.649999999999998,0.165000000000002));
#1317=CARTESIAN_POINT('',(7.5,0.517729587559895,0.335000000000002));
#1318=CARTESIAN_POINT('',(7.5,0.517729587559895,0.165000000000002));
#1319=CARTESIAN_POINT('',(-8.65398903486354,1.42723702631303,0.335000000000002));
#1320=CARTESIAN_POINT('',(-8.65398903486354,1.42723702631303,0.165000000000002));
#1321=CARTESIAN_POINT('',(-8.65398903486354,1.42723702631303,0.165000000000002));
#1322=CARTESIAN_POINT('',(-8.65398903486354,1.42723702631303,0.335000000000002));
#1323=CARTESIAN_POINT('',(-8.65398903486354,1.42723702631303,0.335000000000002));
#1324=CARTESIAN_POINT('',(-8.13459479380295,1.42723702631303,0.335000000000002));
#1325=CARTESIAN_POINT('',(-8.89923118696121,0.769681056983998,0.335000000000002));
#1326=CARTESIAN_POINT('',(-8.89923118696121,0.769681056983998,0.165000000000002));
#1327=CARTESIAN_POINT('',(-8.89923118696121,0.769681056983998,0.165000000000002));
#1328=CARTESIAN_POINT('',(-8.89923118696121,0.769681056983998,0.335000000000002));
#1329=CARTESIAN_POINT('',(-8.89923118696121,0.769681056983998,0.335000000000002));
#1330=CARTESIAN_POINT('',(-8.89923118696121,0.769681056983998,0.335000000000002));
#1331=CARTESIAN_POINT('',(-11.8884535326442,0.769681056983998,0.335000000000002));
#1332=CARTESIAN_POINT('',(-11.8884535326442,0.769681056983998,0.165000000000002));
#1333=CARTESIAN_POINT('',(-11.8884535326442,0.769681056983998,0.165000000000002));
#1334=CARTESIAN_POINT('',(-11.8884535326442,0.769681056983998,0.335000000000002));
#1335=CARTESIAN_POINT('',(-11.8884535326442,0.769681056983998,0.335000000000002));
#1336=CARTESIAN_POINT('',(-11.8884535326442,0.769681056983998,0.335000000000002));
#1337=CARTESIAN_POINT('',(-11.9180407744229,1.45953904865047E-15,0.335000000000002));
#1338=CARTESIAN_POINT('',(-11.9180407744229,1.45953904865047E-15,0.165000000000002));
#1339=CARTESIAN_POINT('',(-11.9180407744229,1.45953904865047E-15,0.165000000000002));
#1340=CARTESIAN_POINT('',(-11.9180407744229,1.45953904865047E-15,0.335000000000002));
#1341=CARTESIAN_POINT('',(-11.9180407744229,1.45953904865047E-15,0.335000000000002));
#1342=CARTESIAN_POINT('',(-11.9180407744229,1.45953904865047E-15,0.335000000000002));
#1343=CARTESIAN_POINT('',(-11.9180407744229,1.45953904865047E-15,0.335000000000002));
#1344=CARTESIAN_POINT('',(-11.9180407744229,1.45953904865047E-15,0.165000000000002));
#1345=CARTESIAN_POINT('',(-11.8884535326442,-0.769681056983998,0.165000000000002));
#1346=CARTESIAN_POINT('',(-11.8884535326442,-0.769681056983998,0.335000000000002));
#1347=CARTESIAN_POINT('',(-11.8884535326442,-0.769681056983998,0.335000000000002));
#1348=CARTESIAN_POINT('',(-11.9180407744229,1.45953904865047E-15,0.335000000000002));
#1349=CARTESIAN_POINT('',(-11.8884535326442,-0.769681056983998,0.335000000000002));
#1350=CARTESIAN_POINT('',(-11.8884535326442,-0.769681056983998,0.165000000000002));
#1351=CARTESIAN_POINT('',(-8.89923118696121,-0.769681056983998,0.165000000000002));
#1352=CARTESIAN_POINT('',(-8.89923118696121,-0.769681056983998,0.335000000000002));
#1353=CARTESIAN_POINT('',(-8.89923118696121,-0.769681056983998,0.335000000000002));
#1354=CARTESIAN_POINT('',(-11.8884535326442,-0.769681056983998,0.335000000000002));
#1355=CARTESIAN_POINT('',(-8.89923118696121,-0.769681056983998,0.335000000000002));
#1356=CARTESIAN_POINT('',(-8.89923118696121,-0.769681056983998,0.165000000000002));
#1357=CARTESIAN_POINT('',(-8.65398903486354,-1.42723702631303,0.165000000000002));
#1358=CARTESIAN_POINT('',(-8.65398903486354,-1.42723702631303,0.335000000000002));
#1359=CARTESIAN_POINT('',(-8.65398903486354,-1.42723702631303,0.335000000000002));
#1360=CARTESIAN_POINT('',(-8.89923118696121,-0.769681056983998,0.335000000000002));
#1361=CARTESIAN_POINT('',(-8.65398903486354,-1.42723702631303,0.335000000000002));
#1362=CARTESIAN_POINT('',(-8.65398903486354,-1.42723702631303,0.165000000000002));
#1363=CARTESIAN_POINT('',(-8.65398903486354,-1.42723702631303,0.335000000000002));
#1364=CARTESIAN_POINT('',(12.5,0.899999999999999,0.335000000000002));
#1365=CARTESIAN_POINT('',(12.5,0.899999999999999,0.165000000000002));
#1366=CARTESIAN_POINT('',(12.5,1.15,0.165000000000002));
#1367=CARTESIAN_POINT('',(12.5,0.649999999999999,0.165000000000002));
#1368=CARTESIAN_POINT('',(12.5,1.15,0.335000000000002));
#1369=CARTESIAN_POINT('',(12.5,1.15,0.335000000000002));
#1370=CARTESIAN_POINT('',(12.5,0.899999999999999,0.335000000000002));
#1371=CARTESIAN_POINT('',(12.5,0.649999999999999,0.335000000000002));
#1372=CARTESIAN_POINT('',(12.5,0.649999999999999,0.335000000000002));
#1373=CARTESIAN_POINT('',(0.,0.,0.165000000000002));
#1374=CARTESIAN_POINT('',(12.5,0.649999999999999,0.165000000000002));
#1375=CARTESIAN_POINT('',(12.5,1.15,0.165000000000002));
#1376=CARTESIAN_POINT('',(12.5,1.15,0.335000000000002));
#1377=CARTESIAN_POINT('',(12.5,1.15,0.335000000000002));
#1378=CARTESIAN_POINT('',(12.5,0.649999999999999,0.335000000000002));
#1379=CARTESIAN_POINT('',(12.5,0.649999999999999,0.335000000000002));
#1380=CARTESIAN_POINT('',(0.,0.,0.335000000000002));
#1381=MECHANICAL_DESIGN_GEOMETRIC_PRESENTATION_REPRESENTATION('',(#860,
#861),#1382);
#1382=(
GEOMETRIC_REPRESENTATION_CONTEXT(3)
GLOBAL_UNCERTAINTY_ASSIGNED_CONTEXT((#1383))
GLOBAL_UNIT_ASSIGNED_CONTEXT((#1386,#1385,#1384))
REPRESENTATION_CONTEXT('104JT-025','TOP_LEVEL_ASSEMBLY_PART')
);
#1383=UNCERTAINTY_MEASURE_WITH_UNIT(LENGTH_MEASURE(0.005),#1386,
'DISTANCE_ACCURACY_VALUE','Maximum Tolerance applied to model');
#1384=(
NAMED_UNIT(*)
SI_UNIT($,.STERADIAN.)
SOLID_ANGLE_UNIT()
);
#1385=(
NAMED_UNIT(*)
PLANE_ANGLE_UNIT()
SI_UNIT($,.RADIAN.)
);
#1386=(
LENGTH_UNIT()
NAMED_UNIT(*)
SI_UNIT(.MILLI.,.METRE.)
);
#1387=PRODUCT_DEFINITION_SHAPE('','',#1388);
#1388=PRODUCT_DEFINITION('','',#1390,#1389);
#1389=PRODUCT_DEFINITION_CONTEXT('',#1396,'design');
#1390=PRODUCT_DEFINITION_FORMATION_WITH_SPECIFIED_SOURCE('','',#1392,
 .NOT_KNOWN.);
#1391=PRODUCT_RELATED_PRODUCT_CATEGORY('','',(#1392));
#1392=PRODUCT('104JT-025','104JT-025','104JT-025',(#1394));
#1393=PRODUCT_CATEGORY('','');
#1394=PRODUCT_CONTEXT('',#1396,'mechanical');
#1395=APPLICATION_PROTOCOL_DEFINITION('international standard',
'automotive_design',2010,#1396);
#1396=APPLICATION_CONTEXT(
'core data for automotive mechanical design processes');
ENDSEC;
END-ISO-10303-21;
