ISO-10303-21;
HEADER;
FILE_DESCRIPTION (( 'STEP AP214' ),
    '1' );
FILE_NAME ('VJ1206A220JXGAT5Z.STEP',
    '2019-12-25T13:42:00',
    ( '' ),
    ( '' ),
    'SwSTEP 2.0',
    'SolidWorks 2018',
    '' );
FILE_SCHEMA (( 'AUTOMOTIVE_DESIGN' ));
ENDSEC;

DATA;
#1 = CYLINDRICAL_SURFACE ( 'NONE', #469, 0.05333333333333339921 ) ;
#2 = DIRECTION ( 'NONE',  ( 0.0000000000000000000, -1.000000000000000000, 0.0000000000000000000 ) ) ;
#3 = CARTESIAN_POINT ( 'NONE',  ( -1.094999999999999307, 1.619999999999999885, 0.7200000000000003064 ) ) ;
#4 = CARTESIAN_POINT ( 'NONE',  ( 1.519999999999999796, 1.619999999999999885, -0.7199999999999996403 ) ) ;
#5 = AXIS2_PLACEMENT_3D ( 'NONE', #1163, #382, #1063 ) ;
#6 = VERTEX_POINT ( 'NONE', #826 ) ;
#7 = DIRECTION ( 'NONE',  ( 0.0000000000000000000, 0.0000000000000000000, -1.000000000000000000 ) ) ;
#8 = DIRECTION ( 'NONE',  ( 0.0000000000000000000, 0.0000000000000000000, -1.000000000000000000 ) ) ;
#9 = ADVANCED_FACE ( 'NONE', ( #356 ), #1042, .T. ) ;
#10 = EDGE_CURVE ( 'NONE', #460, #430, #918, .T. ) ;
#11 = DIRECTION ( 'NONE',  ( 0.0000000000000000000, -0.0000000000000000000, 1.000000000000000000 ) ) ;
#12 = ORIENTED_EDGE ( 'NONE', *, *, #829, .T. ) ;
#13 = AXIS2_PLACEMENT_3D ( 'NONE', #127, #27, #21 ) ;
#14 = FACE_OUTER_BOUND ( 'NONE', #208, .T. ) ;
#15 = CIRCLE ( 'NONE', #818, 0.07999999999999998779 ) ;
#16 = PRODUCT_DEFINITION_SHAPE ( 'NONE', 'NONE',  #792 ) ;
#17 = ORIENTED_EDGE ( 'NONE', *, *, #1034, .T. ) ;
#18 = ADVANCED_FACE ( 'NONE', ( #79 ), #887, .T. ) ;
#19 = CARTESIAN_POINT ( 'NONE',  ( -1.094999999999999307, 0.02666666666666666491, -0.7199999999999991962 ) ) ;
#20 = CARTESIAN_POINT ( 'NONE',  ( -1.599999999999999867, 1.699999999999999956, -0.7999999999999996003 ) ) ;
#21 = DIRECTION ( 'NONE',  ( 0.0000000000000000000, 0.0000000000000000000, 1.000000000000000000 ) ) ;
#22 = VERTEX_POINT ( 'NONE', #720 ) ;
#23 = VECTOR ( 'NONE', #304, 1000.000000000000000 ) ;
#24 = ORIENTED_EDGE ( 'NONE', *, *, #586, .T. ) ;
#25 = EDGE_CURVE ( 'NONE', #335, #112, #827, .T. ) ;
#26 = VERTEX_POINT ( 'NONE', #19 ) ;
#27 = DIRECTION ( 'NONE',  ( -1.000000000000000000, 0.0000000000000000000, 0.0000000000000000000 ) ) ;
#28 = ADVANCED_FACE ( 'NONE', ( #64 ), #224, .F. ) ;
#29 = LINE ( 'NONE', #137, #781 ) ;
#30 = ORIENTED_EDGE ( 'NONE', *, *, #1135, .F. ) ;
#31 = CARTESIAN_POINT ( 'NONE',  ( -1.519999999999999130, 0.07999999999999998779, 0.7200000000000003064 ) ) ;
#32 = AXIS2_PLACEMENT_3D ( 'NONE', #1129, #1023, #1133 ) ;
#33 = CIRCLE ( 'NONE', #1036, 0.05333333333333329512 ) ;
#34 = DIRECTION ( 'NONE',  ( 1.000000000000000000, -0.0000000000000000000, -0.0000000000000000000 ) ) ;
#35 = EDGE_LOOP ( 'NONE', ( #979, #825, #1058, #144 ) ) ;
#36 = EDGE_CURVE ( 'NONE', #196, #957, #1056, .T. ) ;
#37 = DIRECTION ( 'NONE',  ( -1.000000000000000000, -0.0000000000000000000, 8.673617379884036705E-17 ) ) ;
#38 = CARTESIAN_POINT ( 'NONE',  ( 0.0000000000000000000, 0.0000000000000000000, -0.7199999999999996403 ) ) ;
#39 = PLANE ( 'NONE',  #142 ) ;
#40 = MECHANICAL_DESIGN_GEOMETRIC_PRESENTATION_REPRESENTATION (  '', ( #1187 ), #113 ) ;
#41 = DIRECTION ( 'NONE',  ( 0.0000000000000000000, 0.0000000000000000000, -1.000000000000000000 ) ) ;
#42 = DIRECTION ( 'NONE',  ( 1.000000000000000000, 0.0000000000000000000, 1.355252715606880789E-16 ) ) ;
#43 = DIRECTION ( 'NONE',  ( -1.000000000000000000, -0.0000000000000000000, -0.0000000000000000000 ) ) ;
#44 = DIRECTION ( 'NONE',  ( 0.0000000000000000000, -1.000000000000000000, 0.0000000000000000000 ) ) ;
#45 = CARTESIAN_POINT ( 'NONE',  ( -1.094999999999999307, 1.619999999999999885, -0.7999999999999996003 ) ) ;
#46 = DIRECTION ( 'NONE',  ( 0.0000000000000000000, 1.000000000000000000, 0.0000000000000000000 ) ) ;
#47 = COLOUR_RGB ( '',0.7921568627450980005, 0.8196078431372548767, 0.9333333333333333481 ) ;
#48 = EDGE_CURVE ( 'NONE', #112, #843, #29, .T. ) ;
#49 = EDGE_LOOP ( 'NONE', ( #1248, #859, #610, #162 ) ) ;
#50 = FACE_OUTER_BOUND ( 'NONE', #539, .T. ) ;
#51 = CARTESIAN_POINT ( 'NONE',  ( 1.095000000020718289, 1.619999999999999885, 0.7733333333333333171 ) ) ;
#52 = AXIS2_PLACEMENT_3D ( 'NONE', #31, #819, #261 ) ;
#53 = CARTESIAN_POINT ( 'NONE',  ( 1.095000000020718289, 0.07999999999999998779, -0.7733333333333330950 ) ) ;
#54 = FACE_OUTER_BOUND ( 'NONE', #1186, .T. ) ;
#55 = CARTESIAN_POINT ( 'NONE',  ( 1.519999999999999130, 0.0000000000000000000, 0.7200000000000003064 ) ) ;
#56 = FACE_OUTER_BOUND ( 'NONE', #74, .T. ) ;
#57 = CARTESIAN_POINT ( 'NONE',  ( 1.519999999999999796, 0.0000000000000000000, -0.7199999999999996403 ) ) ;
#58 = ORIENTED_EDGE ( 'NONE', *, *, #586, .F. ) ;
#59 = DIRECTION ( 'NONE',  ( 1.000000000000000000, 0.0000000000000000000, -8.673617379884037937E-17 ) ) ;
#60 = ORIENTED_EDGE ( 'NONE', *, *, #321, .F. ) ;
#61 = CARTESIAN_POINT ( 'NONE',  ( -1.094999999999999085, 1.619999999999999885, 0.7200000000000003064 ) ) ;
#62 = EDGE_CURVE ( 'NONE', #484, #201, #1179, .T. ) ;
#63 = CARTESIAN_POINT ( 'NONE',  ( 1.520000000000000018, 1.619999999999999885, -0.7199999999999996403 ) ) ;
#64 = FACE_OUTER_BOUND ( 'NONE', #998, .T. ) ;
#65 = CARTESIAN_POINT ( 'NONE',  ( -1.599999999999999201, 0.07999999999999998779, 0.8000000000000002665 ) ) ;
#66 = VERTEX_POINT ( 'NONE', #1136 ) ;
#67 = CARTESIAN_POINT ( 'NONE',  ( 500000.0000000000582, 1.619999999999999885, 0.7733333332899653412 ) ) ;
#68 = SPHERICAL_SURFACE ( 'NONE', #521, 0.08000000000000000167 ) ;
#69 = EDGE_CURVE ( 'NONE', #523, #327, #459, .T. ) ;
#70 = DIRECTION ( 'NONE',  ( 0.0000000000000000000, 1.000000000000000000, 0.0000000000000000000 ) ) ;
#71 = ORIENTED_EDGE ( 'NONE', *, *, #679, .F. ) ;
#72 = FACE_OUTER_BOUND ( 'NONE', #776, .T. ) ;
#73 = AXIS2_PLACEMENT_3D ( 'NONE', #77, #760, #857 ) ;
#74 = EDGE_LOOP ( 'NONE', ( #283, #389, #982, #1271 ) ) ;
#75 = ORIENTED_EDGE ( 'NONE', *, *, #696, .F. ) ;
#76 = ORIENTED_EDGE ( 'NONE', *, *, #737, .T. ) ;
#77 = CARTESIAN_POINT ( 'NONE',  ( -1.519999999999999796, 1.619999999999999885, -0.7199999999999996403 ) ) ;
#78 = UNCERTAINTY_MEASURE_WITH_UNIT (LENGTH_MEASURE( 1.000000000000000082E-05 ), #967, 'distance_accuracy_value', 'NONE');
#79 = FACE_OUTER_BOUND ( 'NONE', #35, .T. ) ;
#80 = SURFACE_STYLE_USAGE ( .BOTH. , #171 ) ;
#81 = MECHANICAL_DESIGN_GEOMETRIC_PRESENTATION_REPRESENTATION (  '', ( #186 ), #708 ) ;
#82 = CARTESIAN_POINT ( 'NONE',  ( 1.095000000020718289, 1.619999999999999885, 0.7200000000000000844 ) ) ;
#83 = DIRECTION ( 'NONE',  ( -4.065758146820642614E-16, 0.0000000000000000000, 1.000000000000000000 ) ) ;
#84 = ORIENTED_EDGE ( 'NONE', *, *, #808, .F. ) ;
#85 = FACE_OUTER_BOUND ( 'NONE', #266, .T. ) ;
#86 = FACE_OUTER_BOUND ( 'NONE', #862, .T. ) ;
#87 = AXIS2_PLACEMENT_3D ( 'NONE', #1120, #1213, #614 ) ;
#88 = AXIS2_PLACEMENT_3D ( 'NONE', #240, #1012, #1124 ) ;
#89 = ORIENTED_EDGE ( 'NONE', *, *, #662, .T. ) ;
#90 = CARTESIAN_POINT ( 'NONE',  ( -1.519999999999999130, 1.619999999999999885, 0.7200000000000003064 ) ) ;
#91 = PLANE ( 'NONE',  #463 ) ;
#92 = CARTESIAN_POINT ( 'NONE',  ( -1.599999999999999201, 1.699999999999999956, 0.7200000000000003064 ) ) ;
#93 = FACE_OUTER_BOUND ( 'NONE', #944, .T. ) ;
#94 = AXIS2_PLACEMENT_3D ( 'NONE', #482, #488, #570 ) ;
#95 = DIRECTION ( 'NONE',  ( 1.000000000000000000, -0.0000000000000000000, -0.0000000000000000000 ) ) ;
#96 = ORIENTED_EDGE ( 'NONE', *, *, #246, .F. ) ;
#97 = DIRECTION ( 'NONE',  ( 4.065758146820642614E-16, -0.0000000000000000000, 1.000000000000000000 ) ) ;
#98 = VECTOR ( 'NONE', #326, 1000.000000000000000 ) ;
#99 = ORIENTED_EDGE ( 'NONE', *, *, #348, .F. ) ;
#100 = VECTOR ( 'NONE', #1067, 1000.000000000000000 ) ;
#101 = CARTESIAN_POINT ( 'NONE',  ( 0.0000000000000000000, 1.699999999999999956, 0.0000000000000000000 ) ) ;
#102 = ORIENTED_EDGE ( 'NONE', *, *, #696, .T. ) ;
#103 = AXIS2_PLACEMENT_3D ( 'NONE', #814, #228, #420 ) ;
#104 = ADVANCED_FACE ( 'NONE', ( #525 ), #522, .T. ) ;
#105 = ORIENTED_EDGE ( 'NONE', *, *, #1052, .F. ) ;
#106 = CARTESIAN_POINT ( 'NONE',  ( -1.519999999999999796, 0.0000000000000000000, -0.7199999999999996403 ) ) ;
#107 = EDGE_LOOP ( 'NONE', ( #1026, #569, #624, #24 ) ) ;
#108 = DIRECTION ( 'NONE',  ( 1.000000000000000000, 0.0000000000000000000, 0.0000000000000000000 ) ) ;
#109 = ADVANCED_FACE ( 'NONE', ( #56 ), #340, .F. ) ;
#110 = AXIS2_PLACEMENT_3D ( 'NONE', #338, #516, #1020 ) ;
#111 = CARTESIAN_POINT ( 'NONE',  ( 1.519999999999999574, 0.0000000000000000000, 6.179952383167375274E-16 ) ) ;
#112 = VERTEX_POINT ( 'NONE', #939 ) ;
#113 =( GEOMETRIC_REPRESENTATION_CONTEXT ( 3 ) GLOBAL_UNCERTAINTY_ASSIGNED_CONTEXT ( ( #78 ) ) GLOBAL_UNIT_ASSIGNED_CONTEXT ( ( #967, #375, #1062 ) ) REPRESENTATION_CONTEXT ( 'NONE', 'WORKASPACE' ) );
#114 = DIRECTION ( 'NONE',  ( 1.000000000000000000, 0.0000000000000000000, 1.355252715606880789E-16 ) ) ;
#115 = DIRECTION ( 'NONE',  ( -4.065758146820642614E-16, 0.0000000000000000000, 1.000000000000000000 ) ) ;
#116 = VECTOR ( 'NONE', #457, 1000.000000000000000 ) ;
#117 = EDGE_LOOP ( 'NONE', ( #619, #349, #784, #475 ) ) ;
#118 = VECTOR ( 'NONE', #986, 1000.000000000000000 ) ;
#119 = DIRECTION ( 'NONE',  ( 1.000000000000000000, 0.0000000000000000000, -8.673617379884036705E-17 ) ) ;
#120 = EDGE_CURVE ( 'NONE', #940, #523, #483, .T. ) ;
#121 = AXIS2_PLACEMENT_3D ( 'NONE', #973, #187, #183 ) ;
#122 = ORIENTED_EDGE ( 'NONE', *, *, #771, .F. ) ;
#123 = ORIENTED_EDGE ( 'NONE', *, *, #130, .T. ) ;
#124 = DIRECTION ( 'NONE',  ( -8.673617379884036705E-17, 0.0000000000000000000, -1.000000000000000000 ) ) ;
#125 = ADVANCED_FACE ( 'NONE', ( #405 ), #333, .T. ) ;
#126 = VECTOR ( 'NONE', #580, 1000.000000000000000 ) ;
#127 = CARTESIAN_POINT ( 'NONE',  ( -1.599999999999999867, 0.07999999999999998779, -0.7199999999999996403 ) ) ;
#128 = ORIENTED_EDGE ( 'NONE', *, *, #303, .F. ) ;
#129 = ORIENTED_EDGE ( 'NONE', *, *, #592, .F. ) ;
#130 = EDGE_CURVE ( 'NONE', #1148, #460, #631, .T. ) ;
#131 = DIRECTION ( 'NONE',  ( 1.355252715606880789E-16, -0.0000000000000000000, -1.000000000000000000 ) ) ;
#132 = ADVANCED_FACE ( 'NONE', ( #1193 ), #227, .T. ) ;
#133 = VECTOR ( 'NONE', #934, 1000.000000000000000 ) ;
#134 = LINE ( 'NONE', #912, #98 ) ;
#135 = LINE ( 'NONE', #978, #239 ) ;
#136 = CARTESIAN_POINT ( 'NONE',  ( -1.094999999999999085, 1.699999999999999956, 0.7199999999999998623 ) ) ;
#137 = CARTESIAN_POINT ( 'NONE',  ( -1.599999999999999201, 1.619999999999999885, 0.8000000000000002665 ) ) ;
#138 = ORIENTED_EDGE ( 'NONE', *, *, #259, .F. ) ;
#139 = ORIENTED_EDGE ( 'NONE', *, *, #259, .T. ) ;
#140 = ORIENTED_EDGE ( 'NONE', *, *, #1045, .T. ) ;
#141 = VERTEX_POINT ( 'NONE', #935 ) ;
#142 = AXIS2_PLACEMENT_3D ( 'NONE', #908, #422, #337 ) ;
#143 = PRESENTATION_LAYER_ASSIGNMENT (  '', '', ( #186 ) ) ;
#144 = ORIENTED_EDGE ( 'NONE', *, *, #771, .T. ) ;
#145 = FACE_OUTER_BOUND ( 'NONE', #504, .T. ) ;
#146 = DIRECTION ( 'NONE',  ( 1.000000000000000000, -0.0000000000000000000, -1.355252715606880789E-16 ) ) ;
#147 = LINE ( 'NONE', #443, #1005 ) ;
#148 = CARTESIAN_POINT ( 'NONE',  ( 1.519999999999999796, 1.619999999999999885, -0.7999999999999996003 ) ) ;
#149 = CARTESIAN_POINT ( 'NONE',  ( 1.519999999999999796, 1.619999999999999885, -0.7199999999999996403 ) ) ;
#150 = VERTEX_POINT ( 'NONE', #1156 ) ;
#151 = EDGE_LOOP ( 'NONE', ( #1278, #1116, #1219 ) ) ;
#152 = EDGE_CURVE ( 'NONE', #852, #6, #298, .T. ) ;
#153 = CYLINDRICAL_SURFACE ( 'NONE', #1151, 0.07999999999999998779 ) ;
#154 = MANIFOLD_SOLID_BREP ( 'Mirror2', #706 ) ;
#155 = PRODUCT_DEFINITION_FORMATION_WITH_SPECIFIED_SOURCE ( 'ANY', '', #472, .NOT_KNOWN. ) ;
#156 = DIRECTION ( 'NONE',  ( -1.000000000000000000, 0.0000000000000000000, 0.0000000000000000000 ) ) ;
#157 = PLANE ( 'NONE',  #393 ) ;
#158 = CARTESIAN_POINT ( 'NONE',  ( 500000.0000000000582, 0.07999999999999998779, -0.7733333333767010709 ) ) ;
#159 = VERTEX_POINT ( 'NONE', #1150 ) ;
#160 = FACE_OUTER_BOUND ( 'NONE', #1270, .T. ) ;
#161 = AXIS2_PLACEMENT_3D ( 'NONE', #455, #448, #263 ) ;
#162 = ORIENTED_EDGE ( 'NONE', *, *, #203, .T. ) ;
#163 = FACE_OUTER_BOUND ( 'NONE', #916, .T. ) ;
#164 = VERTEX_POINT ( 'NONE', #379 ) ;
#165 = CARTESIAN_POINT ( 'NONE',  ( 0.0000000000000000000, 0.0000000000000000000, 0.7200000000000003064 ) ) ;
#166 = LINE ( 'NONE', #1105, #791 ) ;
#167 = ORIENTED_EDGE ( 'NONE', *, *, #242, .T. ) ;
#168 = DIRECTION ( 'NONE',  ( -0.0000000000000000000, 1.000000000000000000, -0.0000000000000000000 ) ) ;
#169 = ORIENTED_EDGE ( 'NONE', *, *, #1195, .T. ) ;
#170 = CARTESIAN_POINT ( 'NONE',  ( 1.599999999999999867, 0.07999999999999998779, -0.7999999999999996003 ) ) ;
#171 = SURFACE_SIDE_STYLE ('',( #1185 ) ) ;
#172 = STYLED_ITEM ( 'NONE', ( #1279 ), #754 ) ;
#173 = VERTEX_POINT ( 'NONE', #293 ) ;
#174 = ORIENTED_EDGE ( 'NONE', *, *, #928, .F. ) ;
#175 = CARTESIAN_POINT ( 'NONE',  ( 1.519999999999999796, 0.07999999999999998779, -0.7999999999999996003 ) ) ;
#176 = CIRCLE ( 'NONE', #88, 0.07999999999999998779 ) ;
#177 = CARTESIAN_POINT ( 'NONE',  ( 0.0000000000000000000, 0.0000000000000000000, -0.7199999999999996403 ) ) ;
#178 = EDGE_CURVE ( 'NONE', #596, #843, #904, .T. ) ;
#179 = DIRECTION ( 'NONE',  ( 0.0000000000000000000, 0.0000000000000000000, 1.000000000000000000 ) ) ;
#180 = LINE ( 'NONE', #733, #851 ) ;
#181 = SURFACE_SIDE_STYLE ('',( #328 ) ) ;
#182 =( NAMED_UNIT ( * ) PLANE_ANGLE_UNIT ( ) SI_UNIT ( $, .RADIAN. ) );
#183 = DIRECTION ( 'NONE',  ( 1.000000000000000000, 0.0000000000000000000, 0.0000000000000000000 ) ) ;
#184 = VERTEX_POINT ( 'NONE', #175 ) ;
#185 = DIRECTION ( 'NONE',  ( 1.000000000000000000, 0.0000000000000000000, -8.673617379884036705E-17 ) ) ;
#186 = STYLED_ITEM ( 'NONE', ( #1209 ), #154 ) ;
#187 = DIRECTION ( 'NONE',  ( -0.0000000000000000000, 0.0000000000000000000, -1.000000000000000000 ) ) ;
#188 = DIRECTION ( 'NONE',  ( -1.000000000000000000, 0.0000000000000000000, 1.355252715606880789E-16 ) ) ;
#189 = CARTESIAN_POINT ( 'NONE',  ( 500000.0000000000582, 0.08000000000000043188, 0.7733333332899653412 ) ) ;
#190 = DIRECTION ( 'NONE',  ( 0.0000000000000000000, 0.0000000000000000000, -1.000000000000000000 ) ) ;
#191 = ORIENTED_EDGE ( 'NONE', *, *, #849, .F. ) ;
#192 = FACE_OUTER_BOUND ( 'NONE', #1076, .T. ) ;
#193 = ORIENTED_EDGE ( 'NONE', *, *, #535, .F. ) ;
#194 = DIRECTION ( 'NONE',  ( 1.000000000000000000, 0.0000000000000000000, 0.0000000000000000000 ) ) ;
#195 = EDGE_CURVE ( 'NONE', #112, #201, #544, .T. ) ;
#196 = VERTEX_POINT ( 'NONE', #669 ) ;
#197 = LINE ( 'NONE', #1108, #432 ) ;
#198 = VERTEX_POINT ( 'NONE', #1069 ) ;
#199 = ORIENTED_EDGE ( 'NONE', *, *, #1157, .T. ) ;
#200 = DIRECTION ( 'NONE',  ( 0.0000000000000000000, 1.000000000000000000, -0.0000000000000000000 ) ) ;
#201 = VERTEX_POINT ( 'NONE', #879 ) ;
#202 = ADVANCED_FACE ( 'NONE', ( #1164 ), #271, .T. ) ;
#203 = EDGE_CURVE ( 'NONE', #445, #596, #402, .T. ) ;
#204 = AXIS2_PLACEMENT_3D ( 'NONE', #212, #114, #732 ) ;
#205 = ORIENTED_EDGE ( 'NONE', *, *, #919, .F. ) ;
#206 = DIRECTION ( 'NONE',  ( -1.000000000000000000, 0.0000000000000000000, 0.0000000000000000000 ) ) ;
#207 = ADVANCED_FACE ( 'NONE', ( #1072 ), #886, .T. ) ;
#208 = EDGE_LOOP ( 'NONE', ( #513, #830, #853, #753 ) ) ;
#209 = CARTESIAN_POINT ( 'NONE',  ( -1.094999999999999307, 1.673333333333333339, -0.7199999999999996403 ) ) ;
#210 = CIRCLE ( 'NONE', #1216, 0.07999999999999998779 ) ;
#211 = CYLINDRICAL_SURFACE ( 'NONE', #94, 0.07999999999999998779 ) ;
#212 = CARTESIAN_POINT ( 'NONE',  ( 1.095000000020718289, 0.07999999999999998779, 0.7200000000000000844 ) ) ;
#213 = SURFACE_STYLE_USAGE ( .BOTH. , #500 ) ;
#214 = DIRECTION ( 'NONE',  ( 1.000000000000000000, 0.0000000000000000000, 1.355252715606880789E-16 ) ) ;
#215 = EDGE_LOOP ( 'NONE', ( #17, #167, #951, #322, #140, #446, #1159, #407 ) ) ;
#216 = ADVANCED_FACE ( 'NONE', ( #336 ), #751, .T. ) ;
#217 = DIRECTION ( 'NONE',  ( 0.0000000000000000000, 0.0000000000000000000, -1.000000000000000000 ) ) ;
#218 = EDGE_CURVE ( 'NONE', #385, #26, #690, .T. ) ;
#219 = ADVANCED_FACE ( 'NONE', ( #93 ), #961, .T. ) ;
#220 = AXIS2_PLACEMENT_3D ( 'NONE', #1255, #83, #756 ) ;
#221 = VECTOR ( 'NONE', #835, 1000.000000000000000 ) ;
#222 = DIRECTION ( 'NONE',  ( -1.000000000000000000, -0.0000000000000000000, 8.673617379884036705E-17 ) ) ;
#223 = CIRCLE ( 'NONE', #747, 0.07999999999999998779 ) ;
#224 = PLANE ( 'NONE',  #515 ) ;
#225 = LINE ( 'NONE', #926, #1017 ) ;
#226 = EDGE_CURVE ( 'NONE', #173, #460, #1161, .T. ) ;
#227 = CYLINDRICAL_SURFACE ( 'NONE', #906, 0.07999999999999998779 ) ;
#228 = DIRECTION ( 'NONE',  ( -1.000000000000000000, -0.0000000000000000000, 8.673617379884036705E-17 ) ) ;
#229 = AXIS2_PLACEMENT_3D ( 'NONE', #249, #955, #1127 ) ;
#230 = ORIENTED_EDGE ( 'NONE', *, *, #62, .F. ) ;
#231 = EDGE_LOOP ( 'NONE', ( #371, #316, #731, #105 ) ) ;
#232 = DIRECTION ( 'NONE',  ( 8.673617379884037937E-17, -0.0000000000000000000, 1.000000000000000000 ) ) ;
#233 = ORIENTED_EDGE ( 'NONE', *, *, #287, .F. ) ;
#234 = PRESENTATION_LAYER_ASSIGNMENT (  '', '', ( #172 ) ) ;
#235 = VECTOR ( 'NONE', #905, 1000.000000000000000 ) ;
#236 = ORIENTED_EDGE ( 'NONE', *, *, #799, .T. ) ;
#237 = LINE ( 'NONE', #170, #1222 ) ;
#238 = DIRECTION ( 'NONE',  ( 2.710505431213761479E-15, -1.000000000000000000, 0.0000000000000000000 ) ) ;
#239 = VECTOR ( 'NONE', #668, 1000.000000000000000 ) ;
#240 = CARTESIAN_POINT ( 'NONE',  ( -1.094999999999999307, 1.619999999999999885, -0.7199999999999996403 ) ) ;
#241 = DIRECTION ( 'NONE',  ( -1.000000000000000000, 0.0000000000000000000, 8.673617379884037937E-17 ) ) ;
#242 = EDGE_CURVE ( 'NONE', #659, #852, #1275, .T. ) ;
#243 = VERTEX_POINT ( 'NONE', #975 ) ;
#244 = AXIS2_PLACEMENT_3D ( 'NONE', #622, #42, #7 ) ;
#245 = DIRECTION ( 'NONE',  ( 1.000000000000000000, 0.0000000000000000000, 0.0000000000000000000 ) ) ;
#246 = EDGE_CURVE ( 'NONE', #324, #652, #540, .T. ) ;
#247 = DIRECTION ( 'NONE',  ( 1.355252715606880789E-16, -0.0000000000000000000, -1.000000000000000000 ) ) ;
#248 = AXIS2_PLACEMENT_3D ( 'NONE', #600, #1102, #124 ) ;
#249 = CARTESIAN_POINT ( 'NONE',  ( 1.519999999999999796, 0.07999999999999998779, -0.7199999999999996403 ) ) ;
#250 = CARTESIAN_POINT ( 'NONE',  ( 1.094999999999999307, 1.699999999999999956, -0.7999999999999996003 ) ) ;
#251 = LINE ( 'NONE', #331, #1240 ) ;
#252 = DIRECTION ( 'NONE',  ( 0.0000000000000000000, -1.000000000000000000, 0.0000000000000000000 ) ) ;
#253 = CYLINDRICAL_SURFACE ( 'NONE', #268, 0.05333333333333339921 ) ;
#254 = CARTESIAN_POINT ( 'NONE',  ( 500000.0000000000582, 1.619999999999999885, 0.7733333332899653412 ) ) ;
#255 = VECTOR ( 'NONE', #168, 1000.000000000000000 ) ;
#256 = DIRECTION ( 'NONE',  ( 1.000000000000000000, -0.0000000000000000000, 0.0000000000000000000 ) ) ;
#257 = ORIENTED_EDGE ( 'NONE', *, *, #854, .T. ) ;
#258 = CARTESIAN_POINT ( 'NONE',  ( 1.519999999999999130, 0.07999999999999998779, 0.7200000000000003064 ) ) ;
#259 = EDGE_CURVE ( 'NONE', #486, #399, #1074, .T. ) ;
#260 = ORIENTED_EDGE ( 'NONE', *, *, #499, .T. ) ;
#261 = DIRECTION ( 'NONE',  ( 0.0000000000000000000, 0.0000000000000000000, -1.000000000000000000 ) ) ;
#262 = APPLICATION_PROTOCOL_DEFINITION ( 'draft international standard', 'automotive_design', 1998, #1049 ) ;
#263 = DIRECTION ( 'NONE',  ( 1.000000000000000000, 0.0000000000000000000, 0.0000000000000000000 ) ) ;
#264 = ORIENTED_EDGE ( 'NONE', *, *, #1195, .F. ) ;
#265 = CARTESIAN_POINT ( 'NONE',  ( -1.599999999999999867, 1.699999999999999956, -0.7199999999999996403 ) ) ;
#266 = EDGE_LOOP ( 'NONE', ( #128, #1101, #717, #417 ) ) ;
#267 = ORIENTED_EDGE ( 'NONE', *, *, #564, .F. ) ;
#268 = AXIS2_PLACEMENT_3D ( 'NONE', #437, #1077, #578 ) ;
#269 = CIRCLE ( 'NONE', #1019, 0.05333333333333329512 ) ;
#270 = VECTOR ( 'NONE', #997, 1000.000000000000000 ) ;
#271 = CYLINDRICAL_SURFACE ( 'NONE', #972, 0.07999999999999998779 ) ;
#272 = APPLICATION_PROTOCOL_DEFINITION ( 'draft international standard', 'automotive_design', 1998, #1259 ) ;
#273 = EDGE_LOOP ( 'NONE', ( #1171, #1068, #766, #1263 ) ) ;
#274 = ORIENTED_EDGE ( 'NONE', *, *, #737, .F. ) ;
#275 = FILL_AREA_STYLE_COLOUR ( '', #47 ) ;
#276 = AXIS2_PLACEMENT_3D ( 'NONE', #374, #557, #552 ) ;
#277 = CARTESIAN_POINT ( 'NONE',  ( -1.094999999999999307, 0.07999999999999998779, -0.7733333333333328730 ) ) ;
#278 = DIRECTION ( 'NONE',  ( 0.0000000000000000000, 0.0000000000000000000, 1.000000000000000000 ) ) ;
#279 = ORIENTED_EDGE ( 'NONE', *, *, #1117, .F. ) ;
#280 = FACE_OUTER_BOUND ( 'NONE', #215, .T. ) ;
#281 = EDGE_CURVE ( 'NONE', #1010, #573, #166, .T. ) ;
#282 = DIRECTION ( 'NONE',  ( 0.0000000000000000000, 1.000000000000000000, 0.0000000000000000000 ) ) ;
#283 = ORIENTED_EDGE ( 'NONE', *, *, #911, .T. ) ;
#284 = PLANE ( 'NONE',  #5 ) ;
#285 = ORIENTED_EDGE ( 'NONE', *, *, #203, .F. ) ;
#286 = ORIENTED_EDGE ( 'NONE', *, *, #896, .T. ) ;
#287 = EDGE_CURVE ( 'NONE', #933, #164, #704, .T. ) ;
#288 = CARTESIAN_POINT ( 'NONE',  ( 1.599999999999999201, 0.07999999999999998779, 0.7200000000000003064 ) ) ;
#289 = CARTESIAN_POINT ( 'NONE',  ( -1.519999999999999796, 0.07999999999999998779, -0.7999999999999996003 ) ) ;
#290 = DIRECTION ( 'NONE',  ( 0.0000000000000000000, -0.0000000000000000000, 1.000000000000000000 ) ) ;
#291 = ORIENTED_EDGE ( 'NONE', *, *, #854, .F. ) ;
#292 = CIRCLE ( 'NONE', #638, 0.07999999999999998779 ) ;
#293 = CARTESIAN_POINT ( 'NONE',  ( 1.094999999999999085, 1.699999999999999956, 0.7199999999999998623 ) ) ;
#294 = MECHANICAL_DESIGN_GEOMETRIC_PRESENTATION_REPRESENTATION (  '', ( #172 ), #687 ) ;
#295 = VERTEX_POINT ( 'NONE', #1184 ) ;
#296 = VECTOR ( 'NONE', #497, 1000.000000000000000 ) ;
#297 = ADVANCED_FACE ( 'NONE', ( #381 ), #153, .T. ) ;
#298 = CIRCLE ( 'NONE', #757, 0.05333333333333329512 ) ;
#299 = CARTESIAN_POINT ( 'NONE',  ( -1.519999999999999796, 1.619999999999999885, -0.7199999999999996403 ) ) ;
#300 = ORIENTED_EDGE ( 'NONE', *, *, #911, .F. ) ;
#301 = CARTESIAN_POINT ( 'NONE',  ( -1.599999999999999201, 0.07999999999999998779, 0.7200000000000003064 ) ) ;
#302 = VECTOR ( 'NONE', #131, 1000.000000000000000 ) ;
#303 = EDGE_CURVE ( 'NONE', #530, #1126, #1006, .T. ) ;
#304 = DIRECTION ( 'NONE',  ( 0.0000000000000000000, -1.000000000000000000, -0.0000000000000000000 ) ) ;
#305 = VECTOR ( 'NONE', #256, 1000.000000000000000 ) ;
#306 =( NAMED_UNIT ( * ) PLANE_ANGLE_UNIT ( ) SI_UNIT ( $, .RADIAN. ) );
#307 = ORIENTED_EDGE ( 'NONE', *, *, #841, .T. ) ;
#308 = DIRECTION ( 'NONE',  ( -4.065758146820642614E-16, 0.0000000000000000000, -1.000000000000000000 ) ) ;
#309 = FACE_OUTER_BOUND ( 'NONE', #901, .T. ) ;
#310 = EDGE_CURVE ( 'NONE', #1008, #652, #412, .T. ) ;
#311 = ADVANCED_FACE ( 'NONE', ( #608 ), #1196, .F. ) ;
#312 = AXIS2_PLACEMENT_3D ( 'NONE', #748, #949, #1038 ) ;
#313 = EDGE_LOOP ( 'NONE', ( #734, #587, #300, #286, #671, #775, #1053, #257 ) ) ;
#314 = CARTESIAN_POINT ( 'NONE',  ( 1.599999999999999867, 0.07999999999999998779, -0.7999999999999996003 ) ) ;
#315 = ORIENTED_EDGE ( 'NONE', *, *, #310, .T. ) ;
#316 = ORIENTED_EDGE ( 'NONE', *, *, #782, .F. ) ;
#317 = ORIENTED_EDGE ( 'NONE', *, *, #871, .F. ) ;
#318 = ADVANCED_FACE ( 'NONE', ( #937 ), #1141, .F. ) ;
#319 = CARTESIAN_POINT ( 'NONE',  ( 1.599999999999999867, 1.699999999999999956, -0.7199999999999996403 ) ) ;
#320 = DIRECTION ( 'NONE',  ( 1.000000000000000000, 0.0000000000000000000, 1.355252715606880789E-16 ) ) ;
#321 = EDGE_CURVE ( 'NONE', #915, #327, #450, .T. ) ;
#322 = ORIENTED_EDGE ( 'NONE', *, *, #1117, .T. ) ;
#323 = DIRECTION ( 'NONE',  ( -1.000000000000000000, -0.0000000000000000000, 8.673617379884036705E-17 ) ) ;
#324 = VERTEX_POINT ( 'NONE', #358 ) ;
#325 = ADVANCED_FACE ( 'NONE', ( #1242 ), #910, .T. ) ;
#326 = DIRECTION ( 'NONE',  ( 1.355252715606880789E-16, 0.0000000000000000000, -1.000000000000000000 ) ) ;
#327 = VERTEX_POINT ( 'NONE', #913 ) ;
#328 = SURFACE_STYLE_FILL_AREA ( #1256 ) ;
#329 = ORIENTED_EDGE ( 'NONE', *, *, #310, .F. ) ;
#330 = LINE ( 'NONE', #158, #1190 ) ;
#331 = CARTESIAN_POINT ( 'NONE',  ( -1.094999999999999307, 0.0000000000000000000, -0.7999999999999996003 ) ) ;
#332 = AXIS2_PLACEMENT_3D ( 'NONE', #888, #801, #604 ) ;
#333 = SPHERICAL_SURFACE ( 'NONE', #1165, 0.08000000000000000167 ) ;
#334 = ORIENTED_EDGE ( 'NONE', *, *, #36, .F. ) ;
#335 = VERTEX_POINT ( 'NONE', #136 ) ;
#336 = FACE_OUTER_BOUND ( 'NONE', #577, .T. ) ;
#337 = DIRECTION ( 'NONE',  ( 0.0000000000000000000, -0.0000000000000000000, 1.000000000000000000 ) ) ;
#338 = CARTESIAN_POINT ( 'NONE',  ( 1.519999999999999796, 0.08000000000000000167, -0.7199999999999996403 ) ) ;
#339 = AXIS2_PLACEMENT_3D ( 'NONE', #597, #893, #108 ) ;
#340 = PLANE ( 'NONE',  #32 ) ;
#341 = VERTEX_POINT ( 'NONE', #837 ) ;
#342 = LINE ( 'NONE', #637, #1094 ) ;
#343 = DIRECTION ( 'NONE',  ( 0.0000000000000000000, 0.0000000000000000000, -1.000000000000000000 ) ) ;
#344 = LINE ( 'NONE', #681, #1014 ) ;
#345 = DIRECTION ( 'NONE',  ( -4.065758146820642614E-16, -0.0000000000000000000, -1.000000000000000000 ) ) ;
#346 = DIRECTION ( 'NONE',  ( 0.0000000000000000000, -1.000000000000000000, 0.0000000000000000000 ) ) ;
#347 = COLOUR_RGB ( '',0.7921568627450980005, 0.8196078431372548767, 0.9333333333333333481 ) ;
#348 = EDGE_CURVE ( 'NONE', #596, #915, #197, .T. ) ;
#349 = ORIENTED_EDGE ( 'NONE', *, *, #1257, .T. ) ;
#350 = DIRECTION ( 'NONE',  ( -1.000000000000000000, -0.0000000000000000000, 2.710505431213761479E-15 ) ) ;
#351 = ORIENTED_EDGE ( 'NONE', *, *, #1205, .T. ) ;
#352 = CARTESIAN_POINT ( 'NONE',  ( 1.519999999999999130, 1.619999999999999885, 0.8000000000000002665 ) ) ;
#353 = CARTESIAN_POINT ( 'NONE',  ( -1.094999999999999307, 1.619999999999999885, -0.7199999999999996403 ) ) ;
#354 = CARTESIAN_POINT ( 'NONE',  ( 1.519999999999999796, 0.07999999999999998779, -0.7199999999999996403 ) ) ;
#355 = DIRECTION ( 'NONE',  ( 0.0000000000000000000, 0.0000000000000000000, 1.000000000000000000 ) ) ;
#356 = FACE_OUTER_BOUND ( 'NONE', #368, .T. ) ;
#357 = AXIS2_PLACEMENT_3D ( 'NONE', #289, #688, #686 ) ;
#358 = CARTESIAN_POINT ( 'NONE',  ( 1.094999999999999085, 1.619999999999999885, 0.8000000000000002665 ) ) ;
#359 = CYLINDRICAL_SURFACE ( 'NONE', #332, 0.07999999999999998779 ) ;
#360 = LINE ( 'NONE', #209, #296 ) ;
#361 = DIRECTION ( 'NONE',  ( -1.000000000000000000, -0.0000000000000000000, 8.673617379884036705E-17 ) ) ;
#362 = DIRECTION ( 'NONE',  ( 1.000000000000000000, 0.0000000000000000000, 0.0000000000000000000 ) ) ;
#363 = VERTEX_POINT ( 'NONE', #1027 ) ;
#364 = VERTEX_POINT ( 'NONE', #613 ) ;
#365 = CARTESIAN_POINT ( 'NONE',  ( -1.094999999999999307, 0.07999999999999998779, -0.7999999999999996003 ) ) ;
#366 =( LENGTH_UNIT ( ) NAMED_UNIT ( * ) SI_UNIT ( .MILLI., .METRE. ) );
#367 = AXIS2_PLACEMENT_3D ( 'NONE', #593, #1206, #715 ) ;
#368 = EDGE_LOOP ( 'NONE', ( #953, #102, #1113 ) ) ;
#369 = EDGE_CURVE ( 'NONE', #957, #940, #974, .T. ) ;
#370 = CARTESIAN_POINT ( 'NONE',  ( 1.519999999999999352, 1.619999999999999885, 0.7200000000000003064 ) ) ;
#371 = ORIENTED_EDGE ( 'NONE', *, *, #896, .F. ) ;
#372 = AXIS2_PLACEMENT_3D ( 'NONE', #1057, #553, #963 ) ;
#373 = LINE ( 'NONE', #397, #118 ) ;
#374 = CARTESIAN_POINT ( 'NONE',  ( 1.094999999999999307, 1.619999999999999885, -0.7199999999999996403 ) ) ;
#375 =( NAMED_UNIT ( * ) PLANE_ANGLE_UNIT ( ) SI_UNIT ( $, .RADIAN. ) );
#376 = ORIENTED_EDGE ( 'NONE', *, *, #517, .F. ) ;
#377 = ORIENTED_EDGE ( 'NONE', *, *, #433, .T. ) ;
#378 = EDGE_CURVE ( 'NONE', #1126, #573, #678, .T. ) ;
#379 = CARTESIAN_POINT ( 'NONE',  ( 1.519999999999999352, 1.699999999999999956, 0.7200000000000003064 ) ) ;
#380 = MECHANICAL_DESIGN_GEOMETRIC_PRESENTATION_REPRESENTATION (  '', ( #1173 ), #442 ) ;
#381 = FACE_OUTER_BOUND ( 'NONE', #876, .T. ) ;
#382 = DIRECTION ( 'NONE',  ( 0.0000000000000000000, 1.000000000000000000, 0.0000000000000000000 ) ) ;
#383 = CYLINDRICAL_SURFACE ( 'NONE', #1054, 0.07999999999999998779 ) ;
#384 = EDGE_CURVE ( 'NONE', #585, #22, #360, .T. ) ;
#385 = VERTEX_POINT ( 'NONE', #1093 ) ;
#386 = CARTESIAN_POINT ( 'NONE',  ( -1.094999999999999307, 1.673333333333333339, -0.7199999999999996403 ) ) ;
#387 = CIRCLE ( 'NONE', #52, 0.07999999999999998779 ) ;
#388 = EDGE_LOOP ( 'NONE', ( #1269, #1155, #75, #673 ) ) ;
#389 = ORIENTED_EDGE ( 'NONE', *, *, #369, .T. ) ;
#390 = DIRECTION ( 'NONE',  ( 0.0000000000000000000, 1.000000000000000000, 0.0000000000000000000 ) ) ;
#391 = ORIENTED_EDGE ( 'NONE', *, *, #384, .F. ) ;
#392 = ADVANCED_FACE ( 'NONE', ( #72 ), #714, .T. ) ;
#393 = AXIS2_PLACEMENT_3D ( 'NONE', #924, #451, #1138 ) ;
#394 = CARTESIAN_POINT ( 'NONE',  ( 1.519999999999999130, 1.699999999999999956, 0.8000000000000002665 ) ) ;
#395 = CARTESIAN_POINT ( 'NONE',  ( 1.094999999999999085, 1.619999999999999885, 0.7200000000000003064 ) ) ;
#396 = CARTESIAN_POINT ( 'NONE',  ( -1.599999999999999867, 0.07999999999999998779, -0.7999999999999996003 ) ) ;
#397 = CARTESIAN_POINT ( 'NONE',  ( -1.599999999999999867, 1.699999999999999956, -0.7199999999999996403 ) ) ;
#398 = FACE_OUTER_BOUND ( 'NONE', #810, .T. ) ;
#399 = VERTEX_POINT ( 'NONE', #1188 ) ;
#400 = LINE ( 'NONE', #38, #612 ) ;
#401 = AXIS2_PLACEMENT_3D ( 'NONE', #927, #252, #41 ) ;
#402 = LINE ( 'NONE', #92, #607 ) ;
#403 = CIRCLE ( 'NONE', #312, 0.07999999999999998779 ) ;
#404 = DIRECTION ( 'NONE',  ( -0.0000000000000000000, 1.000000000000000000, -0.0000000000000000000 ) ) ;
#405 = FACE_OUTER_BOUND ( 'NONE', #1100, .T. ) ;
#406 = DIRECTION ( 'NONE',  ( -1.000000000000000000, 0.0000000000000000000, 0.0000000000000000000 ) ) ;
#407 = ORIENTED_EDGE ( 'NONE', *, *, #919, .T. ) ;
#408 = ORIENTED_EDGE ( 'NONE', *, *, #627, .F. ) ;
#409 = ADVANCED_FACE ( 'NONE', ( #925 ), #995, .F. ) ;
#410 = DIRECTION ( 'NONE',  ( 1.000000000000000000, 0.0000000000000000000, -4.065758146820642614E-16 ) ) ;
#411 = EDGE_CURVE ( 'NONE', #22, #735, #33, .T. ) ;
#412 = LINE ( 'NONE', #800, #546 ) ;
#413 = ORIENTED_EDGE ( 'NONE', *, *, #242, .F. ) ;
#414 = ADVANCED_FACE ( 'NONE', ( #1224 ), #606, .F. ) ;
#415 = ORIENTED_EDGE ( 'NONE', *, *, #1034, .F. ) ;
#416 = VECTOR ( 'NONE', #43, 1000.000000000000000 ) ;
#417 = ORIENTED_EDGE ( 'NONE', *, *, #728, .F. ) ;
#418 = VECTOR ( 'NONE', #697, 1000.000000000000000 ) ;
#419 = EDGE_CURVE ( 'NONE', #363, #445, #1208, .T. ) ;
#420 = DIRECTION ( 'NONE',  ( 0.0000000000000000000, 0.0000000000000000000, 1.000000000000000000 ) ) ;
#421 = FACE_OUTER_BOUND ( 'NONE', #634, .T. ) ;
#422 = DIRECTION ( 'NONE',  ( 0.0000000000000000000, 1.000000000000000000, 0.0000000000000000000 ) ) ;
#423 = AXIS2_PLACEMENT_3D ( 'NONE', #785, #672, #812 ) ;
#424 = ADVANCED_FACE ( 'NONE', ( #421 ), #889, .F. ) ;
#425 = ORIENTED_EDGE ( 'NONE', *, *, #369, .F. ) ;
#426 = ORIENTED_EDGE ( 'NONE', *, *, #1157, .F. ) ;
#427 = DIRECTION ( 'NONE',  ( -1.000000000000000000, -2.710505431213761479E-15, 0.0000000000000000000 ) ) ;
#428 = AXIS2_PLACEMENT_3D ( 'NONE', #701, #689, #1089 ) ;
#429 = DIRECTION ( 'NONE',  ( -0.0000000000000000000, -1.000000000000000000, -0.0000000000000000000 ) ) ;
#430 = VERTEX_POINT ( 'NONE', #1084 ) ;
#431 = LINE ( 'NONE', #394, #971 ) ;
#432 = VECTOR ( 'NONE', #345, 1000.000000000000000 ) ;
#433 = EDGE_CURVE ( 'NONE', #341, #184, #1051, .T. ) ;
#434 = EDGE_LOOP ( 'NONE', ( #205, #1029, #236, #650 ) ) ;
#435 = CARTESIAN_POINT ( 'NONE',  ( -1.599999999999999201, 1.699999999999999956, 0.8000000000000002665 ) ) ;
#436 = DIRECTION ( 'NONE',  ( 0.0000000000000000000, 0.0000000000000000000, 1.000000000000000000 ) ) ;
#437 = CARTESIAN_POINT ( 'NONE',  ( 500000.0000000000582, 1.619999999999999885, -0.7200000000433678382 ) ) ;
#438 = CARTESIAN_POINT ( 'NONE',  ( 1.095000000020718289, 0.07999999999999998779, -0.7199999999999998623 ) ) ;
#439 = CARTESIAN_POINT ( 'NONE',  ( -1.519999999999999796, 0.07999999999999998779, -0.7199999999999996403 ) ) ;
#440 = EDGE_CURVE ( 'NONE', #184, #1203, #1169, .T. ) ;
#441 = CARTESIAN_POINT ( 'NONE',  ( -1.094999999999999307, 0.07999999999999998779, 0.7200000000000003064 ) ) ;
#442 =( GEOMETRIC_REPRESENTATION_CONTEXT ( 3 ) GLOBAL_UNCERTAINTY_ASSIGNED_CONTEXT ( ( #1218 ) ) GLOBAL_UNIT_ASSIGNED_CONTEXT ( ( #677, #779, #789 ) ) REPRESENTATION_CONTEXT ( 'NONE', 'WORKASPACE' ) );
#443 = CARTESIAN_POINT ( 'NONE',  ( 0.0000000000000000000, 0.0000000000000000000, 0.7200000000000003064 ) ) ;
#444 = ORIENTED_EDGE ( 'NONE', *, *, #1110, .F. ) ;
#445 = VERTEX_POINT ( 'NONE', #301 ) ;
#446 = ORIENTED_EDGE ( 'NONE', *, *, #707, .T. ) ;
#447 = VECTOR ( 'NONE', #1244, 1000.000000000000000 ) ;
#448 = DIRECTION ( 'NONE',  ( 0.0000000000000000000, 1.000000000000000000, 0.0000000000000000000 ) ) ;
#449 = CIRCLE ( 'NONE', #899, 0.07999999999999998779 ) ;
#450 = LINE ( 'NONE', #265, #481 ) ;
#451 = DIRECTION ( 'NONE',  ( 0.0000000000000000000, 1.000000000000000000, 0.0000000000000000000 ) ) ;
#452 = AXIS2_PLACEMENT_3D ( 'NONE', #61, #146, #838 ) ;
#453 = DIRECTION ( 'NONE',  ( 1.000000000000000000, -0.0000000000000000000, -1.355252715606880789E-16 ) ) ;
#454 = ORIENTED_EDGE ( 'NONE', *, *, #1205, .F. ) ;
#455 = CARTESIAN_POINT ( 'NONE',  ( -1.519999999999999796, 0.08000000000000000167, -0.7199999999999996403 ) ) ;
#456 = ORIENTED_EDGE ( 'NONE', *, *, #670, .F. ) ;
#457 = DIRECTION ( 'NONE',  ( -1.355252715606880789E-16, -0.0000000000000000000, -1.000000000000000000 ) ) ;
#458 = DIRECTION ( 'NONE',  ( 2.710505431213761479E-15, 0.0000000000000000000, 1.000000000000000000 ) ) ;
#459 = CIRCLE ( 'NONE', #644, 0.07999999999999998779 ) ;
#460 = VERTEX_POINT ( 'NONE', #710 ) ;
#461 = EDGE_CURVE ( 'NONE', #173, #324, #645, .T. ) ;
#462 = PRODUCT_CONTEXT ( 'NONE', #1049, 'mechanical' ) ;
#463 = AXIS2_PLACEMENT_3D ( 'NONE', #768, #188, #870 ) ;
#464 = ORIENTED_EDGE ( 'NONE', *, *, #48, .F. ) ;
#465 = DIRECTION ( 'NONE',  ( 1.000000000000000000, 0.0000000000000000000, 4.065758146820640148E-16 ) ) ;
#466 = FACE_OUTER_BOUND ( 'NONE', #674, .T. ) ;
#467 = SPHERICAL_SURFACE ( 'NONE', #161, 0.08000000000000000167 ) ;
#468 = DIRECTION ( 'NONE',  ( 0.0000000000000000000, -1.000000000000000000, 0.0000000000000000000 ) ) ;
#469 = AXIS2_PLACEMENT_3D ( 'NONE', #1015, #323, #528 ) ;
#470 = VERTEX_POINT ( 'NONE', #590 ) ;
#471 = DIRECTION ( 'NONE',  ( 0.0000000000000000000, 0.0000000000000000000, -1.000000000000000000 ) ) ;
#472 = PRODUCT ( 'VJ1206A220JXGAT5Z', 'VJ1206A220JXGAT5Z', '', ( #462 ) ) ;
#473 = DIRECTION ( 'NONE',  ( 0.0000000000000000000, 0.0000000000000000000, 1.000000000000000000 ) ) ;
#474 = CARTESIAN_POINT ( 'NONE',  ( -1.519999999999999796, 1.619999999999999885, -0.7199999999999996403 ) ) ;
#475 = ORIENTED_EDGE ( 'NONE', *, *, #476, .T. ) ;
#476 = EDGE_CURVE ( 'NONE', #430, #164, #726, .T. ) ;
#477 = AXIS2_PLACEMENT_3D ( 'NONE', #1118, #524, #817 ) ;
#478 = VECTOR ( 'NONE', #1061, 1000.000000000000000 ) ;
#479 = VECTOR ( 'NONE', #609, 1000.000000000000000 ) ;
#480 = CLOSED_SHELL ( 'NONE', ( #1086, #424, #318, #713, #583, #216, #1212, #502, #703, #804 ) ) ;
#481 = VECTOR ( 'NONE', #956, 1000.000000000000000 ) ;
#482 = CARTESIAN_POINT ( 'NONE',  ( 0.0000000000000000000, 1.619999999999999885, -0.7199999999999996403 ) ) ;
#483 = CIRCLE ( 'NONE', #1183, 0.07999999999999998779 ) ;
#484 = VERTEX_POINT ( 'NONE', #798 ) ;
#485 = DIRECTION ( 'NONE',  ( -0.0000000000000000000, -0.0000000000000000000, 1.000000000000000000 ) ) ;
#486 = VERTEX_POINT ( 'NONE', #705 ) ;
#487 = AXIS2_PLACEMENT_3D ( 'NONE', #370, #179, #848 ) ;
#488 = DIRECTION ( 'NONE',  ( -1.000000000000000000, 0.0000000000000000000, 0.0000000000000000000 ) ) ;
#489 = DIRECTION ( 'NONE',  ( 1.000000000000000000, 0.0000000000000000000, 0.0000000000000000000 ) ) ;
#490 = ORIENTED_EDGE ( 'NONE', *, *, #592, .T. ) ;
#491 = DIRECTION ( 'NONE',  ( 0.0000000000000000000, 1.000000000000000000, 0.0000000000000000000 ) ) ;
#492 = ORIENTED_EDGE ( 'NONE', *, *, #226, .F. ) ;
#493 = DIRECTION ( 'NONE',  ( 0.0000000000000000000, 0.0000000000000000000, 1.000000000000000000 ) ) ;
#494 = CYLINDRICAL_SURFACE ( 'NONE', #13, 0.07999999999999998779 ) ;
#495 = LINE ( 'NONE', #550, #100 ) ;
#496 = DIRECTION ( 'NONE',  ( 0.0000000000000000000, -1.000000000000000000, 0.0000000000000000000 ) ) ;
#497 = DIRECTION ( 'NONE',  ( 0.0000000000000000000, 0.0000000000000000000, 1.000000000000000000 ) ) ;
#498 = ORIENTED_EDGE ( 'NONE', *, *, #1045, .F. ) ;
#499 = EDGE_CURVE ( 'NONE', #484, #445, #387, .T. ) ;
#500 = SURFACE_SIDE_STYLE ('',( #1207 ) ) ;
#501 = DIRECTION ( 'NONE',  ( 0.0000000000000000000, 0.0000000000000000000, -1.000000000000000000 ) ) ;
#502 = ADVANCED_FACE ( 'NONE', ( #880 ), #1, .T. ) ;
#503 = ORIENTED_EDGE ( 'NONE', *, *, #10, .T. ) ;
#504 = EDGE_LOOP ( 'NONE', ( #1147, #1264, #922, #505 ) ) ;
#505 = ORIENTED_EDGE ( 'NONE', *, *, #679, .T. ) ;
#506 = FACE_OUTER_BOUND ( 'NONE', #1243, .T. ) ;
#507 = AXIS2_PLACEMENT_3D ( 'NONE', #1143, #46, #245 ) ;
#508 = ADVANCED_FACE ( 'NONE', ( #163 ), #615, .T. ) ;
#509 = CARTESIAN_POINT ( 'NONE',  ( 1.519999999999999796, 1.699999999999999956, -0.7999999999999996003 ) ) ;
#510 = ORIENTED_EDGE ( 'NONE', *, *, #728, .T. ) ;
#511 = VECTOR ( 'NONE', #1232, 1000.000000000000000 ) ;
#512 = DIRECTION ( 'NONE',  ( 0.0000000000000000000, -1.000000000000000000, 0.0000000000000000000 ) ) ;
#513 = ORIENTED_EDGE ( 'NONE', *, *, #989, .T. ) ;
#514 = ORIENTED_EDGE ( 'NONE', *, *, #662, .F. ) ;
#515 = AXIS2_PLACEMENT_3D ( 'NONE', #1043, #1028, #741 ) ;
#516 = DIRECTION ( 'NONE',  ( 0.0000000000000000000, -1.000000000000000000, 0.0000000000000000000 ) ) ;
#517 = EDGE_CURVE ( 'NONE', #324, #933, #225, .T. ) ;
#518 = DIRECTION ( 'NONE',  ( 0.0000000000000000000, -1.000000000000000000, 0.0000000000000000000 ) ) ;
#519 = FACE_OUTER_BOUND ( 'NONE', #273, .T. ) ;
#520 = CARTESIAN_POINT ( 'NONE',  ( -1.094999999999999307, 1.699999999999999956, -0.7999999999999996003 ) ) ;
#521 = AXIS2_PLACEMENT_3D ( 'NONE', #1228, #44, #531 ) ;
#522 = CYLINDRICAL_SURFACE ( 'NONE', #401, 0.07999999999999998779 ) ;
#523 = VERTEX_POINT ( 'NONE', #106 ) ;
#524 = DIRECTION ( 'NONE',  ( 0.0000000000000000000, 0.0000000000000000000, -1.000000000000000000 ) ) ;
#525 = FACE_OUTER_BOUND ( 'NONE', #388, .T. ) ;
#526 = DIRECTION ( 'NONE',  ( 1.000000000000000000, -0.0000000000000000000, -1.355252715606880789E-16 ) ) ;
#527 = CARTESIAN_POINT ( 'NONE',  ( 1.094999999999999307, 0.07999999999999998779, -0.7199999999999996403 ) ) ;
#528 = DIRECTION ( 'NONE',  ( 0.0000000000000000000, 0.0000000000000000000, 1.000000000000000000 ) ) ;
#529 = DIRECTION ( 'NONE',  ( 0.0000000000000000000, 0.0000000000000000000, 1.000000000000000000 ) ) ;
#530 = VERTEX_POINT ( 'NONE', #55 ) ;
#531 = DIRECTION ( 'NONE',  ( -1.000000000000000000, 0.0000000000000000000, 0.0000000000000000000 ) ) ;
#532 = DIRECTION ( 'NONE',  ( -1.000000000000000000, -0.0000000000000000000, -0.0000000000000000000 ) ) ;
#533 = VECTOR ( 'NONE', #491, 1000.000000000000000 ) ;
#534 = DIRECTION ( 'NONE',  ( 1.000000000000000000, -0.0000000000000000000, 0.0000000000000000000 ) ) ;
#535 = EDGE_CURVE ( 'NONE', #150, #26, #495, .T. ) ;
#536 = DIRECTION ( 'NONE',  ( -1.000000000000000000, 0.0000000000000000000, 0.0000000000000000000 ) ) ;
#537 = AXIS2_PLACEMENT_3D ( 'NONE', #556, #70, #765 ) ;
#538 = CARTESIAN_POINT ( 'NONE',  ( -1.094999999999999307, 0.07999999999999998779, -0.7199999999999996403 ) ) ;
#539 = EDGE_LOOP ( 'NONE', ( #334, #869, #744, #425 ) ) ;
#540 = LINE ( 'NONE', #1191, #23 ) ;
#541 = DIRECTION ( 'NONE',  ( 0.0000000000000000000, 0.0000000000000000000, 1.000000000000000000 ) ) ;
#542 = ORIENTED_EDGE ( 'NONE', *, *, #654, .T. ) ;
#543 = EDGE_CURVE ( 'NONE', #66, #364, #180, .T. ) ;
#544 = LINE ( 'NONE', #680, #126 ) ;
#545 = DIRECTION ( 'NONE',  ( -8.673617379884037937E-17, 0.0000000000000000000, -1.000000000000000000 ) ) ;
#546 = VECTOR ( 'NONE', #406, 1000.000000000000000 ) ;
#547 = CARTESIAN_POINT ( 'NONE',  ( 1.094999999999999085, 0.07999999999999998779, 0.8000000000000002665 ) ) ;
#548 = FILL_AREA_STYLE ('',( #1066 ) ) ;
#549 = FACE_OUTER_BOUND ( 'NONE', #1276, .T. ) ;
#550 = CARTESIAN_POINT ( 'NONE',  ( -1.094999999999999307, 0.02666666666666666491, 0.7199999999999998623 ) ) ;
#551 = CIRCLE ( 'NONE', #229, 0.07999999999999998779 ) ;
#552 = DIRECTION ( 'NONE',  ( 0.0000000000000000000, 0.0000000000000000000, 1.000000000000000000 ) ) ;
#553 = DIRECTION ( 'NONE',  ( -0.0000000000000000000, -1.000000000000000000, -0.0000000000000000000 ) ) ;
#554 = DIRECTION ( 'NONE',  ( 0.0000000000000000000, -1.000000000000000000, -0.0000000000000000000 ) ) ;
#555 = ORIENTED_EDGE ( 'NONE', *, *, #1268, .T. ) ;
#556 = CARTESIAN_POINT ( 'NONE',  ( -1.519999999999999796, 0.07999999999999998779, -0.7199999999999996403 ) ) ;
#557 = DIRECTION ( 'NONE',  ( 1.000000000000000000, 0.0000000000000000000, 1.355252715606880789E-16 ) ) ;
#558 = EDGE_CURVE ( 'NONE', #1214, #150, #759, .T. ) ;
#559 = ORIENTED_EDGE ( 'NONE', *, *, #1025, .F. ) ;
#560 = ORIENTED_EDGE ( 'NONE', *, *, #152, .F. ) ;
#561 = LINE ( 'NONE', #742, #416 ) ;
#562 = DIRECTION ( 'NONE',  ( 1.000000000000000000, 0.0000000000000000000, 0.0000000000000000000 ) ) ;
#563 = FACE_OUTER_BOUND ( 'NONE', #1071, .T. ) ;
#564 = EDGE_CURVE ( 'NONE', #852, #22, #135, .T. ) ;
#565 = FILL_AREA_STYLE_COLOUR ( '', #878 ) ;
#566 = AXIS2_PLACEMENT_3D ( 'NONE', #846, #1226, #436 ) ;
#567 = EDGE_LOOP ( 'NONE', ( #444, #317, #96, #883, #1261, #793, #828, #777 ) ) ;
#568 = ORIENTED_EDGE ( 'NONE', *, *, #1272, .T. ) ;
#569 = ORIENTED_EDGE ( 'NONE', *, *, #1052, .T. ) ;
#570 = DIRECTION ( 'NONE',  ( 0.0000000000000000000, 0.0000000000000000000, -1.000000000000000000 ) ) ;
#571 = SURFACE_STYLE_USAGE ( .BOTH. , #181 ) ;
#572 = UNCERTAINTY_MEASURE_WITH_UNIT (LENGTH_MEASURE( 1.000000000000000082E-05 ), #366, 'distance_accuracy_value', 'NONE');
#573 = VERTEX_POINT ( 'NONE', #872 ) ;
#574 = DIRECTION ( 'NONE',  ( -1.000000000000000000, 0.0000000000000000000, 0.0000000000000000000 ) ) ;
#575 = AXIS2_PLACEMENT_3D ( 'NONE', #538, #526, #355 ) ;
#576 = ORIENTED_EDGE ( 'NONE', *, *, #1251, .T. ) ;
#577 = EDGE_LOOP ( 'NONE', ( #498, #139, #169, #1211 ) ) ;
#578 = DIRECTION ( 'NONE',  ( 0.0000000000000000000, 0.0000000000000000000, 1.000000000000000000 ) ) ;
#579 = LINE ( 'NONE', #177, #1002 ) ;
#580 = DIRECTION ( 'NONE',  ( -0.0000000000000000000, -1.000000000000000000, -0.0000000000000000000 ) ) ;
#581 = FILL_AREA_STYLE ('',( #565 ) ) ;
#582 = VECTOR ( 'NONE', #778, 1000.000000000000000 ) ;
#583 = ADVANCED_FACE ( 'NONE', ( #519 ), #868, .F. ) ;
#584 = DIRECTION ( 'NONE',  ( 1.000000000000000000, -0.0000000000000000000, 0.0000000000000000000 ) ) ;
#585 = VERTEX_POINT ( 'NONE', #386 ) ;
#586 = EDGE_CURVE ( 'NONE', #364, #335, #1082, .T. ) ;
#587 = ORIENTED_EDGE ( 'NONE', *, *, #36, .T. ) ;
#588 = AXIS2_PLACEMENT_3D ( 'NONE', #730, #626, #845 ) ;
#589 = DIRECTION ( 'NONE',  ( 0.0000000000000000000, 0.0000000000000000000, 1.000000000000000000 ) ) ;
#590 = CARTESIAN_POINT ( 'NONE',  ( -1.519999999999999796, 1.619999999999999885, -0.7999999999999996003 ) ) ;
#591 = ADVANCED_FACE ( 'NONE', ( #1142 ), #284, .T. ) ;
#592 = EDGE_CURVE ( 'NONE', #596, #364, #990, .T. ) ;
#593 = CARTESIAN_POINT ( 'NONE',  ( 1.519999999999999130, 1.619999999999999885, 0.7200000000000003064 ) ) ;
#594 = AXIS2_PLACEMENT_3D ( 'NONE', #63, #350, #458 ) ;
#595 = ADVANCED_FACE ( 'NONE', ( #822 ), #211, .T. ) ;
#596 = VERTEX_POINT ( 'NONE', #981 ) ;
#597 = CARTESIAN_POINT ( 'NONE',  ( -1.519999999999999130, 0.08000000000000000167, 0.7200000000000003064 ) ) ;
#598 = VECTOR ( 'NONE', #947, 1000.000000000000000 ) ;
#599 = LINE ( 'NONE', #763, #418 ) ;
#600 = CARTESIAN_POINT ( 'NONE',  ( -1.094999999999999307, 1.619999999999999885, -0.7199999999999996403 ) ) ;
#601 = VERTEX_POINT ( 'NONE', #277 ) ;
#602 = ADVANCED_FACE ( 'NONE', ( #962 ), #467, .T. ) ;
#603 = EDGE_CURVE ( 'NONE', #184, #1126, #551, .T. ) ;
#604 = DIRECTION ( 'NONE',  ( 0.0000000000000000000, 0.0000000000000000000, -1.000000000000000000 ) ) ;
#605 = AXIS2_PLACEMENT_3D ( 'NONE', #936, #534, #343 ) ;
#606 = PLANE ( 'NONE',  #802 ) ;
#607 = VECTOR ( 'NONE', #685, 1000.000000000000000 ) ;
#608 = FACE_OUTER_BOUND ( 'NONE', #567, .T. ) ;
#609 = DIRECTION ( 'NONE',  ( -1.000000000000000000, -0.0000000000000000000, 8.673617379884036705E-17 ) ) ;
#610 = ORIENTED_EDGE ( 'NONE', *, *, #1070, .T. ) ;
#611 = EDGE_CURVE ( 'NONE', #430, #1203, #695, .T. ) ;
#612 = VECTOR ( 'NONE', #34, 1000.000000000000000 ) ;
#613 = CARTESIAN_POINT ( 'NONE',  ( -1.519999999999999352, 1.699999999999999956, 0.7200000000000003064 ) ) ;
#614 = DIRECTION ( 'NONE',  ( 0.0000000000000000000, 0.0000000000000000000, 1.000000000000000000 ) ) ;
#615 = SPHERICAL_SURFACE ( 'NONE', #507, 0.08000000000000000167 ) ;
#616 = CARTESIAN_POINT ( 'NONE',  ( -1.599999999999999867, 1.619999999999999885, -0.7199999999999996403 ) ) ;
#617 = ORIENTED_EDGE ( 'NONE', *, *, #499, .F. ) ;
#618 = VERTEX_POINT ( 'NONE', #1139 ) ;
#619 = ORIENTED_EDGE ( 'NONE', *, *, #1272, .F. ) ;
#620 = AXIS2_PLACEMENT_3D ( 'NONE', #1176, #282, #290 ) ;
#621 = DIRECTION ( 'NONE',  ( 0.0000000000000000000, 0.0000000000000000000, 1.000000000000000000 ) ) ;
#622 = CARTESIAN_POINT ( 'NONE',  ( 1.095000000020718289, 1.619999999999999885, -0.7199999999999998623 ) ) ;
#623 = LINE ( 'NONE', #864, #691 ) ;
#624 = ORIENTED_EDGE ( 'NONE', *, *, #543, .T. ) ;
#625 = CYLINDRICAL_SURFACE ( 'NONE', #954, 0.07999999999999998779 ) ;
#626 = DIRECTION ( 'NONE',  ( -4.065758146820642614E-16, 0.0000000000000000000, -1.000000000000000000 ) ) ;
#627 = EDGE_CURVE ( 'NONE', #716, #601, #330, .T. ) ;
#628 = CYLINDRICAL_SURFACE ( 'NONE', #103, 0.05333333333333329512 ) ;
#629 = AXIS2_PLACEMENT_3D ( 'NONE', #667, #473, #562 ) ;
#630 = PRODUCT_DEFINITION_CONTEXT ( 'detailed design', #1259, 'design' ) ;
#631 = CIRCLE ( 'NONE', #276, 0.07999999999999998779 ) ;
#632 = CARTESIAN_POINT ( 'NONE',  ( 1.094999999999999307, 1.619999999999999885, -0.7999999999999996003 ) ) ;
#633 = ORIENTED_EDGE ( 'NONE', *, *, #829, .F. ) ;
#634 = EDGE_LOOP ( 'NONE', ( #454, #803, #274, #193, #264, #1174, #1039, #391 ) ) ;
#635 = DIRECTION ( 'NONE',  ( -1.000000000000000000, 0.0000000000000000000, 0.0000000000000000000 ) ) ;
#636 = EDGE_CURVE ( 'NONE', #66, #470, #403, .T. ) ;
#637 = CARTESIAN_POINT ( 'NONE',  ( 1.094999999999999307, 0.0000000000000000000, -0.7999999999999996003 ) ) ;
#638 = AXIS2_PLACEMENT_3D ( 'NONE', #1075, #485, #694 ) ;
#639 = FILL_AREA_STYLE_COLOUR ( '', #661 ) ;
#640 = DIRECTION ( 'NONE',  ( -1.000000000000000000, 0.0000000000000000000, -0.0000000000000000000 ) ) ;
#641 = CIRCLE ( 'NONE', #1274, 0.05333333333333329512 ) ;
#642 = ORIENTED_EDGE ( 'NONE', *, *, #543, .F. ) ;
#643 = DIRECTION ( 'NONE',  ( 0.0000000000000000000, 0.0000000000000000000, -1.000000000000000000 ) ) ;
#644 = AXIS2_PLACEMENT_3D ( 'NONE', #834, #950, #156 ) ;
#645 = CIRCLE ( 'NONE', #1197, 0.07999999999999998779 ) ;
#646 = CARTESIAN_POINT ( 'NONE',  ( -1.519999999999999796, 1.699999999999999956, -0.7999999999999996003 ) ) ;
#647 = CARTESIAN_POINT ( 'NONE',  ( -1.599999999999999867, 0.07999999999999998779, -0.7999999999999996003 ) ) ;
#648 =( NAMED_UNIT ( * ) PLANE_ANGLE_UNIT ( ) SI_UNIT ( $, .RADIAN. ) );
#649 = ORIENTED_EDGE ( 'NONE', *, *, #62, .T. ) ;
#650 = ORIENTED_EDGE ( 'NONE', *, *, #841, .F. ) ;
#651 = FILL_AREA_STYLE ('',( #275 ) ) ;
#652 = VERTEX_POINT ( 'NONE', #547 ) ;
#653 = DIRECTION ( 'NONE',  ( 0.0000000000000000000, 0.0000000000000000000, 1.000000000000000000 ) ) ;
#654 = EDGE_CURVE ( 'NONE', #363, #484, #1250, .T. ) ;
#655 = AXIS2_PLACEMENT_3D ( 'NONE', #254, #545, #241 ) ;
#656 = UNCERTAINTY_MEASURE_WITH_UNIT (LENGTH_MEASURE( 1.000000000000000082E-05 ), #666, 'distance_accuracy_value', 'NONE');
#657 = CARTESIAN_POINT ( 'NONE',  ( 1.599999999999999867, 1.619999999999999885, -0.7199999999999996403 ) ) ;
#658 =( NAMED_UNIT ( * ) SI_UNIT ( $, .STERADIAN. ) SOLID_ANGLE_UNIT ( ) );
#659 = VERTEX_POINT ( 'NONE', #932 ) ;
#660 = LINE ( 'NONE', #396, #478 ) ;
#661 = COLOUR_RGB ( '',0.4862745098039215619, 0.2352941176470588203, 0.01568627450980392135 ) ;
#662 = EDGE_CURVE ( 'NONE', #6, #735, #772, .T. ) ;
#663 = SURFACE_SIDE_STYLE ('',( #1099 ) ) ;
#664 = AXIS2_PLACEMENT_3D ( 'NONE', #850, #232, #59 ) ;
#665 = ORIENTED_EDGE ( 'NONE', *, *, #966, .F. ) ;
#666 =( LENGTH_UNIT ( ) NAMED_UNIT ( * ) SI_UNIT ( .MILLI., .METRE. ) );
#667 = CARTESIAN_POINT ( 'NONE',  ( 0.0000000000000000000, 0.0000000000000000000, 0.0000000000000000000 ) ) ;
#668 = DIRECTION ( 'NONE',  ( -1.000000000000000000, -0.0000000000000000000, 8.673617379884036705E-17 ) ) ;
#669 = CARTESIAN_POINT ( 'NONE',  ( -1.094999999999999307, 0.0000000000000000000, -0.7199999999999996403 ) ) ;
#670 = EDGE_CURVE ( 'NONE', #940, #470, #1153, .T. ) ;
#671 = ORIENTED_EDGE ( 'NONE', *, *, #1231, .F. ) ;
#672 = DIRECTION ( 'NONE',  ( 1.000000000000000000, 0.0000000000000000000, 1.355252715606880789E-16 ) ) ;
#673 = ORIENTED_EDGE ( 'NONE', *, *, #440, .T. ) ;
#674 = EDGE_LOOP ( 'NONE', ( #291, #230, #698, #71 ) ) ;
#675 = CIRCLE ( 'NONE', #921, 0.05333333333333329512 ) ;
#676 = LINE ( 'NONE', #684, #479 ) ;
#677 =( LENGTH_UNIT ( ) NAMED_UNIT ( * ) SI_UNIT ( .MILLI., .METRE. ) );
#678 = CIRCLE ( 'NONE', #844, 0.07999999999999998779 ) ;
#679 = EDGE_CURVE ( 'NONE', #198, #363, #147, .T. ) ;
#680 = CARTESIAN_POINT ( 'NONE',  ( -1.094999999999999085, 1.699999999999999956, 0.8000000000000002665 ) ) ;
#681 = CARTESIAN_POINT ( 'NONE',  ( 1.094999999999999085, 1.699999999999999956, 0.7200000000000003064 ) ) ;
#682 = ORIENTED_EDGE ( 'NONE', *, *, #178, .T. ) ;
#683 = ORIENTED_EDGE ( 'NONE', *, *, #1095, .T. ) ;
#684 = CARTESIAN_POINT ( 'NONE',  ( 500000.0000000000582, 1.673333333333333339, -0.7200000000433678382 ) ) ;
#685 = DIRECTION ( 'NONE',  ( -0.0000000000000000000, 1.000000000000000000, -0.0000000000000000000 ) ) ;
#686 = DIRECTION ( 'NONE',  ( 1.000000000000000000, 0.0000000000000000000, 0.0000000000000000000 ) ) ;
#687 =( GEOMETRIC_REPRESENTATION_CONTEXT ( 3 ) GLOBAL_UNCERTAINTY_ASSIGNED_CONTEXT ( ( #797 ) ) GLOBAL_UNIT_ASSIGNED_CONTEXT ( ( #795, #306, #1192 ) ) REPRESENTATION_CONTEXT ( 'NONE', 'WORKASPACE' ) );
#688 = DIRECTION ( 'NONE',  ( 4.065758146820642614E-16, -0.0000000000000000000, 1.000000000000000000 ) ) ;
#689 = DIRECTION ( 'NONE',  ( -1.000000000000000000, 0.0000000000000000000, -4.065758146820642614E-16 ) ) ;
#690 = LINE ( 'NONE', #1162, #783 ) ;
#691 = VECTOR ( 'NONE', #952, 1000.000000000000000 ) ;
#692 = ORIENTED_EDGE ( 'NONE', *, *, #440, .F. ) ;
#693 = VECTOR ( 'NONE', #429, 1000.000000000000000 ) ;
#694 = DIRECTION ( 'NONE',  ( 1.000000000000000000, 0.0000000000000000000, 0.0000000000000000000 ) ) ;
#695 = CIRCLE ( 'NONE', #594, 0.07999999999999998779 ) ;
#696 = EDGE_CURVE ( 'NONE', #184, #573, #740, .T. ) ;
#697 = DIRECTION ( 'NONE',  ( -0.0000000000000000000, 1.000000000000000000, -0.0000000000000000000 ) ) ;
#698 = ORIENTED_EDGE ( 'NONE', *, *, #654, .F. ) ;
#699 = MANIFOLD_SOLID_BREP ( 'Boss-Extrude2', #480 ) ;
#700 = AXIS2_PLACEMENT_3D ( 'NONE', #1018, #1223, #621 ) ;
#701 = CARTESIAN_POINT ( 'NONE',  ( 1.599999999999999867, 1.699999999999999956, -0.7999999999999996003 ) ) ;
#702 = DIRECTION ( 'NONE',  ( -1.355252715606880789E-16, 0.0000000000000000000, 1.000000000000000000 ) ) ;
#703 = ADVANCED_FACE ( 'NONE', ( #86 ), #1132, .F. ) ;
#704 = CIRCLE ( 'NONE', #367, 0.07999999999999998779 ) ;
#705 = CARTESIAN_POINT ( 'NONE',  ( 1.095000000020718289, 0.08000000000000043188, 0.7733333333333333171 ) ) ;
#706 = CLOSED_SHELL ( 'NONE', ( #409, #903, #311, #28, #207, #1107, #18, #991, #202, #811, #796, #595, #132, #1277, #1079, #125, #9, #104 ) ) ;
#707 = EDGE_CURVE ( 'NONE', #1214, #385, #134, .T. ) ;
#708 =( GEOMETRIC_REPRESENTATION_CONTEXT ( 3 ) GLOBAL_UNCERTAINTY_ASSIGNED_CONTEXT ( ( #656 ) ) GLOBAL_UNIT_ASSIGNED_CONTEXT ( ( #666, #648, #749 ) ) REPRESENTATION_CONTEXT ( 'NONE', 'WORKASPACE' ) );
#709 = DIRECTION ( 'NONE',  ( 1.000000000000000000, 0.0000000000000000000, 0.0000000000000000000 ) ) ;
#710 = CARTESIAN_POINT ( 'NONE',  ( 1.094999999999999307, 1.699999999999999956, -0.7199999999999996403 ) ) ;
#711 = LINE ( 'NONE', #250, #133 ) ;
#712 = LINE ( 'NONE', #790, #1109 ) ;
#713 = ADVANCED_FACE ( 'NONE', ( #54 ), #628, .T. ) ;
#714 = SPHERICAL_SURFACE ( 'NONE', #339, 0.08000000000000000167 ) ;
#715 = DIRECTION ( 'NONE',  ( -2.710505431213761479E-15, -1.000000000000000000, 0.0000000000000000000 ) ) ;
#716 = VERTEX_POINT ( 'NONE', #53 ) ;
#717 = ORIENTED_EDGE ( 'NONE', *, *, #1110, .T. ) ;
#718 = CARTESIAN_POINT ( 'NONE',  ( 1.519999999999999130, 0.07999999999999998779, 0.8000000000000002665 ) ) ;
#719 = ADVANCED_BREP_SHAPE_REPRESENTATION ( 'VJ1206A220JXGAT5Z', ( #754, #154, #699, #629 ), #724 ) ;
#720 = CARTESIAN_POINT ( 'NONE',  ( -1.094999999999999307, 1.673333333333333339, 0.7199999999999994182 ) ) ;
#721 = VECTOR ( 'NONE', #222, 1000.000000000000000 ) ;
#722 = ORIENTED_EDGE ( 'NONE', *, *, #433, .F. ) ;
#723 = ORIENTED_EDGE ( 'NONE', *, *, #969, .F. ) ;
#724 =( GEOMETRIC_REPRESENTATION_CONTEXT ( 3 ) GLOBAL_UNCERTAINTY_ASSIGNED_CONTEXT ( ( #572 ) ) GLOBAL_UNIT_ASSIGNED_CONTEXT ( ( #366, #182, #658 ) ) REPRESENTATION_CONTEXT ( 'NONE', 'WORKASPACE' ) );
#725 = CIRCLE ( 'NONE', #856, 0.07999999999999998779 ) ;
#726 = LINE ( 'NONE', #1182, #787 ) ;
#727 = ORIENTED_EDGE ( 'NONE', *, *, #303, .T. ) ;
#728 = EDGE_CURVE ( 'NONE', #1126, #159, #579, .T. ) ;
#729 = PRESENTATION_LAYER_ASSIGNMENT (  '', '', ( #1173 ) ) ;
#730 = CARTESIAN_POINT ( 'NONE',  ( -1.519999999999999574, 1.619999999999999885, 6.179952383167375274E-16 ) ) ;
#731 = ORIENTED_EDGE ( 'NONE', *, *, #636, .F. ) ;
#732 = DIRECTION ( 'NONE',  ( 0.0000000000000000000, 0.0000000000000000000, -1.000000000000000000 ) ) ;
#733 = CARTESIAN_POINT ( 'NONE',  ( -1.519999999999999352, 1.699999999999999956, 0.8000000000000002665 ) ) ;
#734 = ORIENTED_EDGE ( 'NONE', *, *, #942, .T. ) ;
#735 = VERTEX_POINT ( 'NONE', #1258 ) ;
#736 = CIRCLE ( 'NONE', #1013, 0.07999999999999998779 ) ;
#737 = EDGE_CURVE ( 'NONE', #26, #601, #269, .T. ) ;
#738 = CARTESIAN_POINT ( 'NONE',  ( 500000.0000000000582, 1.619999999999999440, -0.7733333333767010709 ) ) ;
#739 = CARTESIAN_POINT ( 'NONE',  ( 500000.0000000000582, 1.673333333333333339, -0.7200000000433678382 ) ) ;
#740 = CIRCLE ( 'NONE', #1106, 0.07999999999999998779 ) ;
#741 = DIRECTION ( 'NONE',  ( -1.000000000000000000, 0.0000000000000000000, 0.0000000000000000000 ) ) ;
#742 = CARTESIAN_POINT ( 'NONE',  ( 1.094999999999999307, 1.619999999999999885, -0.7999999999999996003 ) ) ;
#743 = ORIENTED_EDGE ( 'NONE', *, *, #1104, .T. ) ;
#744 = ORIENTED_EDGE ( 'NONE', *, *, #120, .F. ) ;
#745 = EDGE_CURVE ( 'NONE', #1010, #430, #292, .T. ) ;
#746 = CARTESIAN_POINT ( 'NONE',  ( 1.095000000020718289, 0.02666666666666668573, 0.7199999999999996403 ) ) ;
#747 = AXIS2_PLACEMENT_3D ( 'NONE', #943, #427, #238 ) ;
#748 = CARTESIAN_POINT ( 'NONE',  ( -1.520000000000000018, 1.619999999999999885, -0.7199999999999996403 ) ) ;
#749 =( NAMED_UNIT ( * ) SI_UNIT ( $, .STERADIAN. ) SOLID_ANGLE_UNIT ( ) );
#750 = CLOSED_SHELL ( 'NONE', ( #414, #1198, #890, #109, #591, #898, #996, #297, #1181, #508, #392, #325, #1098, #999, #1009, #219, #602, #788 ) ) ;
#751 = CYLINDRICAL_SURFACE ( 'NONE', #773, 0.05333333333333329512 ) ;
#752 = LINE ( 'NONE', #1158, #1122 ) ;
#753 = ORIENTED_EDGE ( 'NONE', *, *, #1025, .T. ) ;
#754 = MANIFOLD_SOLID_BREP ( 'Fillet1', #750 ) ;
#755 = VECTOR ( 'NONE', #37, 1000.000000000000000 ) ;
#756 = DIRECTION ( 'NONE',  ( -1.000000000000000000, 0.0000000000000000000, 0.0000000000000000000 ) ) ;
#757 = AXIS2_PLACEMENT_3D ( 'NONE', #82, #1060, #471 ) ;
#758 = ORIENTED_EDGE ( 'NONE', *, *, #1144, .F. ) ;
#759 = LINE ( 'NONE', #774, #582 ) ;
#760 = DIRECTION ( 'NONE',  ( -0.0000000000000000000, -1.000000000000000000, -0.0000000000000000000 ) ) ;
#761 = DIRECTION ( 'NONE',  ( 0.0000000000000000000, 0.0000000000000000000, -1.000000000000000000 ) ) ;
#762 = ORIENTED_EDGE ( 'NONE', *, *, #816, .T. ) ;
#763 = CARTESIAN_POINT ( 'NONE',  ( 1.599999999999999201, 1.699999999999999956, 0.7200000000000003064 ) ) ;
#764 = EDGE_CURVE ( 'NONE', #618, #295, #599, .T. ) ;
#765 = DIRECTION ( 'NONE',  ( 0.0000000000000000000, 0.0000000000000000000, -1.000000000000000000 ) ) ;
#766 = ORIENTED_EDGE ( 'NONE', *, *, #535, .T. ) ;
#767 = CARTESIAN_POINT ( 'NONE',  ( -1.094999999999999307, 0.07999999999999998779, -0.7199999999999996403 ) ) ;
#768 = CARTESIAN_POINT ( 'NONE',  ( -1.094999999999999307, 1.699999999999999956, -0.7999999999999996003 ) ) ;
#769 = ORIENTED_EDGE ( 'NONE', *, *, #476, .F. ) ;
#770 = VECTOR ( 'NONE', #831, 1000.000000000000000 ) ;
#771 = EDGE_CURVE ( 'NONE', #164, #173, #344, .T. ) ;
#772 = LINE ( 'NONE', #67, #511 ) ;
#773 = AXIS2_PLACEMENT_3D ( 'NONE', #1083, #1178, #1280 ) ;
#774 = CARTESIAN_POINT ( 'NONE',  ( 500000.0000000000582, 0.02666666666666668573, 0.7199999999566316644 ) ) ;
#775 = ORIENTED_EDGE ( 'NONE', *, *, #25, .T. ) ;
#776 = EDGE_LOOP ( 'NONE', ( #542, #260, #815 ) ) ;
#777 = ORIENTED_EDGE ( 'NONE', *, *, #1095, .F. ) ;
#778 = DIRECTION ( 'NONE',  ( -1.000000000000000000, -0.0000000000000000000, 8.673617379884036705E-17 ) ) ;
#779 =( NAMED_UNIT ( * ) PLANE_ANGLE_UNIT ( ) SI_UNIT ( $, .RADIAN. ) );
#780 = DIRECTION ( 'NONE',  ( 0.0000000000000000000, 1.000000000000000000, 0.0000000000000000000 ) ) ;
#781 = VECTOR ( 'NONE', #1229, 1000.000000000000000 ) ;
#782 = EDGE_CURVE ( 'NONE', #470, #941, #712, .T. ) ;
#783 = VECTOR ( 'NONE', #1267, 1000.000000000000000 ) ;
#784 = ORIENTED_EDGE ( 'NONE', *, *, #745, .T. ) ;
#785 = CARTESIAN_POINT ( 'NONE',  ( 1.094999999999999307, 1.699999999999999956, -0.7999999999999996003 ) ) ;
#786 = SPHERICAL_SURFACE ( 'NONE', #832, 0.08000000000000000167 ) ;
#787 = VECTOR ( 'NONE', #115, 1000.000000000000000 ) ;
#788 = ADVANCED_FACE ( 'NONE', ( #563 ), #359, .T. ) ;
#789 =( NAMED_UNIT ( * ) SI_UNIT ( $, .STERADIAN. ) SOLID_ANGLE_UNIT ( ) );
#790 = CARTESIAN_POINT ( 'NONE',  ( -1.094999999999999307, 1.619999999999999885, -0.7999999999999996003 ) ) ;
#791 = VECTOR ( 'NONE', #496, 1000.000000000000000 ) ;
#792 = PRODUCT_DEFINITION ( 'UNKNOWN', '', #155, #630 ) ;
#793 = ORIENTED_EDGE ( 'NONE', *, *, #130, .F. ) ;
#794 = CARTESIAN_POINT ( 'NONE',  ( -1.519999999999999130, 1.699999999999999956, 0.7200000000000003064 ) ) ;
#795 =( LENGTH_UNIT ( ) NAMED_UNIT ( * ) SI_UNIT ( .MILLI., .METRE. ) );
#796 = ADVANCED_FACE ( 'NONE', ( #807 ), #68, .T. ) ;
#797 = UNCERTAINTY_MEASURE_WITH_UNIT (LENGTH_MEASURE( 1.000000000000000082E-05 ), #795, 'distance_accuracy_value', 'NONE');
#798 = CARTESIAN_POINT ( 'NONE',  ( -1.519999999999999130, 0.07999999999999998779, 0.8000000000000002665 ) ) ;
#799 = EDGE_CURVE ( 'NONE', #601, #243, #821, .T. ) ;
#800 = CARTESIAN_POINT ( 'NONE',  ( 1.599999999999999201, 0.07999999999999998779, 0.8000000000000002665 ) ) ;
#801 = DIRECTION ( 'NONE',  ( 0.0000000000000000000, -1.000000000000000000, 0.0000000000000000000 ) ) ;
#802 = AXIS2_PLACEMENT_3D ( 'NONE', #20, #410, #308 ) ;
#803 = ORIENTED_EDGE ( 'NONE', *, *, #799, .F. ) ;
#804 = ADVANCED_FACE ( 'NONE', ( #1081 ), #253, .T. ) ;
#805 = ORIENTED_EDGE ( 'NONE', *, *, #849, .T. ) ;
#806 = CIRCLE ( 'NONE', #244, 0.05333333333333329512 ) ;
#807 = FACE_OUTER_BOUND ( 'NONE', #1004, .T. ) ;
#808 = EDGE_CURVE ( 'NONE', #659, #585, #676, .T. ) ;
#809 = DIRECTION ( 'NONE',  ( 4.065758146820642614E-16, -0.0000000000000000000, -1.000000000000000000 ) ) ;
#810 = EDGE_LOOP ( 'NONE', ( #30, #727, #987, #1160 ) ) ;
#811 = ADVANCED_FACE ( 'NONE', ( #549 ), #786, .T. ) ;
#812 = DIRECTION ( 'NONE',  ( -1.355252715606880789E-16, 0.0000000000000000000, 1.000000000000000000 ) ) ;
#813 = ORIENTED_EDGE ( 'NONE', *, *, #611, .F. ) ;
#814 = CARTESIAN_POINT ( 'NONE',  ( 500000.0000000000582, 0.07999999999999998779, -0.7200000000433678382 ) ) ;
#815 = ORIENTED_EDGE ( 'NONE', *, *, #419, .F. ) ;
#816 = EDGE_CURVE ( 'NONE', #843, #364, #223, .T. ) ;
#817 = DIRECTION ( 'NONE',  ( 1.000000000000000000, 0.0000000000000000000, 0.0000000000000000000 ) ) ;
#818 = AXIS2_PLACEMENT_3D ( 'NONE', #474, #190, #1262 ) ;
#819 = DIRECTION ( 'NONE',  ( 0.0000000000000000000, -1.000000000000000000, 0.0000000000000000000 ) ) ;
#820 = VERTEX_POINT ( 'NONE', #920 ) ;
#821 = LINE ( 'NONE', #1172, #533 ) ;
#822 = FACE_OUTER_BOUND ( 'NONE', #1227, .T. ) ;
#823 = CARTESIAN_POINT ( 'NONE',  ( -1.519999999999999130, 1.619999999999999885, 0.8000000000000002665 ) ) ;
#824 = AXIS2_PLACEMENT_3D ( 'NONE', #1096, #897, #702 ) ;
#825 = ORIENTED_EDGE ( 'NONE', *, *, #517, .T. ) ;
#826 = CARTESIAN_POINT ( 'NONE',  ( 1.095000000020718289, 1.619999999999999885, 0.7733333333333333171 ) ) ;
#827 = CIRCLE ( 'NONE', #452, 0.07999999999999998779 ) ;
#828 = ORIENTED_EDGE ( 'NONE', *, *, #928, .T. ) ;
#829 = EDGE_CURVE ( 'NONE', #530, #1008, #1266, .T. ) ;
#830 = ORIENTED_EDGE ( 'NONE', *, *, #764, .T. ) ;
#831 = DIRECTION ( 'NONE',  ( -0.0000000000000000000, 1.000000000000000000, 0.0000000000000000000 ) ) ;
#832 = AXIS2_PLACEMENT_3D ( 'NONE', #836, #518, #1121 ) ;
#833 = LINE ( 'NONE', #1230, #221 ) ;
#834 = CARTESIAN_POINT ( 'NONE',  ( -1.519999999999999796, 0.08000000000000000167, -0.7199999999999996403 ) ) ;
#835 = DIRECTION ( 'NONE',  ( -4.065758146820642614E-16, 0.0000000000000000000, -1.000000000000000000 ) ) ;
#836 = CARTESIAN_POINT ( 'NONE',  ( 1.519999999999999130, 1.619999999999999885, 0.7200000000000003064 ) ) ;
#837 = CARTESIAN_POINT ( 'NONE',  ( 1.094999999999999307, 0.07999999999999998779, -0.7999999999999996003 ) ) ;
#838 = DIRECTION ( 'NONE',  ( 0.0000000000000000000, 0.0000000000000000000, 1.000000000000000000 ) ) ;
#839 = ORIENTED_EDGE ( 'NONE', *, *, #1070, .F. ) ;
#840 = ORIENTED_EDGE ( 'NONE', *, *, #611, .T. ) ;
#841 = EDGE_CURVE ( 'NONE', #1145, #243, #1140, .T. ) ;
#842 = DIRECTION ( 'NONE',  ( 1.000000000000000000, 0.0000000000000000000, -8.673617379884036705E-17 ) ) ;
#843 = VERTEX_POINT ( 'NONE', #823 ) ;
#844 = AXIS2_PLACEMENT_3D ( 'NONE', #1090, #11, #900 ) ;
#845 = DIRECTION ( 'NONE',  ( -1.000000000000000000, 0.0000000000000000000, 4.065758146820640148E-16 ) ) ;
#846 = CARTESIAN_POINT ( 'NONE',  ( -1.519999999999999130, 0.08000000000000000167, 0.7200000000000003064 ) ) ;
#847 = CIRCLE ( 'NONE', #487, 0.07999999999999998779 ) ;
#848 = DIRECTION ( 'NONE',  ( -1.000000000000000000, 0.0000000000000000000, 0.0000000000000000000 ) ) ;
#849 = EDGE_CURVE ( 'NONE', #915, #470, #1241, .T. ) ;
#850 = CARTESIAN_POINT ( 'NONE',  ( 500000.0000000000582, 0.07999999999999998779, -0.7733333333767010709 ) ) ;
#851 = VECTOR ( 'NONE', #97, 1000.000000000000000 ) ;
#852 = VERTEX_POINT ( 'NONE', #930 ) ;
#853 = ORIENTED_EDGE ( 'NONE', *, *, #1215, .T. ) ;
#854 = EDGE_CURVE ( 'NONE', #201, #198, #449, .T. ) ;
#855 = CARTESIAN_POINT ( 'NONE',  ( -1.094999999999999307, 1.699999999999999956, -0.7999999999999996003 ) ) ;
#856 = AXIS2_PLACEMENT_3D ( 'NONE', #985, #404, #501 ) ;
#857 = DIRECTION ( 'NONE',  ( 0.0000000000000000000, 0.0000000000000000000, 1.000000000000000000 ) ) ;
#858 = SHAPE_DEFINITION_REPRESENTATION ( #16, #719 ) ;
#859 = ORIENTED_EDGE ( 'NONE', *, *, #321, .T. ) ;
#860 = EDGE_CURVE ( 'NONE', #915, #66, #15, .T. ) ;
#861 = EDGE_LOOP ( 'NONE', ( #964, #1123, #665, #867 ) ) ;
#862 = EDGE_LOOP ( 'NONE', ( #413, #1065, #909, #267 ) ) ;
#863 = LINE ( 'NONE', #51, #447 ) ;
#864 = CARTESIAN_POINT ( 'NONE',  ( 1.599999999999999867, 1.619999999999999885, -0.7999999999999996003 ) ) ;
#865 = AXIS2_PLACEMENT_3D ( 'NONE', #1200, #1202, #1097 ) ;
#866 = DIRECTION ( 'NONE',  ( 0.0000000000000000000, 0.0000000000000000000, -1.000000000000000000 ) ) ;
#867 = ORIENTED_EDGE ( 'NONE', *, *, #281, .F. ) ;
#868 = PLANE ( 'NONE',  #620 ) ;
#869 = ORIENTED_EDGE ( 'NONE', *, *, #1059, .F. ) ;
#870 = DIRECTION ( 'NONE',  ( 1.355252715606880789E-16, 0.0000000000000000000, 1.000000000000000000 ) ) ;
#871 = EDGE_CURVE ( 'NONE', #652, #141, #1048, .T. ) ;
#872 = CARTESIAN_POINT ( 'NONE',  ( 1.599999999999999867, 0.07999999999999998779, -0.7199999999999996403 ) ) ;
#873 = CARTESIAN_POINT ( 'NONE',  ( 1.094999999999999085, 0.07999999999999998779, 0.7200000000000003064 ) ) ;
#874 = ORIENTED_EDGE ( 'NONE', *, *, #25, .F. ) ;
#875 = DIRECTION ( 'NONE',  ( 0.0000000000000000000, 1.000000000000000000, 0.0000000000000000000 ) ) ;
#876 = EDGE_LOOP ( 'NONE', ( #617, #1040, #1037, #285 ) ) ;
#877 = FACE_OUTER_BOUND ( 'NONE', #1085, .T. ) ;
#878 = COLOUR_RGB ( '',0.7921568627450980005, 0.8196078431372548767, 0.9333333333333333481 ) ;
#879 = CARTESIAN_POINT ( 'NONE',  ( -1.094999999999999085, 0.07999999999999998779, 0.8000000000000002665 ) ) ;
#880 = FACE_OUTER_BOUND ( 'NONE', #970, .T. ) ;
#881 = CARTESIAN_POINT ( 'NONE',  ( 0.0000000000000000000, 1.619999999999999885, 0.7200000000000003064 ) ) ;
#882 = EDGE_LOOP ( 'NONE', ( #279, #89, #1021, #138 ) ) ;
#883 = ORIENTED_EDGE ( 'NONE', *, *, #461, .F. ) ;
#884 = ORIENTED_EDGE ( 'NONE', *, *, #1215, .F. ) ;
#885 = DIRECTION ( 'NONE',  ( 1.000000000000000000, 0.0000000000000000000, 0.0000000000000000000 ) ) ;
#886 = PLANE ( 'NONE',  #1260 ) ;
#887 = CYLINDRICAL_SURFACE ( 'NONE', #87, 0.07999999999999998779 ) ;
#888 = CARTESIAN_POINT ( 'NONE',  ( -1.519999999999999796, 1.699999999999999956, -0.7199999999999996403 ) ) ;
#889 = PLANE ( 'NONE',  #248 ) ;
#890 = ADVANCED_FACE ( 'NONE', ( #1137 ), #91, .F. ) ;
#891 = DIRECTION ( 'NONE',  ( 0.0000000000000000000, -1.000000000000000000, 0.0000000000000000000 ) ) ;
#892 = CIRCLE ( 'NONE', #537, 0.07999999999999998779 ) ;
#893 = DIRECTION ( 'NONE',  ( 0.0000000000000000000, 1.000000000000000000, 0.0000000000000000000 ) ) ;
#894 = LINE ( 'NONE', #165, #598 ) ;
#895 = VECTOR ( 'NONE', #584, 1000.000000000000000 ) ;
#896 = EDGE_CURVE ( 'NONE', #941, #820, #176, .T. ) ;
#897 = DIRECTION ( 'NONE',  ( 1.000000000000000000, 0.0000000000000000000, 1.355252715606880789E-16 ) ) ;
#898 = ADVANCED_FACE ( 'NONE', ( #145 ), #39, .F. ) ;
#899 = AXIS2_PLACEMENT_3D ( 'NONE', #1041, #453, #653 ) ;
#900 = DIRECTION ( 'NONE',  ( 1.000000000000000000, 0.0000000000000000000, 0.0000000000000000000 ) ) ;
#901 = EDGE_LOOP ( 'NONE', ( #1103, #839, #1235, #758 ) ) ;
#902 = ORIENTED_EDGE ( 'NONE', *, *, #860, .T. ) ;
#903 = ADVANCED_FACE ( 'NONE', ( #506 ), #1210, .F. ) ;
#904 = CIRCLE ( 'NONE', #931, 0.07999999999999998779 ) ;
#905 = DIRECTION ( 'NONE',  ( -1.355252715606880789E-16, 0.0000000000000000000, 1.000000000000000000 ) ) ;
#906 = AXIS2_PLACEMENT_3D ( 'NONE', #965, #1254, #465 ) ;
#907 = FACE_OUTER_BOUND ( 'NONE', #882, .T. ) ;
#908 = CARTESIAN_POINT ( 'NONE',  ( 0.0000000000000000000, 0.0000000000000000000, 0.0000000000000000000 ) ) ;
#909 = ORIENTED_EDGE ( 'NONE', *, *, #384, .T. ) ;
#910 = CYLINDRICAL_SURFACE ( 'NONE', #958, 0.07999999999999998779 ) ;
#911 = EDGE_CURVE ( 'NONE', #941, #957, #988, .T. ) ;
#912 = CARTESIAN_POINT ( 'NONE',  ( 1.095000000020718289, 0.02666666666666666491, 0.7199999998888690911 ) ) ;
#913 = CARTESIAN_POINT ( 'NONE',  ( -1.599999999999999867, 0.07999999999999998779, -0.7199999999999996403 ) ) ;
#914 = ORIENTED_EDGE ( 'NONE', *, *, #603, .T. ) ;
#915 = VERTEX_POINT ( 'NONE', #616 ) ;
#916 = EDGE_LOOP ( 'NONE', ( #682, #762, #129 ) ) ;
#917 = CARTESIAN_POINT ( 'NONE',  ( 1.095000000020718289, 0.07999999999999998779, -0.7733333333333330950 ) ) ;
#918 = LINE ( 'NONE', #319, #1217 ) ;
#919 = EDGE_CURVE ( 'NONE', #716, #1145, #1204, .T. ) ;
#920 = CARTESIAN_POINT ( 'NONE',  ( -1.094999999999999307, 1.699999999999999956, -0.7199999999999996403 ) ) ;
#921 = AXIS2_PLACEMENT_3D ( 'NONE', #441, #842, #1024 ) ;
#922 = ORIENTED_EDGE ( 'NONE', *, *, #942, .F. ) ;
#923 = LINE ( 'NONE', #1007, #1030 ) ;
#924 = CARTESIAN_POINT ( 'NONE',  ( 0.0000000000000000000, 0.0000000000000000000, 0.0000000000000000000 ) ) ;
#925 = FACE_OUTER_BOUND ( 'NONE', #861, .T. ) ;
#926 = CARTESIAN_POINT ( 'NONE',  ( 1.599999999999999201, 1.619999999999999885, 0.8000000000000002665 ) ) ;
#927 = CARTESIAN_POINT ( 'NONE',  ( 1.519999999999999796, 1.699999999999999956, -0.7199999999999996403 ) ) ;
#928 = EDGE_CURVE ( 'NONE', #1148, #341, #711, .T. ) ;
#929 = DIRECTION ( 'NONE',  ( 0.0000000000000000000, 0.0000000000000000000, -1.000000000000000000 ) ) ;
#930 = CARTESIAN_POINT ( 'NONE',  ( 1.095000000020718289, 1.673333333333333339, 0.7199999999999991962 ) ) ;
#931 = AXIS2_PLACEMENT_3D ( 'NONE', #90, #200, #983 ) ;
#932 = CARTESIAN_POINT ( 'NONE',  ( 1.095000000020718289, 1.673333333333333339, -0.7199999999999998623 ) ) ;
#933 = VERTEX_POINT ( 'NONE', #352 ) ;
#934 = DIRECTION ( 'NONE',  ( 0.0000000000000000000, -1.000000000000000000, -0.0000000000000000000 ) ) ;
#935 = CARTESIAN_POINT ( 'NONE',  ( 1.094999999999999085, 0.0000000000000000000, 0.7199999999999998623 ) ) ;
#936 = CARTESIAN_POINT ( 'NONE',  ( -1.599999999999999201, 0.07999999999999998779, 0.7200000000000003064 ) ) ;
#937 = FACE_OUTER_BOUND ( 'NONE', #434, .T. ) ;
#938 = CARTESIAN_POINT ( 'NONE',  ( -1.519999999999999796, 0.07999999999999998779, -0.7999999999999996003 ) ) ;
#939 = CARTESIAN_POINT ( 'NONE',  ( -1.094999999999999085, 1.619999999999999885, 0.8000000000000002665 ) ) ;
#940 = VERTEX_POINT ( 'NONE', #938 ) ;
#941 = VERTEX_POINT ( 'NONE', #45 ) ;
#942 = EDGE_CURVE ( 'NONE', #198, #196, #251, .T. ) ;
#943 = CARTESIAN_POINT ( 'NONE',  ( -1.519999999999999130, 1.619999999999999885, 0.7200000000000003064 ) ) ;
#944 = EDGE_LOOP ( 'NONE', ( #902, #1194, #191 ) ) ;
#945 = CARTESIAN_POINT ( 'NONE',  ( 0.0000000000000000000, 1.619999999999999885, -0.7199999999999996403 ) ) ;
#946 = CYLINDRICAL_SURFACE ( 'NONE', #1146, 0.07999999999999998779 ) ;
#947 = DIRECTION ( 'NONE',  ( 1.000000000000000000, -0.0000000000000000000, -0.0000000000000000000 ) ) ;
#948 = VECTOR ( 'NONE', #536, 1000.000000000000000 ) ;
#949 = DIRECTION ( 'NONE',  ( -1.000000000000000000, 0.0000000000000000000, -2.710505431213761479E-15 ) ) ;
#950 = DIRECTION ( 'NONE',  ( 0.0000000000000000000, -0.0000000000000000000, -1.000000000000000000 ) ) ;
#951 = ORIENTED_EDGE ( 'NONE', *, *, #152, .T. ) ;
#952 = DIRECTION ( 'NONE',  ( 4.065758146820642614E-16, -0.0000000000000000000, -1.000000000000000000 ) ) ;
#953 = ORIENTED_EDGE ( 'NONE', *, *, #603, .F. ) ;
#954 = AXIS2_PLACEMENT_3D ( 'NONE', #1092, #1170, #1175 ) ;
#955 = DIRECTION ( 'NONE',  ( -1.000000000000000000, 0.0000000000000000000, 0.0000000000000000000 ) ) ;
#956 = DIRECTION ( 'NONE',  ( 0.0000000000000000000, -1.000000000000000000, 0.0000000000000000000 ) ) ;
#957 = VERTEX_POINT ( 'NONE', #365 ) ;
#958 = AXIS2_PLACEMENT_3D ( 'NONE', #945, #362, #1046 ) ;
#959 = ORIENTED_EDGE ( 'NONE', *, *, #860, .F. ) ;
#960 = CIRCLE ( 'NONE', #372, 0.07999999999999998779 ) ;
#961 = SPHERICAL_SURFACE ( 'NONE', #1088, 0.08000000000000000167 ) ;
#962 = FACE_OUTER_BOUND ( 'NONE', #151, .T. ) ;
#963 = DIRECTION ( 'NONE',  ( 0.0000000000000000000, 0.0000000000000000000, 1.000000000000000000 ) ) ;
#964 = ORIENTED_EDGE ( 'NONE', *, *, #1257, .F. ) ;
#965 = CARTESIAN_POINT ( 'NONE',  ( 1.519999999999999574, 1.619999999999999885, 6.179952383167375274E-16 ) ) ;
#966 = EDGE_CURVE ( 'NONE', #573, #618, #237, .T. ) ;
#967 =( LENGTH_UNIT ( ) NAMED_UNIT ( * ) SI_UNIT ( .MILLI., .METRE. ) );
#968 = PRODUCT_RELATED_PRODUCT_CATEGORY ( 'part', '', ( #472 ) ) ;
#969 = EDGE_CURVE ( 'NONE', #385, #716, #1001, .T. ) ;
#970 = EDGE_LOOP ( 'NONE', ( #560, #1238, #1000, #514 ) ) ;
#971 = VECTOR ( 'NONE', #2, 1000.000000000000000 ) ;
#972 = AXIS2_PLACEMENT_3D ( 'NONE', #288, #574, #1087 ) ;
#973 = CARTESIAN_POINT ( 'NONE',  ( -1.519999999999999352, 1.619999999999999885, 0.7200000000000003064 ) ) ;
#974 = LINE ( 'NONE', #647, #948 ) ;
#975 = CARTESIAN_POINT ( 'NONE',  ( -1.094999999999999307, 1.619999999999999440, -0.7733333333333328730 ) ) ;
#976 = DIRECTION ( 'NONE',  ( -1.000000000000000000, -0.0000000000000000000, -0.0000000000000000000 ) ) ;
#977 = ORIENTED_EDGE ( 'NONE', *, *, #1135, .T. ) ;
#978 = CARTESIAN_POINT ( 'NONE',  ( 500000.0000000000582, 1.673333333333333339, 0.7199999999566312203 ) ) ;
#979 = ORIENTED_EDGE ( 'NONE', *, *, #461, .T. ) ;
#980 = EDGE_CURVE ( 'NONE', #735, #399, #923, .T. ) ;
#981 = CARTESIAN_POINT ( 'NONE',  ( -1.599999999999999201, 1.619999999999999885, 0.7200000000000003064 ) ) ;
#982 = ORIENTED_EDGE ( 'NONE', *, *, #670, .T. ) ;
#983 = DIRECTION ( 'NONE',  ( 0.0000000000000000000, 0.0000000000000000000, 1.000000000000000000 ) ) ;
#984 = DIRECTION ( 'NONE',  ( -1.000000000000000000, 0.0000000000000000000, 0.0000000000000000000 ) ) ;
#985 = CARTESIAN_POINT ( 'NONE',  ( 1.519999999999999130, 0.07999999999999998779, 0.7200000000000003064 ) ) ;
#986 = DIRECTION ( 'NONE',  ( -1.000000000000000000, 0.0000000000000000000, 0.0000000000000000000 ) ) ;
#987 = ORIENTED_EDGE ( 'NONE', *, *, #378, .T. ) ;
#988 = LINE ( 'NONE', #520, #693 ) ;
#989 = EDGE_CURVE ( 'NONE', #1008, #618, #725, .T. ) ;
#990 = CIRCLE ( 'NONE', #121, 0.07999999999999998779 ) ;
#991 = ADVANCED_FACE ( 'NONE', ( #14 ), #625, .T. ) ;
#992 = AXIS2_PLACEMENT_3D ( 'NONE', #435, #929, #640 ) ;
#993 = DIRECTION ( 'NONE',  ( 0.0000000000000000000, 0.0000000000000000000, 1.000000000000000000 ) ) ;
#994 = EDGE_LOOP ( 'NONE', ( #1128, #743, #12, #315 ) ) ;
#995 = PLANE ( 'NONE',  #428 ) ;
#996 = ADVANCED_FACE ( 'NONE', ( #1265 ), #946, .T. ) ;
#997 = DIRECTION ( 'NONE',  ( -0.0000000000000000000, 1.000000000000000000, -0.0000000000000000000 ) ) ;
#998 = EDGE_LOOP ( 'NONE', ( #174, #426, #692, #722 ) ) ;
#999 = ADVANCED_FACE ( 'NONE', ( #309 ), #1152, .T. ) ;
#1000 = ORIENTED_EDGE ( 'NONE', *, *, #411, .T. ) ;
#1001 = CIRCLE ( 'NONE', #1233, 0.05333333333333329512 ) ;
#1002 = VECTOR ( 'NONE', #976, 1000.000000000000000 ) ;
#1003 = EDGE_CURVE ( 'NONE', #1010, #1203, #736, .T. ) ;
#1004 = EDGE_LOOP ( 'NONE', ( #633, #977, #1091 ) ) ;
#1005 = VECTOR ( 'NONE', #1237, 1000.000000000000000 ) ;
#1006 = LINE ( 'NONE', #111, #1033 ) ;
#1007 = CARTESIAN_POINT ( 'NONE',  ( -1.094999999999999307, 1.619999999999999885, 0.7733333333333335391 ) ) ;
#1008 = VERTEX_POINT ( 'NONE', #718 ) ;
#1009 = ADVANCED_FACE ( 'NONE', ( #50 ), #494, .T. ) ;
#1010 = VERTEX_POINT ( 'NONE', #657 ) ;
#1011 = CARTESIAN_POINT ( 'NONE',  ( 1.095000000020718289, 1.673333333333333339, -0.7200000001111303005 ) ) ;
#1012 = DIRECTION ( 'NONE',  ( 1.000000000000000000, -0.0000000000000000000, -1.355252715606880789E-16 ) ) ;
#1013 = AXIS2_PLACEMENT_3D ( 'NONE', #4, #390, #993 ) ;
#1014 = VECTOR ( 'NONE', #984, 1000.000000000000000 ) ;
#1015 = CARTESIAN_POINT ( 'NONE',  ( 500000.0000000000582, 1.619999999999999885, 0.7199999999566321085 ) ) ;
#1016 = ORIENTED_EDGE ( 'NONE', *, *, #195, .F. ) ;
#1017 = VECTOR ( 'NONE', #95, 1000.000000000000000 ) ;
#1018 = CARTESIAN_POINT ( 'NONE',  ( 1.519999999999999130, 0.08000000000000000167, 0.7200000000000003064 ) ) ;
#1019 = AXIS2_PLACEMENT_3D ( 'NONE', #767, #185, #866 ) ;
#1020 = DIRECTION ( 'NONE',  ( -1.000000000000000000, 0.0000000000000000000, 0.0000000000000000000 ) ) ;
#1021 = ORIENTED_EDGE ( 'NONE', *, *, #980, .T. ) ;
#1022 = DIRECTION ( 'NONE',  ( -1.355252715606880789E-16, -0.0000000000000000000, -1.000000000000000000 ) ) ;
#1023 = DIRECTION ( 'NONE',  ( 0.0000000000000000000, 0.0000000000000000000, 1.000000000000000000 ) ) ;
#1024 = DIRECTION ( 'NONE',  ( 0.0000000000000000000, 0.0000000000000000000, -1.000000000000000000 ) ) ;
#1025 = EDGE_CURVE ( 'NONE', #933, #1008, #431, .T. ) ;
#1026 = ORIENTED_EDGE ( 'NONE', *, *, #1231, .T. ) ;
#1027 = CARTESIAN_POINT ( 'NONE',  ( -1.519999999999999130, 0.0000000000000000000, 0.7200000000000003064 ) ) ;
#1028 = DIRECTION ( 'NONE',  ( 0.0000000000000000000, 0.0000000000000000000, 1.000000000000000000 ) ) ;
#1029 = ORIENTED_EDGE ( 'NONE', *, *, #627, .T. ) ;
#1030 = VECTOR ( 'NONE', #1112, 1000.000000000000000 ) ;
#1031 = PLANE ( 'NONE',  #655 ) ;
#1032 = PRESENTATION_STYLE_ASSIGNMENT (( #571 ) ) ;
#1033 = VECTOR ( 'NONE', #809, 1000.000000000000000 ) ;
#1034 = EDGE_CURVE ( 'NONE', #1145, #659, #806, .T. ) ;
#1035 = CARTESIAN_POINT ( 'NONE',  ( 1.095000000020718289, 1.619999999999999440, -0.7733333333333330950 ) ) ;
#1036 = AXIS2_PLACEMENT_3D ( 'NONE', #3, #119, #217 ) ;
#1037 = ORIENTED_EDGE ( 'NONE', *, *, #178, .F. ) ;
#1038 = DIRECTION ( 'NONE',  ( -2.710505431213761479E-15, 0.0000000000000000000, 1.000000000000000000 ) ) ;
#1039 = ORIENTED_EDGE ( 'NONE', *, *, #411, .F. ) ;
#1040 = ORIENTED_EDGE ( 'NONE', *, *, #1268, .F. ) ;
#1041 = CARTESIAN_POINT ( 'NONE',  ( -1.094999999999999085, 0.07999999999999998779, 0.7200000000000003064 ) ) ;
#1042 = SPHERICAL_SURFACE ( 'NONE', #110, 0.08000000000000000167 ) ;
#1043 = CARTESIAN_POINT ( 'NONE',  ( 1.599999999999999867, 1.699999999999999956, -0.7999999999999996003 ) ) ;
#1044 = ORIENTED_EDGE ( 'NONE', *, *, #816, .F. ) ;
#1045 = EDGE_CURVE ( 'NONE', #486, #1214, #1189, .T. ) ;
#1046 = DIRECTION ( 'NONE',  ( 0.0000000000000000000, 0.0000000000000000000, -1.000000000000000000 ) ) ;
#1047 = CYLINDRICAL_SURFACE ( 'NONE', #220, 0.07999999999999998779 ) ;
#1048 = CIRCLE ( 'NONE', #1080, 0.07999999999999998779 ) ;
#1049 = APPLICATION_CONTEXT ( 'automotive_design' ) ;
#1050 = EDGE_LOOP ( 'NONE', ( #492, #122, #769, #1245 ) ) ;
#1051 = LINE ( 'NONE', #314, #1111 ) ;
#1052 = EDGE_CURVE ( 'NONE', #820, #66, #373, .T. ) ;
#1053 = ORIENTED_EDGE ( 'NONE', *, *, #195, .T. ) ;
#1054 = AXIS2_PLACEMENT_3D ( 'NONE', #1064, #489, #1168 ) ;
#1055 = DIRECTION ( 'NONE',  ( -4.065758146820642614E-16, 0.0000000000000000000, 1.000000000000000000 ) ) ;
#1056 = CIRCLE ( 'NONE', #575, 0.07999999999999998779 ) ;
#1057 = CARTESIAN_POINT ( 'NONE',  ( 1.519999999999999130, 1.619999999999999885, 0.7200000000000003064 ) ) ;
#1058 = ORIENTED_EDGE ( 'NONE', *, *, #287, .T. ) ;
#1059 = EDGE_CURVE ( 'NONE', #523, #196, #400, .T. ) ;
#1060 = DIRECTION ( 'NONE',  ( 1.000000000000000000, 0.0000000000000000000, 1.355252715606880789E-16 ) ) ;
#1061 = DIRECTION ( 'NONE',  ( 4.065758146820642614E-16, -0.0000000000000000000, 1.000000000000000000 ) ) ;
#1062 =( NAMED_UNIT ( * ) SI_UNIT ( $, .STERADIAN. ) SOLID_ANGLE_UNIT ( ) );
#1063 = DIRECTION ( 'NONE',  ( 0.0000000000000000000, -0.0000000000000000000, 1.000000000000000000 ) ) ;
#1064 = CARTESIAN_POINT ( 'NONE',  ( 1.599999999999999867, 0.07999999999999998779, -0.7199999999999996403 ) ) ;
#1065 = ORIENTED_EDGE ( 'NONE', *, *, #808, .T. ) ;
#1066 = FILL_AREA_STYLE_COLOUR ( '', #347 ) ;
#1067 = DIRECTION ( 'NONE',  ( 0.0000000000000000000, 0.0000000000000000000, -1.000000000000000000 ) ) ;
#1068 = ORIENTED_EDGE ( 'NONE', *, *, #558, .T. ) ;
#1069 = CARTESIAN_POINT ( 'NONE',  ( -1.094999999999999085, 0.0000000000000000000, 0.7199999999999998623 ) ) ;
#1070 = EDGE_CURVE ( 'NONE', #327, #445, #660, .T. ) ;
#1071 = EDGE_LOOP ( 'NONE', ( #805, #456, #576, #60 ) ) ;
#1072 = FACE_OUTER_BOUND ( 'NONE', #1050, .T. ) ;
#1073 = CARTESIAN_POINT ( 'NONE',  ( 1.094999999999999307, 1.699999999999999956, -0.7999999999999996003 ) ) ;
#1074 = LINE ( 'NONE', #189, #721 ) ;
#1075 = CARTESIAN_POINT ( 'NONE',  ( 1.519999999999999796, 1.619999999999999885, -0.7199999999999996403 ) ) ;
#1076 = EDGE_LOOP ( 'NONE', ( #490, #642, #959, #99 ) ) ;
#1077 = DIRECTION ( 'NONE',  ( -1.000000000000000000, -0.0000000000000000000, 8.673617379884036705E-17 ) ) ;
#1078 = PRESENTATION_STYLE_ASSIGNMENT (( #80 ) ) ;
#1079 = ADVANCED_FACE ( 'NONE', ( #877 ), #383, .T. ) ;
#1080 = AXIS2_PLACEMENT_3D ( 'NONE', #873, #1154, #278 ) ;
#1081 = FACE_OUTER_BOUND ( 'NONE', #1239, .T. ) ;
#1082 = LINE ( 'NONE', #1166, #895 ) ;
#1083 = CARTESIAN_POINT ( 'NONE',  ( 500000.0000000000582, 0.07999999999999998779, 0.7199999999566321085 ) ) ;
#1084 = CARTESIAN_POINT ( 'NONE',  ( 1.520000000000000018, 1.699999999999999956, -0.7199999999999996403 ) ) ;
#1085 = EDGE_LOOP ( 'NONE', ( #683, #377, #914, #510 ) ) ;
#1086 = ADVANCED_FACE ( 'NONE', ( #280 ), #1177, .T. ) ;
#1087 = DIRECTION ( 'NONE',  ( 0.0000000000000000000, 0.0000000000000000000, -1.000000000000000000 ) ) ;
#1088 = AXIS2_PLACEMENT_3D ( 'NONE', #299, #780, #194 ) ;
#1089 = DIRECTION ( 'NONE',  ( 4.065758146820642614E-16, 0.0000000000000000000, -1.000000000000000000 ) ) ;
#1090 = CARTESIAN_POINT ( 'NONE',  ( 1.519999999999999796, 0.08000000000000000167, -0.7199999999999996403 ) ) ;
#1091 = ORIENTED_EDGE ( 'NONE', *, *, #989, .F. ) ;
#1092 = CARTESIAN_POINT ( 'NONE',  ( 1.519999999999999130, 1.699999999999999956, 0.7200000000000003064 ) ) ;
#1093 = CARTESIAN_POINT ( 'NONE',  ( 1.095000000020718289, 0.02666666666666666491, -0.7199999999999994182 ) ) ;
#1094 = VECTOR ( 'NONE', #247, 1000.000000000000000 ) ;
#1095 = EDGE_CURVE ( 'NONE', #159, #341, #1125, .T. ) ;
#1096 = CARTESIAN_POINT ( 'NONE',  ( 1.094999999999999307, 1.699999999999999956, -0.7999999999999996003 ) ) ;
#1097 = DIRECTION ( 'NONE',  ( 1.000000000000000000, 0.0000000000000000000, 0.0000000000000000000 ) ) ;
#1098 = ADVANCED_FACE ( 'NONE', ( #192 ), #1249, .T. ) ;
#1099 = SURFACE_STYLE_FILL_AREA ( #548 ) ;
#1100 = EDGE_LOOP ( 'NONE', ( #1221, #1253, #813 ) ) ;
#1101 = ORIENTED_EDGE ( 'NONE', *, *, #1104, .F. ) ;
#1102 = DIRECTION ( 'NONE',  ( 1.000000000000000000, 0.0000000000000000000, -8.673617379884036705E-17 ) ) ;
#1103 = ORIENTED_EDGE ( 'NONE', *, *, #419, .T. ) ;
#1104 = EDGE_CURVE ( 'NONE', #141, #530, #894, .T. ) ;
#1105 = CARTESIAN_POINT ( 'NONE',  ( 1.599999999999999867, 1.699999999999999956, -0.7199999999999996403 ) ) ;
#1106 = AXIS2_PLACEMENT_3D ( 'NONE', #354, #554, #761 ) ;
#1107 = ADVANCED_FACE ( 'NONE', ( #85 ), #157, .F. ) ;
#1108 = CARTESIAN_POINT ( 'NONE',  ( -1.599999999999999867, 1.619999999999999885, -0.7999999999999996003 ) ) ;
#1109 = VECTOR ( 'NONE', #1180, 1000.000000000000000 ) ;
#1110 = EDGE_CURVE ( 'NONE', #141, #159, #342, .T. ) ;
#1111 = VECTOR ( 'NONE', #885, 1000.000000000000000 ) ;
#1112 = DIRECTION ( 'NONE',  ( 0.0000000000000000000, -1.000000000000000000, 0.0000000000000000000 ) ) ;
#1113 = ORIENTED_EDGE ( 'NONE', *, *, #378, .F. ) ;
#1114 = EDGE_LOOP ( 'NONE', ( #874, #58, #1044, #464 ) ) ;
#1115 = DIRECTION ( 'NONE',  ( 0.0000000000000000000, -0.0000000000000000000, -1.000000000000000000 ) ) ;
#1116 = ORIENTED_EDGE ( 'NONE', *, *, #69, .T. ) ;
#1117 = EDGE_CURVE ( 'NONE', #6, #486, #863, .T. ) ;
#1118 = CARTESIAN_POINT ( 'NONE',  ( 1.599999999999999201, 1.699999999999999956, 0.8000000000000002665 ) ) ;
#1119 = AXIS2_PLACEMENT_3D ( 'NONE', #527, #1225, #541 ) ;
#1120 = CARTESIAN_POINT ( 'NONE',  ( 0.0000000000000000000, 1.619999999999999885, 0.7200000000000003064 ) ) ;
#1121 = DIRECTION ( 'NONE',  ( -1.000000000000000000, 0.0000000000000000000, 0.0000000000000000000 ) ) ;
#1122 = VECTOR ( 'NONE', #468, 1000.000000000000000 ) ;
#1123 = ORIENTED_EDGE ( 'NONE', *, *, #764, .F. ) ;
#1124 = DIRECTION ( 'NONE',  ( 0.0000000000000000000, 0.0000000000000000000, 1.000000000000000000 ) ) ;
#1125 = CIRCLE ( 'NONE', #1119, 0.07999999999999998779 ) ;
#1126 = VERTEX_POINT ( 'NONE', #57 ) ;
#1127 = DIRECTION ( 'NONE',  ( 0.0000000000000000000, 0.0000000000000000000, 1.000000000000000000 ) ) ;
#1128 = ORIENTED_EDGE ( 'NONE', *, *, #871, .T. ) ;
#1129 = CARTESIAN_POINT ( 'NONE',  ( -1.599999999999999867, 1.699999999999999956, -0.7999999999999996003 ) ) ;
#1130 = ORIENTED_EDGE ( 'NONE', *, *, #246, .T. ) ;
#1131 = DIRECTION ( 'NONE',  ( -1.000000000000000000, 0.0000000000000000000, 0.0000000000000000000 ) ) ;
#1132 = PLANE ( 'NONE',  #1247 ) ;
#1133 = DIRECTION ( 'NONE',  ( 1.000000000000000000, 0.0000000000000000000, -0.0000000000000000000 ) ) ;
#1134 = DIRECTION ( 'NONE',  ( 1.000000000000000000, 0.0000000000000000000, -8.673617379884036705E-17 ) ) ;
#1135 = EDGE_CURVE ( 'NONE', #530, #618, #210, .T. ) ;
#1136 = CARTESIAN_POINT ( 'NONE',  ( -1.520000000000000018, 1.699999999999999956, -0.7199999999999996403 ) ) ;
#1137 = FACE_OUTER_BOUND ( 'NONE', #313, .T. ) ;
#1138 = DIRECTION ( 'NONE',  ( 0.0000000000000000000, 0.0000000000000000000, 1.000000000000000000 ) ) ;
#1139 = CARTESIAN_POINT ( 'NONE',  ( 1.599999999999999201, 0.07999999999999998779, 0.7200000000000003064 ) ) ;
#1140 = LINE ( 'NONE', #738, #755 ) ;
#1141 = PLANE ( 'NONE',  #664 ) ;
#1142 = FACE_OUTER_BOUND ( 'NONE', #107, .T. ) ;
#1143 = CARTESIAN_POINT ( 'NONE',  ( -1.519999999999999130, 1.619999999999999885, 0.7200000000000003064 ) ) ;
#1144 = EDGE_CURVE ( 'NONE', #363, #523, #833, .T. ) ;
#1145 = VERTEX_POINT ( 'NONE', #1035 ) ;
#1146 = AXIS2_PLACEMENT_3D ( 'NONE', #881, #206, #589 ) ;
#1147 = ORIENTED_EDGE ( 'NONE', *, *, #1144, .T. ) ;
#1148 = VERTEX_POINT ( 'NONE', #632 ) ;
#1149 = ORIENTED_EDGE ( 'NONE', *, *, #48, .T. ) ;
#1150 = CARTESIAN_POINT ( 'NONE',  ( 1.094999999999999307, 0.0000000000000000000, -0.7199999999999996403 ) ) ;
#1151 = AXIS2_PLACEMENT_3D ( 'NONE', #794, #512, #8 ) ;
#1152 = CYLINDRICAL_SURFACE ( 'NONE', #357, 0.07999999999999998779 ) ;
#1153 = LINE ( 'NONE', #646, #255 ) ;
#1154 = DIRECTION ( 'NONE',  ( 1.000000000000000000, 0.0000000000000000000, 1.355252715606880789E-16 ) ) ;
#1155 = ORIENTED_EDGE ( 'NONE', *, *, #281, .T. ) ;
#1156 = CARTESIAN_POINT ( 'NONE',  ( -1.094999999999999307, 0.02666666666666668573, 0.7199999999999998623 ) ) ;
#1157 = EDGE_CURVE ( 'NONE', #1203, #1148, #561, .T. ) ;
#1158 = CARTESIAN_POINT ( 'NONE',  ( -1.519999999999999130, 1.699999999999999956, 0.8000000000000002665 ) ) ;
#1159 = ORIENTED_EDGE ( 'NONE', *, *, #969, .T. ) ;
#1160 = ORIENTED_EDGE ( 'NONE', *, *, #966, .T. ) ;
#1161 = LINE ( 'NONE', #1073, #302 ) ;
#1162 = CARTESIAN_POINT ( 'NONE',  ( 500000.0000000000582, 0.02666666666666666491, -0.7200000000433673941 ) ) ;
#1163 = CARTESIAN_POINT ( 'NONE',  ( 0.0000000000000000000, 1.699999999999999956, 0.0000000000000000000 ) ) ;
#1164 = FACE_OUTER_BOUND ( 'NONE', #994, .T. ) ;
#1165 = AXIS2_PLACEMENT_3D ( 'NONE', #149, #346, #635 ) ;
#1166 = CARTESIAN_POINT ( 'NONE',  ( -1.094999999999999085, 1.699999999999999956, 0.7200000000000003064 ) ) ;
#1167 = CYLINDRICAL_SURFACE ( 'NONE', #605, 0.07999999999999998779 ) ;
#1168 = DIRECTION ( 'NONE',  ( 0.0000000000000000000, 0.0000000000000000000, 1.000000000000000000 ) ) ;
#1169 = LINE ( 'NONE', #509, #270 ) ;
#1170 = DIRECTION ( 'NONE',  ( 0.0000000000000000000, -1.000000000000000000, 0.0000000000000000000 ) ) ;
#1171 = ORIENTED_EDGE ( 'NONE', *, *, #707, .F. ) ;
#1172 = CARTESIAN_POINT ( 'NONE',  ( -1.094999999999999307, 0.07999999999999998779, -0.7733333333333328730 ) ) ;
#1173 = STYLED_ITEM ( 'NONE', ( #1032 ), #699 ) ;
#1174 = ORIENTED_EDGE ( 'NONE', *, *, #980, .F. ) ;
#1175 = DIRECTION ( 'NONE',  ( 0.0000000000000000000, 0.0000000000000000000, -1.000000000000000000 ) ) ;
#1176 = CARTESIAN_POINT ( 'NONE',  ( 500000.0000000000582, 0.02666666666666666491, 0.7199999999566316644 ) ) ;
#1177 = PLANE ( 'NONE',  #423 ) ;
#1178 = DIRECTION ( 'NONE',  ( -1.000000000000000000, -0.0000000000000000000, 8.673617379884036705E-17 ) ) ;
#1179 = LINE ( 'NONE', #65, #305 ) ;
#1180 = DIRECTION ( 'NONE',  ( 1.000000000000000000, -0.0000000000000000000, -0.0000000000000000000 ) ) ;
#1181 = ADVANCED_FACE ( 'NONE', ( #466 ), #1167, .T. ) ;
#1182 = CARTESIAN_POINT ( 'NONE',  ( 1.519999999999999352, 1.699999999999999956, 0.8000000000000002665 ) ) ;
#1183 = AXIS2_PLACEMENT_3D ( 'NONE', #439, #532, #1234 ) ;
#1184 = CARTESIAN_POINT ( 'NONE',  ( 1.599999999999999201, 1.619999999999999885, 0.7200000000000003064 ) ) ;
#1185 = SURFACE_STYLE_FILL_AREA ( #651 ) ;
#1186 = EDGE_LOOP ( 'NONE', ( #723, #1201, #76, #408 ) ) ;
#1187 = STYLED_ITEM ( 'NONE', ( #1078 ), #719 ) ;
#1188 = CARTESIAN_POINT ( 'NONE',  ( -1.094999999999999307, 0.08000000000000043188, 0.7733333333333335391 ) ) ;
#1189 = CIRCLE ( 'NONE', #204, 0.05333333333333329512 ) ;
#1190 = VECTOR ( 'NONE', #361, 1000.000000000000000 ) ;
#1191 = CARTESIAN_POINT ( 'NONE',  ( 1.094999999999999085, 1.699999999999999956, 0.8000000000000002665 ) ) ;
#1192 =( NAMED_UNIT ( * ) SI_UNIT ( $, .STERADIAN. ) SOLID_ANGLE_UNIT ( ) );
#1193 = FACE_OUTER_BOUND ( 'NONE', #117, .T. ) ;
#1194 = ORIENTED_EDGE ( 'NONE', *, *, #636, .T. ) ;
#1195 = EDGE_CURVE ( 'NONE', #399, #150, #675, .T. ) ;
#1196 = PLANE ( 'NONE',  #824 ) ;
#1197 = AXIS2_PLACEMENT_3D ( 'NONE', #395, #214, #493 ) ;
#1198 = ADVANCED_FACE ( 'NONE', ( #160 ), #1236, .F. ) ;
#1199 = DIRECTION ( 'NONE',  ( 0.0000000000000000000, 0.0000000000000000000, -1.000000000000000000 ) ) ;
#1200 = CARTESIAN_POINT ( 'NONE',  ( -1.519999999999999130, 0.07999999999999998779, 0.7200000000000003064 ) ) ;
#1201 = ORIENTED_EDGE ( 'NONE', *, *, #218, .T. ) ;
#1202 = DIRECTION ( 'NONE',  ( -0.0000000000000000000, -0.0000000000000000000, -1.000000000000000000 ) ) ;
#1203 = VERTEX_POINT ( 'NONE', #148 ) ;
#1204 = LINE ( 'NONE', #917, #770 ) ;
#1205 = EDGE_CURVE ( 'NONE', #243, #585, #641, .T. ) ;
#1206 = DIRECTION ( 'NONE',  ( -1.000000000000000000, 2.710505431213761479E-15, -0.0000000000000000000 ) ) ;
#1207 = SURFACE_STYLE_FILL_AREA ( #581 ) ;
#1208 = CIRCLE ( 'NONE', #865, 0.07999999999999998779 ) ;
#1209 = PRESENTATION_STYLE_ASSIGNMENT (( #1246 ) ) ;
#1210 = PLANE ( 'NONE',  #477 ) ;
#1211 = ORIENTED_EDGE ( 'NONE', *, *, #558, .F. ) ;
#1212 = ADVANCED_FACE ( 'NONE', ( #907 ), #1031, .F. ) ;
#1213 = DIRECTION ( 'NONE',  ( 1.000000000000000000, 0.0000000000000000000, 0.0000000000000000000 ) ) ;
#1214 = VERTEX_POINT ( 'NONE', #746 ) ;
#1215 = EDGE_CURVE ( 'NONE', #295, #933, #960, .T. ) ;
#1216 = AXIS2_PLACEMENT_3D ( 'NONE', #258, #529, #1131 ) ;
#1217 = VECTOR ( 'NONE', #709, 1000.000000000000000 ) ;
#1218 = UNCERTAINTY_MEASURE_WITH_UNIT (LENGTH_MEASURE( 1.000000000000000082E-05 ), #677, 'distance_accuracy_value', 'NONE');
#1219 = ORIENTED_EDGE ( 'NONE', *, *, #1251, .F. ) ;
#1220 = LINE ( 'NONE', #855, #116 ) ;
#1221 = ORIENTED_EDGE ( 'NONE', *, *, #745, .F. ) ;
#1222 = VECTOR ( 'NONE', #1055, 1000.000000000000000 ) ;
#1223 = DIRECTION ( 'NONE',  ( -1.000000000000000000, -0.0000000000000000000, -0.0000000000000000000 ) ) ;
#1224 = FACE_OUTER_BOUND ( 'NONE', #49, .T. ) ;
#1225 = DIRECTION ( 'NONE',  ( 1.000000000000000000, 0.0000000000000000000, 1.355252715606880789E-16 ) ) ;
#1226 = DIRECTION ( 'NONE',  ( -1.000000000000000000, 0.0000000000000000000, 0.0000000000000000000 ) ) ;
#1227 = EDGE_LOOP ( 'NONE', ( #123, #503, #840, #199 ) ) ;
#1228 = CARTESIAN_POINT ( 'NONE',  ( 1.519999999999999130, 0.08000000000000000167, 0.7200000000000003064 ) ) ;
#1229 = DIRECTION ( 'NONE',  ( -1.000000000000000000, -0.0000000000000000000, -0.0000000000000000000 ) ) ;
#1230 = CARTESIAN_POINT ( 'NONE',  ( -1.519999999999999574, 0.0000000000000000000, 6.179952383167375274E-16 ) ) ;
#1231 = EDGE_CURVE ( 'NONE', #335, #820, #1220, .T. ) ;
#1232 = DIRECTION ( 'NONE',  ( -1.000000000000000000, -0.0000000000000000000, 8.673617379884036705E-17 ) ) ;
#1233 = AXIS2_PLACEMENT_3D ( 'NONE', #438, #320, #1199 ) ;
#1234 = DIRECTION ( 'NONE',  ( 0.0000000000000000000, 0.0000000000000000000, 1.000000000000000000 ) ) ;
#1235 = ORIENTED_EDGE ( 'NONE', *, *, #69, .F. ) ;
#1236 = PLANE ( 'NONE',  #992 ) ;
#1237 = DIRECTION ( 'NONE',  ( -1.000000000000000000, 0.0000000000000000000, -0.0000000000000000000 ) ) ;
#1238 = ORIENTED_EDGE ( 'NONE', *, *, #564, .T. ) ;
#1239 = EDGE_LOOP ( 'NONE', ( #415, #307, #351, #84 ) ) ;
#1240 = VECTOR ( 'NONE', #1022, 1000.000000000000000 ) ;
#1241 = CIRCLE ( 'NONE', #73, 0.07999999999999998779 ) ;
#1242 = FACE_OUTER_BOUND ( 'NONE', #231, .T. ) ;
#1243 = EDGE_LOOP ( 'NONE', ( #559, #376, #1130, #329 ) ) ;
#1244 = DIRECTION ( 'NONE',  ( 0.0000000000000000000, -1.000000000000000000, 0.0000000000000000000 ) ) ;
#1245 = ORIENTED_EDGE ( 'NONE', *, *, #10, .F. ) ;
#1246 = SURFACE_STYLE_USAGE ( .BOTH. , #663 ) ;
#1247 = AXIS2_PLACEMENT_3D ( 'NONE', #739, #891, #1115 ) ;
#1248 = ORIENTED_EDGE ( 'NONE', *, *, #348, .T. ) ;
#1249 = CYLINDRICAL_SURFACE ( 'NONE', #588, 0.07999999999999998779 ) ;
#1250 = CIRCLE ( 'NONE', #566, 0.07999999999999998779 ) ;
#1251 = EDGE_CURVE ( 'NONE', #940, #327, #892, .T. ) ;
#1252 = PRESENTATION_LAYER_ASSIGNMENT (  '', '', ( #1187 ) ) ;
#1253 = ORIENTED_EDGE ( 'NONE', *, *, #1003, .T. ) ;
#1254 = DIRECTION ( 'NONE',  ( 4.065758146820642614E-16, 0.0000000000000000000, -1.000000000000000000 ) ) ;
#1255 = CARTESIAN_POINT ( 'NONE',  ( 1.519999999999999796, 0.07999999999999998779, -0.7999999999999996003 ) ) ;
#1256 = FILL_AREA_STYLE ('',( #639 ) ) ;
#1257 = EDGE_CURVE ( 'NONE', #295, #1010, #623, .T. ) ;
#1258 = CARTESIAN_POINT ( 'NONE',  ( -1.094999999999999307, 1.619999999999999885, 0.7733333333333335391 ) ) ;
#1259 = APPLICATION_CONTEXT ( 'automotive_design' ) ;
#1260 = AXIS2_PLACEMENT_3D ( 'NONE', #101, #875, #1273 ) ;
#1261 = ORIENTED_EDGE ( 'NONE', *, *, #226, .T. ) ;
#1262 = DIRECTION ( 'NONE',  ( -1.000000000000000000, 0.0000000000000000000, 0.0000000000000000000 ) ) ;
#1263 = ORIENTED_EDGE ( 'NONE', *, *, #218, .F. ) ;
#1264 = ORIENTED_EDGE ( 'NONE', *, *, #1059, .T. ) ;
#1265 = FACE_OUTER_BOUND ( 'NONE', #1114, .T. ) ;
#1266 = CIRCLE ( 'NONE', #700, 0.07999999999999998779 ) ;
#1267 = DIRECTION ( 'NONE',  ( -1.000000000000000000, -0.0000000000000000000, 8.673617379884036705E-17 ) ) ;
#1268 = EDGE_CURVE ( 'NONE', #843, #484, #752, .T. ) ;
#1269 = ORIENTED_EDGE ( 'NONE', *, *, #1003, .F. ) ;
#1270 = EDGE_LOOP ( 'NONE', ( #555, #649, #1016, #1149 ) ) ;
#1271 = ORIENTED_EDGE ( 'NONE', *, *, #782, .T. ) ;
#1272 = EDGE_CURVE ( 'NONE', #295, #164, #847, .T. ) ;
#1273 = DIRECTION ( 'NONE',  ( 0.0000000000000000000, 0.0000000000000000000, 1.000000000000000000 ) ) ;
#1274 = AXIS2_PLACEMENT_3D ( 'NONE', #353, #1134, #643 ) ;
#1275 = LINE ( 'NONE', #1011, #235 ) ;
#1276 = EDGE_LOOP ( 'NONE', ( #884, #568, #233 ) ) ;
#1277 = ADVANCED_FACE ( 'NONE', ( #398 ), #1047, .T. ) ;
#1278 = ORIENTED_EDGE ( 'NONE', *, *, #120, .T. ) ;
#1279 = PRESENTATION_STYLE_ASSIGNMENT (( #213 ) ) ;
#1280 = DIRECTION ( 'NONE',  ( 0.0000000000000000000, 0.0000000000000000000, 1.000000000000000000 ) ) ;
ENDSEC;
END-ISO-10303-21;
