ISO-10303-21;
HEADER;
FILE_DESCRIPTION (( 'STEP AP214' ),
    '1' );
FILE_NAME ('TNPW0805422KBYEN.STEP',
    '2019-12-25T14:11:29',
    ( '' ),
    ( '' ),
    'SwSTEP 2.0',
    'SolidWorks 2018',
    '' );
FILE_SCHEMA (( 'AUTOMOTIVE_DESIGN' ));
ENDSEC;

DATA;
#1 = ORIENTED_EDGE ( 'NONE', *, *, #736, .F. ) ;
#2 = DIRECTION ( 'NONE',  ( 0.0000000000000000000, -0.0000000000000000000, -1.000000000000000000 ) ) ;
#3 = ORIENTED_EDGE ( 'NONE', *, *, #593, .T. ) ;
#4 = DIRECTION ( 'NONE',  ( 6.776263578034404685E-16, -6.678945175126636653E-32, 1.000000000000000000 ) ) ;
#5 = ORIENTED_EDGE ( 'NONE', *, *, #780, .F. ) ;
#6 = EDGE_LOOP ( 'NONE', ( #769, #326, #490, #306, #261, #260, #288, #596 ) ) ;
#7 = DIRECTION ( 'NONE',  ( 1.000000000000000000, -1.182435255227479537E-16, 0.0000000000000000000 ) ) ;
#8 = EDGE_CURVE ( 'NONE', #850, #549, #667, .T. ) ;
#9 = VECTOR ( 'NONE', #2, 1000.000000000000000 ) ;
#10 = COLOUR_RGB ( '',0.7921568627450980005, 0.8196078431372548767, 0.9333333333333333481 ) ;
#11 = DIRECTION ( 'NONE',  ( -1.000000000000000000, 9.856383386231860060E-17, -1.734723475976807341E-16 ) ) ;
#12 = LINE ( 'NONE', #610, #783 ) ;
#13 = DIRECTION ( 'NONE',  ( -0.0000000000000000000, 0.0000000000000000000, 1.000000000000000000 ) ) ;
#14 = AXIS2_PLACEMENT_3D ( 'NONE', #864, #358, #177 ) ;
#15 = ORIENTED_EDGE ( 'NONE', *, *, #560, .T. ) ;
#16 = DIRECTION ( 'NONE',  ( -1.000000000000000000, 0.0000000000000000000, -0.0000000000000000000 ) ) ;
#17 = ORIENTED_EDGE ( 'NONE', *, *, #1033, .F. ) ;
#18 = ORIENTED_EDGE ( 'NONE', *, *, #464, .F. ) ;
#19 = VECTOR ( 'NONE', #1122, 1000.000000000000000 ) ;
#20 = DIRECTION ( 'NONE',  ( 0.0000000000000000000, -0.0000000000000000000, -1.000000000000000000 ) ) ;
#21 = DIRECTION ( 'NONE',  ( 0.0000000000000000000, -1.000000000000000000, -0.0000000000000000000 ) ) ;
#22 = EDGE_CURVE ( 'NONE', #72, #631, #569, .T. ) ;
#23 = FACE_OUTER_BOUND ( 'NONE', #1023, .T. ) ;
#24 = VECTOR ( 'NONE', #1151, 1000.000000000000000 ) ;
#25 = LINE ( 'NONE', #564, #983 ) ;
#26 = CARTESIAN_POINT ( 'NONE',  ( 0.9724999999999995870, 0.02750000000000011810, -0.6250000000000000000 ) ) ;
#27 = DIRECTION ( 'NONE',  ( 0.0000000000000000000, -0.0000000000000000000, -1.000000000000000000 ) ) ;
#28 = ORIENTED_EDGE ( 'NONE', *, *, #189, .F. ) ;
#29 = ADVANCED_FACE ( 'NONE', ( #65 ), #881, .F. ) ;
#30 = VERTEX_POINT ( 'NONE', #692 ) ;
#31 = DIRECTION ( 'NONE',  ( 0.0000000000000000000, 1.000000000000000000, 0.0000000000000000000 ) ) ;
#32 = ORIENTED_EDGE ( 'NONE', *, *, #22, .T. ) ;
#33 = ORIENTED_EDGE ( 'NONE', *, *, #8, .F. ) ;
#34 = VERTEX_POINT ( 'NONE', #270 ) ;
#35 = VERTEX_POINT ( 'NONE', #821 ) ;
#36 = LINE ( 'NONE', #355, #966 ) ;
#37 = CARTESIAN_POINT ( 'NONE',  ( 0.9724999999999995870, 0.02750000000000012504, -0.6250000000000001110 ) ) ;
#38 = DIRECTION ( 'NONE',  ( -0.0000000000000000000, 1.000000000000000000, -0.0000000000000000000 ) ) ;
#39 = CARTESIAN_POINT ( 'NONE',  ( -0.5999999999999996447, 0.0000000000000000000, 0.6250000000000000000 ) ) ;
#40 = EDGE_CURVE ( 'NONE', #34, #480, #36, .T. ) ;
#41 = LINE ( 'NONE', #684, #739 ) ;
#42 = CARTESIAN_POINT ( 'NONE',  ( 0.7600000000000002309, 0.5224999999999997424, 0.6249999999999997780 ) ) ;
#43 = PLANE ( 'NONE',  #439 ) ;
#44 = ADVANCED_FACE ( 'NONE', ( #366 ), #1222, .F. ) ;
#45 = PLANE ( 'NONE',  #1011 ) ;
#46 = EDGE_CURVE ( 'NONE', #671, #802, #1032, .T. ) ;
#47 = VERTEX_POINT ( 'NONE', #185 ) ;
#48 = DIRECTION ( 'NONE',  ( 9.856383386231860060E-17, 1.000000000000000000, -0.0000000000000000000 ) ) ;
#49 = AXIS2_PLACEMENT_3D ( 'NONE', #419, #972, #53 ) ;
#50 = CARTESIAN_POINT ( 'NONE',  ( -0.5999999999999996447, 0.0000000000000000000, 0.6250000000000000000 ) ) ;
#51 = LINE ( 'NONE', #1180, #327 ) ;
#52 = UNCERTAINTY_MEASURE_WITH_UNIT (LENGTH_MEASURE( 1.000000000000000082E-05 ), #1019, 'distance_accuracy_value', 'NONE');
#53 = DIRECTION ( 'NONE',  ( 0.0000000000000000000, 0.0000000000000000000, 1.000000000000000000 ) ) ;
#54 = FILL_AREA_STYLE_COLOUR ( '', #290 ) ;
#55 = VERTEX_POINT ( 'NONE', #1029 ) ;
#56 = DIRECTION ( 'NONE',  ( 0.0000000000000000000, -0.0000000000000000000, -1.000000000000000000 ) ) ;
#57 = ORIENTED_EDGE ( 'NONE', *, *, #90, .F. ) ;
#58 = CARTESIAN_POINT ( 'NONE',  ( 0.9724999999999995870, 0.02750000000000011810, 0.6250000000000000000 ) ) ;
#59 = EDGE_CURVE ( 'NONE', #184, #476, #465, .T. ) ;
#60 = ORIENTED_EDGE ( 'NONE', *, *, #919, .T. ) ;
#61 = CARTESIAN_POINT ( 'NONE',  ( -0.5999999999999996447, 0.0000000000000000000, 0.6250000000000000000 ) ) ;
#62 = PRODUCT_DEFINITION_SHAPE ( 'NONE', 'NONE',  #623 ) ;
#63 = DIRECTION ( 'NONE',  ( 0.0000000000000000000, 1.000000000000000000, 0.0000000000000000000 ) ) ;
#64 = VERTEX_POINT ( 'NONE', #831 ) ;
#65 = FACE_OUTER_BOUND ( 'NONE', #551, .T. ) ;
#66 = DIRECTION ( 'NONE',  ( 9.856383386231860060E-17, 1.000000000000000000, 0.0000000000000000000 ) ) ;
#67 = PRESENTATION_LAYER_ASSIGNMENT (  '', '', ( #740 ) ) ;
#68 = CARTESIAN_POINT ( 'NONE',  ( -0.9724999999999995870, 0.02750000000000011810, -2.632000249128035207 ) ) ;
#69 = EDGE_CURVE ( 'NONE', #35, #436, #776, .T. ) ;
#70 = CARTESIAN_POINT ( 'NONE',  ( 0.7600000000000002309, 0.5224999999999999645, 0.6250000000000000000 ) ) ;
#71 = DIRECTION ( 'NONE',  ( -9.856383386231860060E-17, -1.000000000000000000, 0.0000000000000000000 ) ) ;
#72 = VERTEX_POINT ( 'NONE', #448 ) ;
#73 = DIRECTION ( 'NONE',  ( -1.000000000000000000, 0.0000000000000000000, 0.0000000000000000000 ) ) ;
#74 = AXIS2_PLACEMENT_3D ( 'NONE', #521, #691, #926 ) ;
#75 = DIRECTION ( 'NONE',  ( 1.000000000000000000, 0.0000000000000000000, 0.0000000000000000000 ) ) ;
#76 = AXIS2_PLACEMENT_3D ( 'NONE', #325, #542, #619 ) ;
#77 = LINE ( 'NONE', #1026, #19 ) ;
#78 = ORIENTED_EDGE ( 'NONE', *, *, #830, .F. ) ;
#79 = SURFACE_STYLE_USAGE ( .BOTH. , #370 ) ;
#80 = FACE_OUTER_BOUND ( 'NONE', #375, .T. ) ;
#81 = LINE ( 'NONE', #96, #875 ) ;
#82 =( GEOMETRIC_REPRESENTATION_CONTEXT ( 3 ) GLOBAL_UNCERTAINTY_ASSIGNED_CONTEXT ( ( #728 ) ) GLOBAL_UNIT_ASSIGNED_CONTEXT ( ( #1001, #697, #341 ) ) REPRESENTATION_CONTEXT ( 'NONE', 'WORKASPACE' ) );
#83 = PLANE ( 'NONE',  #518 ) ;
#84 = VECTOR ( 'NONE', #741, 1000.000000000000000 ) ;
#85 = DIRECTION ( 'NONE',  ( -1.000000000000000000, 0.0000000000000000000, 0.0000000000000000000 ) ) ;
#86 = CARTESIAN_POINT ( 'NONE',  ( 0.9999999999999995559, -1.224646799147352468E-16, 0.6250000000000000000 ) ) ;
#87 = DIRECTION ( 'NONE',  ( -3.061616997868381662E-16, 1.000000000000000000, 0.0000000000000000000 ) ) ;
#88 = CARTESIAN_POINT ( 'NONE',  ( -0.7599999999999997868, 0.5224999999999999645, 0.6250000000000000000 ) ) ;
#89 = EDGE_LOOP ( 'NONE', ( #1128, #117, #573, #1055 ) ) ;
#90 = EDGE_CURVE ( 'NONE', #802, #605, #563, .T. ) ;
#91 = ORIENTED_EDGE ( 'NONE', *, *, #121, .F. ) ;
#92 = CARTESIAN_POINT ( 'NONE',  ( -0.9724999999999995870, 0.5224999999999999645, -0.6250000000000000000 ) ) ;
#93 = ORIENTED_EDGE ( 'NONE', *, *, #758, .T. ) ;
#94 = ORIENTED_EDGE ( 'NONE', *, *, #947, .F. ) ;
#95 = CARTESIAN_POINT ( 'NONE',  ( -0.5999999999999998668, 0.5500000000000000444, 0.4166666666666666297 ) ) ;
#96 = CARTESIAN_POINT ( 'NONE',  ( 0.9724999999999995870, 0.02750000000000012504, -0.6250000000000001110 ) ) ;
#97 = ORIENTED_EDGE ( 'NONE', *, *, #626, .T. ) ;
#98 = CARTESIAN_POINT ( 'NONE',  ( -0.5999999999999996447, 0.5224999999999999645, -0.6250000000000000000 ) ) ;
#99 = PRODUCT_DEFINITION_CONTEXT ( 'detailed design', #1022, 'design' ) ;
#100 = ORIENTED_EDGE ( 'NONE', *, *, #780, .T. ) ;
#101 = STYLED_ITEM ( 'NONE', ( #998 ), #1141 ) ;
#102 = DIRECTION ( 'NONE',  ( 6.776263578034404685E-16, -6.678945175126636653E-32, 1.000000000000000000 ) ) ;
#103 = EDGE_CURVE ( 'NONE', #613, #1158, #654, .T. ) ;
#104 = VECTOR ( 'NONE', #114, 1000.000000000000000 ) ;
#105 = LINE ( 'NONE', #687, #132 ) ;
#106 = ADVANCED_FACE ( 'NONE', ( #408 ), #488, .F. ) ;
#107 = CARTESIAN_POINT ( 'NONE',  ( -0.9724999999999995870, 0.02750000000000011810, 0.6250000000000000000 ) ) ;
#108 = CARTESIAN_POINT ( 'NONE',  ( -0.7599999999999997868, 0.5224999999999999645, 0.6250000000000000000 ) ) ;
#109 = FACE_OUTER_BOUND ( 'NONE', #975, .T. ) ;
#110 = DIRECTION ( 'NONE',  ( -0.0000000000000000000, -0.0000000000000000000, -1.000000000000000000 ) ) ;
#111 = PLANE ( 'NONE',  #300 ) ;
#112 = ORIENTED_EDGE ( 'NONE', *, *, #963, .F. ) ;
#113 = ORIENTED_EDGE ( 'NONE', *, *, #59, .T. ) ;
#114 = DIRECTION ( 'NONE',  ( -0.0000000000000000000, -0.0000000000000000000, -1.000000000000000000 ) ) ;
#115 = ORIENTED_EDGE ( 'NONE', *, *, #308, .F. ) ;
#116 = EDGE_CURVE ( 'NONE', #277, #432, #540, .T. ) ;
#117 = ORIENTED_EDGE ( 'NONE', *, *, #805, .F. ) ;
#118 = ORIENTED_EDGE ( 'NONE', *, *, #1207, .F. ) ;
#119 = PLANE ( 'NONE',  #1168 ) ;
#120 = CARTESIAN_POINT ( 'NONE',  ( 0.5999999999999996447, 0.5499999999999999334, 0.6250000000000000000 ) ) ;
#121 = EDGE_CURVE ( 'NONE', #1059, #209, #191, .T. ) ;
#122 = ORIENTED_EDGE ( 'NONE', *, *, #212, .F. ) ;
#123 = CARTESIAN_POINT ( 'NONE',  ( -0.9724999999999995870, 0.02750000000000011810, 0.6250000000000000000 ) ) ;
#124 = CARTESIAN_POINT ( 'NONE',  ( 0.9724999999999995870, 0.02750000000000011810, 0.6250000000000000000 ) ) ;
#125 = ORIENTED_EDGE ( 'NONE', *, *, #585, .F. ) ;
#126 = VERTEX_POINT ( 'NONE', #231 ) ;
#127 = ADVANCED_FACE ( 'NONE', ( #296 ), #83, .F. ) ;
#128 = MECHANICAL_DESIGN_GEOMETRIC_PRESENTATION_REPRESENTATION (  '', ( #398 ), #504 ) ;
#129 = DIRECTION ( 'NONE',  ( -1.000000000000000000, -0.0000000000000000000, -0.0000000000000000000 ) ) ;
#130 = PLANE ( 'NONE',  #1138 ) ;
#131 = LINE ( 'NONE', #899, #1058 ) ;
#132 = VECTOR ( 'NONE', #322, 1000.000000000000000 ) ;
#133 = CARTESIAN_POINT ( 'NONE',  ( 0.6000000000000003109, 0.5499999999999998224, 0.4166666666666664631 ) ) ;
#134 = DIRECTION ( 'NONE',  ( 0.0000000000000000000, -0.0000000000000000000, -1.000000000000000000 ) ) ;
#135 = SURFACE_STYLE_FILL_AREA ( #967 ) ;
#136 = EDGE_LOOP ( 'NONE', ( #112, #1085, #152, #213 ) ) ;
#137 = AXIS2_PLACEMENT_3D ( 'NONE', #501, #1184, #1103 ) ;
#138 = ORIENTED_EDGE ( 'NONE', *, *, #690, .T. ) ;
#139 = DIRECTION ( 'NONE',  ( 0.0000000000000000000, 0.0000000000000000000, -1.000000000000000000 ) ) ;
#140 = VECTOR ( 'NONE', #392, 1000.000000000000000 ) ;
#141 = VERTEX_POINT ( 'NONE', #386 ) ;
#142 = DIRECTION ( 'NONE',  ( 9.856383386231860060E-17, 1.000000000000000000, -0.0000000000000000000 ) ) ;
#143 = ORIENTED_EDGE ( 'NONE', *, *, #1045, .T. ) ;
#144 = EDGE_CURVE ( 'NONE', #153, #126, #750, .T. ) ;
#145 = CARTESIAN_POINT ( 'NONE',  ( 0.7600000000000002309, 0.5224999999999997424, 0.6249999999999997780 ) ) ;
#146 = VECTOR ( 'NONE', #206, 1000.000000000000000 ) ;
#147 = DIRECTION ( 'NONE',  ( -0.0000000000000000000, 0.0000000000000000000, -1.000000000000000000 ) ) ;
#148 = DIRECTION ( 'NONE',  ( 9.856383386231860060E-17, 1.000000000000000000, -0.0000000000000000000 ) ) ;
#149 = ORIENTED_EDGE ( 'NONE', *, *, #787, .F. ) ;
#150 = ORIENTED_EDGE ( 'NONE', *, *, #669, .F. ) ;
#151 = EDGE_CURVE ( 'NONE', #215, #997, #1012, .T. ) ;
#152 = ORIENTED_EDGE ( 'NONE', *, *, #539, .T. ) ;
#153 = VERTEX_POINT ( 'NONE', #382 ) ;
#154 = CARTESIAN_POINT ( 'NONE',  ( 0.7600000000000002309, 0.5499999999999998224, 0.6249999999999997780 ) ) ;
#155 = LINE ( 'NONE', #962, #1071 ) ;
#156 = LINE ( 'NONE', #264, #483 ) ;
#157 = LINE ( 'NONE', #757, #146 ) ;
#158 = LINE ( 'NONE', #92, #194 ) ;
#159 = LINE ( 'NONE', #334, #617 ) ;
#160 = EDGE_CURVE ( 'NONE', #310, #395, #462, .T. ) ;
#161 = DIRECTION ( 'NONE',  ( 0.0000000000000000000, 1.000000000000000000, 0.0000000000000000000 ) ) ;
#162 = DIRECTION ( 'NONE',  ( 0.0000000000000000000, 0.0000000000000000000, 1.000000000000000000 ) ) ;
#163 = ORIENTED_EDGE ( 'NONE', *, *, #1223, .T. ) ;
#164 = DIRECTION ( 'NONE',  ( -1.000000000000000000, 0.0000000000000000000, 0.0000000000000000000 ) ) ;
#165 = ORIENTED_EDGE ( 'NONE', *, *, #846, .F. ) ;
#166 = VERTEX_POINT ( 'NONE', #570 ) ;
#167 = DIRECTION ( 'NONE',  ( 0.0000000000000000000, -0.0000000000000000000, -1.000000000000000000 ) ) ;
#168 = FACE_OUTER_BOUND ( 'NONE', #6, .T. ) ;
#169 = VERTEX_POINT ( 'NONE', #26 ) ;
#170 = CARTESIAN_POINT ( 'NONE',  ( -0.9724999999999995870, 0.02750000000000011810, 0.6250000000000000000 ) ) ;
#171 = CARTESIAN_POINT ( 'NONE',  ( -0.9999999999999995559, -1.224646799147352468E-16, 0.6250000000000000000 ) ) ;
#172 = ORIENTED_EDGE ( 'NONE', *, *, #1052, .T. ) ;
#173 = LINE ( 'NONE', #1170, #1202 ) ;
#174 = CLOSED_SHELL ( 'NONE', ( #106, #835, #944, #200, #640, #566, #1177, #305, #380, #373, #746, #1173, #971, #1109 ) ) ;
#175 = VECTOR ( 'NONE', #66, 1000.000000000000000 ) ;
#176 = DIRECTION ( 'NONE',  ( 0.0000000000000000000, -1.000000000000000000, -0.0000000000000000000 ) ) ;
#177 = DIRECTION ( 'NONE',  ( 1.000000000000000000, -3.061616997868381662E-16, 0.0000000000000000000 ) ) ;
#178 = DIRECTION ( 'NONE',  ( 0.0000000000000000000, 0.0000000000000000000, -1.000000000000000000 ) ) ;
#179 = AXIS2_PLACEMENT_3D ( 'NONE', #505, #666, #1062 ) ;
#180 = VECTOR ( 'NONE', #388, 1000.000000000000000 ) ;
#181 = PLANE ( 'NONE',  #772 ) ;
#182 = CARTESIAN_POINT ( 'NONE',  ( -0.9724999999999995870, 0.02750000000000011810, 0.6250000000000000000 ) ) ;
#183 = LINE ( 'NONE', #201, #880 ) ;
#184 = VERTEX_POINT ( 'NONE', #655 ) ;
#185 = CARTESIAN_POINT ( 'NONE',  ( 0.6000000000000003109, 0.5499999999999998224, -0.4166666666666665741 ) ) ;
#186 = MECHANICAL_DESIGN_GEOMETRIC_PRESENTATION_REPRESENTATION (  '', ( #101 ), #82 ) ;
#187 = ORIENTED_EDGE ( 'NONE', *, *, #278, .F. ) ;
#188 = ADVANCED_FACE ( 'NONE', ( #509 ), #1047, .F. ) ;
#189 = EDGE_CURVE ( 'NONE', #622, #215, #216, .T. ) ;
#190 = VERTEX_POINT ( 'NONE', #849 ) ;
#191 = LINE ( 'NONE', #42, #598 ) ;
#192 = CARTESIAN_POINT ( 'NONE',  ( 0.7600000000000002309, 0.5224999999999997424, -0.6250000000000000000 ) ) ;
#193 = LINE ( 'NONE', #533, #1217 ) ;
#194 = VECTOR ( 'NONE', #637, 1000.000000000000000 ) ;
#195 = ADVANCED_FACE ( 'NONE', ( #1112 ), #707, .F. ) ;
#196 =( GEOMETRIC_REPRESENTATION_CONTEXT ( 3 ) GLOBAL_UNCERTAINTY_ASSIGNED_CONTEXT ( ( #1086 ) ) GLOBAL_UNIT_ASSIGNED_CONTEXT ( ( #952, #400, #302 ) ) REPRESENTATION_CONTEXT ( 'NONE', 'WORKASPACE' ) );
#197 = VECTOR ( 'NONE', #638, 1000.000000000000000 ) ;
#198 = AXIS2_PLACEMENT_3D ( 'NONE', #722, #272, #1211 ) ;
#199 = LINE ( 'NONE', #1048, #411 ) ;
#200 = ADVANCED_FACE ( 'NONE', ( #168 ), #251, .F. ) ;
#201 = CARTESIAN_POINT ( 'NONE',  ( -0.9724999999999995870, 0.02750000000000011810, -0.6250000000000001110 ) ) ;
#202 = ORIENTED_EDGE ( 'NONE', *, *, #525, .T. ) ;
#203 = CARTESIAN_POINT ( 'NONE',  ( 0.5999999999999996447, 0.02750000000000016320, 0.6250000000000000000 ) ) ;
#204 = FACE_OUTER_BOUND ( 'NONE', #777, .T. ) ;
#205 = DIRECTION ( 'NONE',  ( 1.000000000000000000, 1.182435255227479537E-16, 0.0000000000000000000 ) ) ;
#206 = DIRECTION ( 'NONE',  ( 0.0000000000000000000, 0.0000000000000000000, -1.000000000000000000 ) ) ;
#207 = CARTESIAN_POINT ( 'NONE',  ( 0.5999999999999996447, 0.02750000000000016320, -0.6250000000000000000 ) ) ;
#208 = LINE ( 'NONE', #774, #940 ) ;
#209 = VERTEX_POINT ( 'NONE', #154 ) ;
#210 = LINE ( 'NONE', #222, #710 ) ;
#211 = CARTESIAN_POINT ( 'NONE',  ( 0.5999999999999996447, 0.5224999999999999645, -0.6250000000000002220 ) ) ;
#212 = EDGE_CURVE ( 'NONE', #883, #335, #1197, .T. ) ;
#213 = ORIENTED_EDGE ( 'NONE', *, *, #711, .F. ) ;
#214 = CARTESIAN_POINT ( 'NONE',  ( 0.9999999999999995559, 0.5499999999999999334, -0.6250000000000000000 ) ) ;
#215 = VERTEX_POINT ( 'NONE', #1193 ) ;
#216 = LINE ( 'NONE', #664, #140 ) ;
#217 = ORIENTED_EDGE ( 'NONE', *, *, #636, .T. ) ;
#218 = AXIS2_PLACEMENT_3D ( 'NONE', #895, #786, #1206 ) ;
#219 = DIRECTION ( 'NONE',  ( 0.0000000000000000000, -0.0000000000000000000, 1.000000000000000000 ) ) ;
#220 = VECTOR ( 'NONE', #1067, 1000.000000000000000 ) ;
#221 = FACE_OUTER_BOUND ( 'NONE', #136, .T. ) ;
#222 = CARTESIAN_POINT ( 'NONE',  ( -0.9999999999999995559, 0.5499999999999999334, -0.6250000000000000000 ) ) ;
#223 = CARTESIAN_POINT ( 'NONE',  ( 0.5999999999999996447, 0.5224999999999999645, 0.6250000000000000000 ) ) ;
#224 = EDGE_CURVE ( 'NONE', #35, #310, #1166, .T. ) ;
#225 = DIRECTION ( 'NONE',  ( 9.856383386231860060E-17, 1.000000000000000000, -0.0000000000000000000 ) ) ;
#226 = ORIENTED_EDGE ( 'NONE', *, *, #1092, .T. ) ;
#227 = AXIS2_PLACEMENT_3D ( 'NONE', #472, #13, #478 ) ;
#228 = CARTESIAN_POINT ( 'NONE',  ( -0.5999999999999998668, 0.5224999999999999645, -0.4166666666666665186 ) ) ;
#229 = VECTOR ( 'NONE', #546, 1000.000000000000000 ) ;
#230 = ORIENTED_EDGE ( 'NONE', *, *, #758, .F. ) ;
#231 = CARTESIAN_POINT ( 'NONE',  ( 0.5999999999999996447, 0.5499999999999998224, 0.6250000000000000000 ) ) ;
#232 = DIRECTION ( 'NONE',  ( -1.000000000000000000, 0.0000000000000000000, -0.0000000000000000000 ) ) ;
#233 = DIRECTION ( 'NONE',  ( 0.0000000000000000000, 1.000000000000000000, 0.0000000000000000000 ) ) ;
#234 = ORIENTED_EDGE ( 'NONE', *, *, #1114, .F. ) ;
#235 = VECTOR ( 'NONE', #1186, 1000.000000000000000 ) ;
#236 = ORIENTED_EDGE ( 'NONE', *, *, #1021, .F. ) ;
#237 = LINE ( 'NONE', #725, #438 ) ;
#238 = DIRECTION ( 'NONE',  ( 1.000000000000000000, 0.0000000000000000000, -1.807003620809175371E-16 ) ) ;
#239 = CARTESIAN_POINT ( 'NONE',  ( 0.6000000000000003109, 0.5224999999999997424, 0.4166666666666664631 ) ) ;
#240 = CARTESIAN_POINT ( 'NONE',  ( 0.5999999999999994227, -1.210272345116345738, -0.6250000000000002220 ) ) ;
#241 = CARTESIAN_POINT ( 'NONE',  ( -0.7599999999999997868, 0.5224999999999999645, 0.6250000000000000000 ) ) ;
#242 = CARTESIAN_POINT ( 'NONE',  ( -0.5999999999999998668, 0.5224999999999999645, 0.4166666666666666297 ) ) ;
#243 = AXIS2_PLACEMENT_3D ( 'NONE', #241, #811, #71 ) ;
#244 =( NAMED_UNIT ( * ) PLANE_ANGLE_UNIT ( ) SI_UNIT ( $, .RADIAN. ) );
#245 = PRODUCT ( 'TNPW0805422KBYEN', 'TNPW0805422KBYEN', '', ( #815 ) ) ;
#246 = ORIENTED_EDGE ( 'NONE', *, *, #822, .T. ) ;
#247 = DIRECTION ( 'NONE',  ( -1.000000000000000000, 0.0000000000000000000, 0.0000000000000000000 ) ) ;
#248 = PLANE ( 'NONE',  #344 ) ;
#249 = CARTESIAN_POINT ( 'NONE',  ( -0.9724999999999995870, 0.02750000000000011810, -2.632000249128035207 ) ) ;
#250 = ORIENTED_EDGE ( 'NONE', *, *, #506, .T. ) ;
#251 = PLANE ( 'NONE',  #468 ) ;
#252 = EDGE_CURVE ( 'NONE', #277, #549, #1099, .T. ) ;
#253 = CARTESIAN_POINT ( 'NONE',  ( -0.7599999999999997868, 0.5500000000000000444, -0.4166666666666664076 ) ) ;
#254 = DIRECTION ( 'NONE',  ( 1.000000000000000000, -0.0000000000000000000, -6.776263578034403699E-16 ) ) ;
#255 = CARTESIAN_POINT ( 'NONE',  ( -0.9999999999999995559, -1.224646799147352468E-16, 0.6250000000000000000 ) ) ;
#256 = VECTOR ( 'NONE', #56, 1000.000000000000000 ) ;
#257 = CARTESIAN_POINT ( 'NONE',  ( -0.5999999999999998668, 0.5500000000000000444, -0.4166666666666665186 ) ) ;
#258 = ORIENTED_EDGE ( 'NONE', *, *, #456, .F. ) ;
#259 = CARTESIAN_POINT ( 'NONE',  ( -0.9999999999999995559, -1.224646799147352468E-16, 0.6250000000000000000 ) ) ;
#260 = ORIENTED_EDGE ( 'NONE', *, *, #910, .T. ) ;
#261 = ORIENTED_EDGE ( 'NONE', *, *, #278, .T. ) ;
#262 = FACE_OUTER_BOUND ( 'NONE', #1110, .T. ) ;
#263 = ORIENTED_EDGE ( 'NONE', *, *, #1021, .T. ) ;
#264 = CARTESIAN_POINT ( 'NONE',  ( 0.6000000000000003109, 0.5224999999999997424, -0.4166666666666665741 ) ) ;
#265 = PLANE ( 'NONE',  #74 ) ;
#266 = FACE_OUTER_BOUND ( 'NONE', #1154, .T. ) ;
#267 =( GEOMETRIC_REPRESENTATION_CONTEXT ( 3 ) GLOBAL_UNCERTAINTY_ASSIGNED_CONTEXT ( ( #440 ) ) GLOBAL_UNIT_ASSIGNED_CONTEXT ( ( #422, #784, #888 ) ) REPRESENTATION_CONTEXT ( 'NONE', 'WORKASPACE' ) );
#268 = LINE ( 'NONE', #242, #299 ) ;
#269 = LINE ( 'NONE', #656, #498 ) ;
#270 = CARTESIAN_POINT ( 'NONE',  ( 0.9724999999999995870, 0.5224999999999999645, -0.6250000000000001110 ) ) ;
#271 = ORIENTED_EDGE ( 'NONE', *, *, #898, .F. ) ;
#272 = DIRECTION ( 'NONE',  ( -1.807003620809175371E-16, 1.781052046700436970E-32, -1.000000000000000000 ) ) ;
#273 = CARTESIAN_POINT ( 'NONE',  ( 0.0000000000000000000, 0.0000000000000000000, 0.0000000000000000000 ) ) ;
#274 = ORIENTED_EDGE ( 'NONE', *, *, #151, .T. ) ;
#275 = CARTESIAN_POINT ( 'NONE',  ( 0.9724999999999995870, 0.5224999999999999645, -0.6250000000000000000 ) ) ;
#276 = LINE ( 'NONE', #333, #989 ) ;
#277 = VERTEX_POINT ( 'NONE', #434 ) ;
#278 = EDGE_CURVE ( 'NONE', #72, #1059, #1130, .T. ) ;
#279 = ORIENTED_EDGE ( 'NONE', *, *, #399, .F. ) ;
#280 = CARTESIAN_POINT ( 'NONE',  ( -0.5999999999999996447, 0.02750000000000016320, 0.6250000000000000000 ) ) ;
#281 = ORIENTED_EDGE ( 'NONE', *, *, #539, .F. ) ;
#282 = DIRECTION ( 'NONE',  ( 0.0000000000000000000, 0.0000000000000000000, -1.000000000000000000 ) ) ;
#283 = DIRECTION ( 'NONE',  ( -0.0000000000000000000, -0.0000000000000000000, 1.000000000000000000 ) ) ;
#284 = CARTESIAN_POINT ( 'NONE',  ( 0.7600000000000002309, 0.5224999999999997424, -0.4166666666666666852 ) ) ;
#285 = DIRECTION ( 'NONE',  ( 0.0000000000000000000, 0.0000000000000000000, -1.000000000000000000 ) ) ;
#286 = FACE_OUTER_BOUND ( 'NONE', #426, .T. ) ;
#287 = AXIS2_PLACEMENT_3D ( 'NONE', #249, #988, #403 ) ;
#288 = ORIENTED_EDGE ( 'NONE', *, *, #212, .T. ) ;
#289 = ORIENTED_EDGE ( 'NONE', *, *, #189, .T. ) ;
#290 = COLOUR_RGB ( '',0.7921568627450980005, 0.8196078431372548767, 0.9333333333333333481 ) ;
#291 = AXIS2_PLACEMENT_3D ( 'NONE', #717, #1124, #819 ) ;
#292 = DIRECTION ( 'NONE',  ( -1.734723475976807341E-16, 0.0000000000000000000, 1.000000000000000000 ) ) ;
#293 = ORIENTED_EDGE ( 'NONE', *, *, #346, .F. ) ;
#294 = EDGE_CURVE ( 'NONE', #1046, #1037, #589, .T. ) ;
#295 = ORIENTED_EDGE ( 'NONE', *, *, #612, .T. ) ;
#296 = FACE_OUTER_BOUND ( 'NONE', #376, .T. ) ;
#297 = DIRECTION ( 'NONE',  ( 0.0000000000000000000, 0.0000000000000000000, 1.000000000000000000 ) ) ;
#298 = ORIENTED_EDGE ( 'NONE', *, *, #889, .T. ) ;
#299 = VECTOR ( 'NONE', #73, 1000.000000000000000 ) ;
#300 = AXIS2_PLACEMENT_3D ( 'NONE', #203, #766, #579 ) ;
#301 = VECTOR ( 'NONE', #923, 1000.000000000000000 ) ;
#302 =( NAMED_UNIT ( * ) SI_UNIT ( $, .STERADIAN. ) SOLID_ANGLE_UNIT ( ) );
#303 = LINE ( 'NONE', #459, #1049 ) ;
#304 = CARTESIAN_POINT ( 'NONE',  ( -0.7599999999999997868, 0.5500000000000000444, -0.6249999999999997780 ) ) ;
#305 = ADVANCED_FACE ( 'NONE', ( #675 ), #1160, .F. ) ;
#306 = ORIENTED_EDGE ( 'NONE', *, *, #22, .F. ) ;
#307 = ORIENTED_EDGE ( 'NONE', *, *, #626, .F. ) ;
#308 = EDGE_CURVE ( 'NONE', #628, #484, #77, .T. ) ;
#309 = VERTEX_POINT ( 'NONE', #553 ) ;
#310 = VERTEX_POINT ( 'NONE', #182 ) ;
#311 = CARTESIAN_POINT ( 'NONE',  ( -0.9999999999999995559, -1.224646799147352468E-16, -0.6250000000000000000 ) ) ;
#312 = CARTESIAN_POINT ( 'NONE',  ( 0.9724999999999995870, 0.5224999999999999645, -2.632000249128035207 ) ) ;
#313 = CARTESIAN_POINT ( 'NONE',  ( -0.7599999999999997868, 0.5224999999999999645, -0.4166666666666664076 ) ) ;
#314 = CARTESIAN_POINT ( 'NONE',  ( -0.5999999999999996447, 0.0000000000000000000, -0.6250000000000000000 ) ) ;
#315 = EDGE_CURVE ( 'NONE', #141, #126, #686, .T. ) ;
#316 = ORIENTED_EDGE ( 'NONE', *, *, #116, .F. ) ;
#317 = ORIENTED_EDGE ( 'NONE', *, *, #429, .F. ) ;
#318 = CARTESIAN_POINT ( 'NONE',  ( 0.0000000000000000000, 0.0000000000000000000, -0.6250000000000000000 ) ) ;
#319 = AXIS2_PLACEMENT_3D ( 'NONE', #61, #87, #993 ) ;
#320 = EDGE_LOOP ( 'NONE', ( #513, #1039, #764, #1080 ) ) ;
#321 = ADVANCED_FACE ( 'NONE', ( #262 ), #454, .F. ) ;
#322 = DIRECTION ( 'NONE',  ( -1.000000000000000000, 3.061616997868381662E-16, 0.0000000000000000000 ) ) ;
#323 = VECTOR ( 'NONE', #339, 1000.000000000000000 ) ;
#324 = EDGE_LOOP ( 'NONE', ( #885, #827, #629, #32 ) ) ;
#325 = CARTESIAN_POINT ( 'NONE',  ( 0.0000000000000000000, 0.0000000000000000000, 0.6250000000000000000 ) ) ;
#326 = ORIENTED_EDGE ( 'NONE', *, *, #743, .T. ) ;
#327 = VECTOR ( 'NONE', #225, 1000.000000000000000 ) ;
#328 = AXIS2_PLACEMENT_3D ( 'NONE', #537, #1010, #1081 ) ;
#329 = CARTESIAN_POINT ( 'NONE',  ( -0.5999999999999996447, 0.5500000000000000444, -0.6250000000000000000 ) ) ;
#330 = AXIS2_PLACEMENT_3D ( 'NONE', #345, #1163, #232 ) ;
#331 = DIRECTION ( 'NONE',  ( 1.000000000000000000, 0.0000000000000000000, -0.0000000000000000000 ) ) ;
#332 = EDGE_LOOP ( 'NONE', ( #118, #217, #843, #494 ) ) ;
#333 = CARTESIAN_POINT ( 'NONE',  ( -0.5999999999999998668, 0.5224999999999999645, 0.4166666666666666297 ) ) ;
#334 = CARTESIAN_POINT ( 'NONE',  ( 0.6000000000000003109, 0.5499999999999998224, -0.4166666666666665741 ) ) ;
#335 = VERTEX_POINT ( 'NONE', #1030 ) ;
#336 = ORIENTED_EDGE ( 'NONE', *, *, #103, .T. ) ;
#337 = EDGE_LOOP ( 'NONE', ( #900, #365, #295, #1083 ) ) ;
#338 = DIRECTION ( 'NONE',  ( -8.761229676650542385E-16, -1.000000000000000000, -0.0000000000000000000 ) ) ;
#339 = DIRECTION ( 'NONE',  ( -0.0000000000000000000, -0.0000000000000000000, -1.000000000000000000 ) ) ;
#340 = ORIENTED_EDGE ( 'NONE', *, *, #418, .F. ) ;
#341 =( NAMED_UNIT ( * ) SI_UNIT ( $, .STERADIAN. ) SOLID_ANGLE_UNIT ( ) );
#342 = ORIENTED_EDGE ( 'NONE', *, *, #315, .F. ) ;
#343 = CARTESIAN_POINT ( 'NONE',  ( 0.9999999999999995559, -1.224646799147352468E-16, -0.6250000000000000000 ) ) ;
#344 = AXIS2_PLACEMENT_3D ( 'NONE', #544, #4, #547 ) ;
#345 = CARTESIAN_POINT ( 'NONE',  ( 0.0000000000000000000, 0.0000000000000000000, -0.6250000000000000000 ) ) ;
#346 = EDGE_CURVE ( 'NONE', #1070, #901, #1214, .T. ) ;
#347 = CARTESIAN_POINT ( 'NONE',  ( -0.5999999999999996447, 0.0000000000000000000, 0.6250000000000000000 ) ) ;
#348 = PRESENTATION_STYLE_ASSIGNMENT (( #79 ) ) ;
#349 = COLOUR_RGB ( '',1.000000000000000000, 1.000000000000000000, 1.000000000000000000 ) ;
#350 = FACE_OUTER_BOUND ( 'NONE', #673, .T. ) ;
#351 = APPLICATION_PROTOCOL_DEFINITION ( 'draft international standard', 'automotive_design', 1998, #1022 ) ;
#352 = AXIS2_PLACEMENT_3D ( 'NONE', #583, #486, #657 ) ;
#353 = VECTOR ( 'NONE', #1079, 1000.000000000000000 ) ;
#354 = ADVANCED_FACE ( 'NONE', ( #204 ), #357, .T. ) ;
#355 = CARTESIAN_POINT ( 'NONE',  ( -0.9724999999999991429, 0.5224999999999999645, -0.6250000000000001110 ) ) ;
#356 = DIRECTION ( 'NONE',  ( -0.0000000000000000000, -0.0000000000000000000, -1.000000000000000000 ) ) ;
#357 = PLANE ( 'NONE',  #1061 ) ;
#358 = DIRECTION ( 'NONE',  ( 3.061616997868381662E-16, 1.000000000000000000, 0.0000000000000000000 ) ) ;
#359 = VERTEX_POINT ( 'NONE', #877 ) ;
#360 = ORIENTED_EDGE ( 'NONE', *, *, #534, .F. ) ;
#361 = VECTOR ( 'NONE', #511, 1000.000000000000000 ) ;
#362 = PLANE ( 'NONE',  #291 ) ;
#363 = ORIENTED_EDGE ( 'NONE', *, *, #711, .T. ) ;
#364 = CARTESIAN_POINT ( 'NONE',  ( -0.5999999999999996447, 0.02750000000000016320, 0.6250000000000000000 ) ) ;
#365 = ORIENTED_EDGE ( 'NONE', *, *, #59, .F. ) ;
#366 = FACE_OUTER_BOUND ( 'NONE', #738, .T. ) ;
#367 = VECTOR ( 'NONE', #75, 1000.000000000000000 ) ;
#368 = ORIENTED_EDGE ( 'NONE', *, *, #525, .F. ) ;
#369 = AXIS2_PLACEMENT_3D ( 'NONE', #482, #1150, #205 ) ;
#370 = SURFACE_SIDE_STYLE ('',( #938 ) ) ;
#371 = CARTESIAN_POINT ( 'NONE',  ( 0.5999999999999996447, 0.5224999999999999645, -0.6250000000000002220 ) ) ;
#372 = EDGE_CURVE ( 'NONE', #480, #166, #445, .T. ) ;
#373 = ADVANCED_FACE ( 'NONE', ( #904 ), #1076, .T. ) ;
#374 = ORIENTED_EDGE ( 'NONE', *, *, #862, .F. ) ;
#375 = EDGE_LOOP ( 'NONE', ( #856, #307, #659, #263 ) ) ;
#376 = EDGE_LOOP ( 'NONE', ( #680, #949, #406, #992 ) ) ;
#377 = DIRECTION ( 'NONE',  ( -0.0000000000000000000, -0.0000000000000000000, -1.000000000000000000 ) ) ;
#378 = LINE ( 'NONE', #955, #104 ) ;
#379 = VECTOR ( 'NONE', #678, 1000.000000000000000 ) ;
#380 = ADVANCED_FACE ( 'NONE', ( #578 ), #632, .F. ) ;
#381 = LINE ( 'NONE', #257, #970 ) ;
#382 = CARTESIAN_POINT ( 'NONE',  ( 0.5999999999999996447, 0.5224999999999999645, 0.6250000000000000000 ) ) ;
#383 = CARTESIAN_POINT ( 'NONE',  ( -0.5999999999999998668, -1.210272345116345294, -0.6250000000000000000 ) ) ;
#384 = ADVANCED_FACE ( 'NONE', ( #754 ), #625, .F. ) ;
#385 = ORIENTED_EDGE ( 'NONE', *, *, #593, .F. ) ;
#386 = CARTESIAN_POINT ( 'NONE',  ( -0.5999999999999998668, 0.5500000000000000444, 0.6250000000000000000 ) ) ;
#387 =( GEOMETRIC_REPRESENTATION_CONTEXT ( 3 ) GLOBAL_UNCERTAINTY_ASSIGNED_CONTEXT ( ( #52 ) ) GLOBAL_UNIT_ASSIGNED_CONTEXT ( ( #1019, #1015, #826 ) ) REPRESENTATION_CONTEXT ( 'NONE', 'WORKASPACE' ) );
#388 = DIRECTION ( 'NONE',  ( 0.0000000000000000000, 0.0000000000000000000, 1.000000000000000000 ) ) ;
#389 = EDGE_CURVE ( 'NONE', #209, #64, #770, .T. ) ;
#390 = ORIENTED_EDGE ( 'NONE', *, *, #506, .F. ) ;
#391 = VERTEX_POINT ( 'NONE', #133 ) ;
#392 = DIRECTION ( 'NONE',  ( -1.000000000000000000, 3.061616997868381662E-16, 0.0000000000000000000 ) ) ;
#393 = CARTESIAN_POINT ( 'NONE',  ( -0.5999999999999996447, 0.02750000000000016320, -0.6250000000000000000 ) ) ;
#394 = ORIENTED_EDGE ( 'NONE', *, *, #869, .F. ) ;
#395 = VERTEX_POINT ( 'NONE', #867 ) ;
#396 = ORIENTED_EDGE ( 'NONE', *, *, #103, .F. ) ;
#397 = VECTOR ( 'NONE', #134, 1000.000000000000000 ) ;
#398 = STYLED_ITEM ( 'NONE', ( #1006 ), #597 ) ;
#399 = EDGE_CURVE ( 'NONE', #682, #402, #1105, .T. ) ;
#400 =( NAMED_UNIT ( * ) PLANE_ANGLE_UNIT ( ) SI_UNIT ( $, .RADIAN. ) );
#401 = DIRECTION ( 'NONE',  ( 1.000000000000000000, -1.807003620809174878E-16, 0.0000000000000000000 ) ) ;
#402 = VERTEX_POINT ( 'NONE', #978 ) ;
#403 = DIRECTION ( 'NONE',  ( 1.000000000000000000, 3.483940142948280665E-18, 0.0000000000000000000 ) ) ;
#404 = ADVANCED_FACE ( 'NONE', ( #286 ), #1077, .F. ) ;
#405 = EDGE_CURVE ( 'NONE', #359, #850, #12, .T. ) ;
#406 = ORIENTED_EDGE ( 'NONE', *, *, #405, .T. ) ;
#407 = EDGE_CURVE ( 'NONE', #661, #796, #1000, .T. ) ;
#408 = FACE_OUTER_BOUND ( 'NONE', #1008, .T. ) ;
#409 = CARTESIAN_POINT ( 'NONE',  ( -0.5999999999999998668, 0.5224999999999999645, -0.6250000000000000000 ) ) ;
#410 = CARTESIAN_POINT ( 'NONE',  ( 0.5999999999999996447, 0.02750000000000016320, 0.6250000000000000000 ) ) ;
#411 = VECTOR ( 'NONE', #1143, 1000.000000000000000 ) ;
#412 = CARTESIAN_POINT ( 'NONE',  ( -0.9724999999999991429, 0.5224999999999999645, -2.632000249128035207 ) ) ;
#413 = LINE ( 'NONE', #255, #514 ) ;
#414 = LINE ( 'NONE', #192, #941 ) ;
#415 = LINE ( 'NONE', #466, #982 ) ;
#416 = AXIS2_PLACEMENT_3D ( 'NONE', #145, #902, #526 ) ;
#417 = PLANE ( 'NONE',  #747 ) ;
#418 = EDGE_CURVE ( 'NONE', #984, #166, #1135, .T. ) ;
#419 = CARTESIAN_POINT ( 'NONE',  ( -0.5999999999999996447, 0.02750000000000016320, 0.6250000000000000000 ) ) ;
#420 = CARTESIAN_POINT ( 'NONE',  ( 0.9724999999999995870, 0.5224999999999999645, 0.6250000000000000000 ) ) ;
#421 = ORIENTED_EDGE ( 'NONE', *, *, #1207, .T. ) ;
#422 =( LENGTH_UNIT ( ) NAMED_UNIT ( * ) SI_UNIT ( .MILLI., .METRE. ) );
#423 = VECTOR ( 'NONE', #870, 1000.000000000000000 ) ;
#424 = CARTESIAN_POINT ( 'NONE',  ( 0.7600000000000002309, 0.5224999999999997424, 0.4166666666666664631 ) ) ;
#425 = LINE ( 'NONE', #591, #220 ) ;
#426 = EDGE_LOOP ( 'NONE', ( #396, #394, #316, #790, #461, #1005, #250, #317 ) ) ;
#427 = VECTOR ( 'NONE', #356, 1000.000000000000000 ) ;
#428 = DIRECTION ( 'NONE',  ( 1.000000000000000000, -0.0000000000000000000, -6.776263578034403699E-16 ) ) ;
#429 = EDGE_CURVE ( 'NONE', #1158, #510, #269, .T. ) ;
#430 = CARTESIAN_POINT ( 'NONE',  ( 0.5999999999999996447, 0.5499999999999999334, 0.6250000000000000000 ) ) ;
#431 = LINE ( 'NONE', #214, #696 ) ;
#432 = VERTEX_POINT ( 'NONE', #574 ) ;
#433 = ORIENTED_EDGE ( 'NONE', *, *, #650, .F. ) ;
#434 = CARTESIAN_POINT ( 'NONE',  ( -0.5999999999999998668, 0.5500000000000000444, 0.4166666666666666297 ) ) ;
#435 = EDGE_CURVE ( 'NONE', #837, #905, #647, .T. ) ;
#436 = VERTEX_POINT ( 'NONE', #37 ) ;
#437 = LINE ( 'NONE', #557, #906 ) ;
#438 = VECTOR ( 'NONE', #446, 1000.000000000000000 ) ;
#439 = AXIS2_PLACEMENT_3D ( 'NONE', #124, #331, #1174 ) ;
#440 = UNCERTAINTY_MEASURE_WITH_UNIT (LENGTH_MEASURE( 1.000000000000000082E-05 ), #422, 'distance_accuracy_value', 'NONE');
#441 = ORIENTED_EDGE ( 'NONE', *, *, #805, .T. ) ;
#442 = ORIENTED_EDGE ( 'NONE', *, *, #418, .T. ) ;
#443 = ORIENTED_EDGE ( 'NONE', *, *, #585, .T. ) ;
#444 = FILL_AREA_STYLE ('',( #54 ) ) ;
#445 = LINE ( 'NONE', #412, #705 ) ;
#446 = DIRECTION ( 'NONE',  ( -1.000000000000000000, -0.0000000000000000000, -0.0000000000000000000 ) ) ;
#447 = EDGE_LOOP ( 'NONE', ( #5, #94, #798, #683 ) ) ;
#448 = CARTESIAN_POINT ( 'NONE',  ( 0.9724999999999995870, 0.5224999999999999645, 0.6250000000000000000 ) ) ;
#449 = EDGE_CURVE ( 'NONE', #1162, #549, #381, .T. ) ;
#450 = LINE ( 'NONE', #529, #235 ) ;
#451 = ORIENTED_EDGE ( 'NONE', *, *, #1082, .T. ) ;
#452 = FACE_OUTER_BOUND ( 'NONE', #698, .T. ) ;
#453 = SURFACE_SIDE_STYLE ('',( #1126 ) ) ;
#454 = PLANE ( 'NONE',  #571 ) ;
#455 = CARTESIAN_POINT ( 'NONE',  ( -0.5999999999999996447, 0.0000000000000000000, -0.6250000000000000000 ) ) ;
#456 = EDGE_CURVE ( 'NONE', #964, #141, #515, .T. ) ;
#457 = ORIENTED_EDGE ( 'NONE', *, *, #1038, .F. ) ;
#458 = ADVANCED_FACE ( 'NONE', ( #452 ), #800, .T. ) ;
#459 = CARTESIAN_POINT ( 'NONE',  ( 0.5999999999999996447, 0.02750000000000016320, -0.6250000000000000000 ) ) ;
#460 = ORIENTED_EDGE ( 'NONE', *, *, #942, .T. ) ;
#461 = ORIENTED_EDGE ( 'NONE', *, *, #449, .F. ) ;
#462 = LINE ( 'NONE', #107, #1146 ) ;
#463 = CARTESIAN_POINT ( 'NONE',  ( 0.9724999999999995870, 0.02750000000000011810, 0.6250000000000000000 ) ) ;
#464 = EDGE_CURVE ( 'NONE', #215, #682, #41, .T. ) ;
#465 = LINE ( 'NONE', #729, #9 ) ;
#466 = CARTESIAN_POINT ( 'NONE',  ( 0.9724999999999995870, 0.02750000000000011810, -0.6250000000000000000 ) ) ;
#467 = ORIENTED_EDGE ( 'NONE', *, *, #878, .T. ) ;
#468 = AXIS2_PLACEMENT_3D ( 'NONE', #897, #996, #700 ) ;
#469 = FACE_OUTER_BOUND ( 'NONE', #324, .T. ) ;
#470 = FACE_OUTER_BOUND ( 'NONE', #565, .T. ) ;
#471 = FACE_OUTER_BOUND ( 'NONE', #866, .T. ) ;
#472 = CARTESIAN_POINT ( 'NONE',  ( -0.6000000000000000888, -1.210272345116345294, 0.6250000000000000000 ) ) ;
#473 = PRODUCT_RELATED_PRODUCT_CATEGORY ( 'part', '', ( #245 ) ) ;
#474 = DIRECTION ( 'NONE',  ( 1.000000000000000000, -9.856383386231858827E-17, 0.0000000000000000000 ) ) ;
#475 = EDGE_LOOP ( 'NONE', ( #1176, #165, #360, #374, #368, #775, #172, #113 ) ) ;
#476 = VERTEX_POINT ( 'NONE', #1167 ) ;
#477 = ORIENTED_EDGE ( 'NONE', *, *, #1185, .F. ) ;
#478 = DIRECTION ( 'NONE',  ( 1.000000000000000000, 0.0000000000000000000, 0.0000000000000000000 ) ) ;
#479 = LINE ( 'NONE', #1063, #751 ) ;
#480 = VERTEX_POINT ( 'NONE', #674 ) ;
#481 = MECHANICAL_DESIGN_GEOMETRIC_PRESENTATION_REPRESENTATION (  '', ( #1096 ), #196 ) ;
#482 = CARTESIAN_POINT ( 'NONE',  ( -0.5999999999999996447, 0.02750000000000016320, 0.6250000000000000000 ) ) ;
#483 = VECTOR ( 'NONE', #1117, 1000.000000000000000 ) ;
#484 = VERTEX_POINT ( 'NONE', #123 ) ;
#485 = VECTOR ( 'NONE', #512, 1000.000000000000000 ) ;
#486 = DIRECTION ( 'NONE',  ( 1.000000000000000000, -9.856383386231860060E-17, 0.0000000000000000000 ) ) ;
#487 = VECTOR ( 'NONE', #38, 1000.000000000000000 ) ;
#488 = PLANE ( 'NONE',  #179 ) ;
#489 = ADVANCED_FACE ( 'NONE', ( #470 ), #1194, .T. ) ;
#490 = ORIENTED_EDGE ( 'NONE', *, *, #1132, .F. ) ;
#491 = CARTESIAN_POINT ( 'NONE',  ( -0.7599999999999997868, 0.5224999999999999645, -0.6250000000000000000 ) ) ;
#492 = AXIS2_PLACEMENT_3D ( 'NONE', #694, #1205, #247 ) ;
#493 = VERTEX_POINT ( 'NONE', #304 ) ;
#494 = ORIENTED_EDGE ( 'NONE', *, *, #144, .F. ) ;
#495 = CARTESIAN_POINT ( 'NONE',  ( -0.5999999999999996447, 0.02750000000000016320, -0.6250000000000000000 ) ) ;
#496 = ADVANCED_FACE ( 'NONE', ( #221 ), #999, .T. ) ;
#497 = VECTOR ( 'NONE', #555, 1000.000000000000000 ) ;
#498 = VECTOR ( 'NONE', #110, 1000.000000000000000 ) ;
#499 = EDGE_CURVE ( 'NONE', #169, #631, #415, .T. ) ;
#500 = LINE ( 'NONE', #863, #180 ) ;
#501 = CARTESIAN_POINT ( 'NONE',  ( 0.9724999999999995870, 0.02750000000000012504, -2.632000249128035207 ) ) ;
#502 = DIRECTION ( 'NONE',  ( 0.0000000000000000000, 1.000000000000000000, 0.0000000000000000000 ) ) ;
#503 = ORIENTED_EDGE ( 'NONE', *, *, #534, .T. ) ;
#504 =( GEOMETRIC_REPRESENTATION_CONTEXT ( 3 ) GLOBAL_UNCERTAINTY_ASSIGNED_CONTEXT ( ( #957 ) ) GLOBAL_UNIT_ASSIGNED_CONTEXT ( ( #918, #244, #727 ) ) REPRESENTATION_CONTEXT ( 'NONE', 'WORKASPACE' ) );
#505 = CARTESIAN_POINT ( 'NONE',  ( 0.5999999999999996447, 0.02750000000000016320, 0.6250000000000000000 ) ) ;
#506 = EDGE_CURVE ( 'NONE', #493, #510, #210, .T. ) ;
#507 = DIRECTION ( 'NONE',  ( -1.000000000000000000, 0.0000000000000000000, -0.0000000000000000000 ) ) ;
#508 = ORIENTED_EDGE ( 'NONE', *, *, #822, .F. ) ;
#509 = FACE_OUTER_BOUND ( 'NONE', #1216, .T. ) ;
#510 = VERTEX_POINT ( 'NONE', #1153 ) ;
#511 = DIRECTION ( 'NONE',  ( -1.000000000000000000, 0.0000000000000000000, 0.0000000000000000000 ) ) ;
#512 = DIRECTION ( 'NONE',  ( 1.000000000000000000, -1.182435255227479537E-16, 0.0000000000000000000 ) ) ;
#513 = ORIENTED_EDGE ( 'NONE', *, *, #389, .T. ) ;
#514 = VECTOR ( 'NONE', #1100, 1000.000000000000000 ) ;
#515 = LINE ( 'NONE', #1098, #874 ) ;
#516 = DIRECTION ( 'NONE',  ( 9.856383386231860060E-17, 1.000000000000000000, -0.0000000000000000000 ) ) ;
#517 = DIRECTION ( 'NONE',  ( 9.856383386231860060E-17, 1.000000000000000000, -0.0000000000000000000 ) ) ;
#518 = AXIS2_PLACEMENT_3D ( 'NONE', #524, #164, #297 ) ;
#519 = CARTESIAN_POINT ( 'NONE',  ( 0.0000000000000000000, 0.0000000000000000000, -0.6250000000000000000 ) ) ;
#520 = CARTESIAN_POINT ( 'NONE',  ( -0.7599999999999997868, 0.5224999999999999645, 0.4166666666666666297 ) ) ;
#521 = CARTESIAN_POINT ( 'NONE',  ( -0.7599999999999997868, 0.5224999999999999645, -0.6249999999999997780 ) ) ;
#522 = UNCERTAINTY_MEASURE_WITH_UNIT (LENGTH_MEASURE( 1.000000000000000082E-05 ), #541, 'distance_accuracy_value', 'NONE');
#523 = ORIENTED_EDGE ( 'NONE', *, *, #963, .T. ) ;
#524 = CARTESIAN_POINT ( 'NONE',  ( -0.5999999999999996447, 0.5499999999999999334, 0.6250000000000000000 ) ) ;
#525 = EDGE_CURVE ( 'NONE', #64, #391, #237, .T. ) ;
#526 = DIRECTION ( 'NONE',  ( 9.856383386231858827E-17, 1.000000000000000000, 0.0000000000000000000 ) ) ;
#527 = PLANE ( 'NONE',  #319 ) ;
#528 = VERTEX_POINT ( 'NONE', #491 ) ;
#529 = CARTESIAN_POINT ( 'NONE',  ( 0.9999999999999995559, 0.5499999999999999334, 0.6250000000000000000 ) ) ;
#530 = VECTOR ( 'NONE', #1190, 1000.000000000000000 ) ;
#531 = EDGE_CURVE ( 'NONE', #905, #773, #907, .T. ) ;
#532 = DIRECTION ( 'NONE',  ( 0.0000000000000000000, 0.0000000000000000000, 1.000000000000000000 ) ) ;
#533 = CARTESIAN_POINT ( 'NONE',  ( -0.7599999999999997868, 0.5224999999999999645, -0.4166666666666664076 ) ) ;
#534 = EDGE_CURVE ( 'NONE', #47, #605, #159, .T. ) ;
#535 = DIRECTION ( 'NONE',  ( 0.0000000000000000000, 1.000000000000000000, 0.0000000000000000000 ) ) ;
#536 = VERTEX_POINT ( 'NONE', #313 ) ;
#537 = CARTESIAN_POINT ( 'NONE',  ( 9.938519914450460599E-17, 0.5499999999999999334, 1.724058381206022317E-32 ) ) ;
#538 = EDGE_LOOP ( 'NONE', ( #735, #1210, #363, #442 ) ) ;
#539 = EDGE_CURVE ( 'NONE', #34, #984, #1183, .T. ) ;
#540 = LINE ( 'NONE', #95, #361 ) ;
#541 =( LENGTH_UNIT ( ) NAMED_UNIT ( * ) SI_UNIT ( .MILLI., .METRE. ) );
#542 = DIRECTION ( 'NONE',  ( 0.0000000000000000000, 0.0000000000000000000, -1.000000000000000000 ) ) ;
#543 = SURFACE_STYLE_FILL_AREA ( #979 ) ;
#544 = CARTESIAN_POINT ( 'NONE',  ( 0.6000000000000003109, 0.5224999999999997424, -0.4166666666666665741 ) ) ;
#545 = CARTESIAN_POINT ( 'NONE',  ( 0.9999999999999995559, -1.224646799147352468E-16, 0.6250000000000000000 ) ) ;
#546 = DIRECTION ( 'NONE',  ( 1.000000000000000000, 3.483940142948280665E-18, 0.0000000000000000000 ) ) ;
#547 = DIRECTION ( 'NONE',  ( 1.000000000000000000, 0.0000000000000000000, -6.776263578034404685E-16 ) ) ;
#548 = VERTEX_POINT ( 'NONE', #207 ) ;
#549 = VERTEX_POINT ( 'NONE', #609 ) ;
#550 = DIRECTION ( 'NONE',  ( 0.0000000000000000000, 0.0000000000000000000, -1.000000000000000000 ) ) ;
#551 = EDGE_LOOP ( 'NONE', ( #731, #230, #293, #745 ) ) ;
#552 = CARTESIAN_POINT ( 'NONE',  ( 0.9724999999999995870, 0.02750000000000012504, 0.6250000000000000000 ) ) ;
#553 = CARTESIAN_POINT ( 'NONE',  ( 0.7600000000000002309, 0.5224999999999997424, -0.6250000000000000000 ) ) ;
#554 = ORIENTED_EDGE ( 'NONE', *, *, #224, .F. ) ;
#555 = DIRECTION ( 'NONE',  ( -0.0000000000000000000, 0.0000000000000000000, 1.000000000000000000 ) ) ;
#556 = ORIENTED_EDGE ( 'NONE', *, *, #1156, .T. ) ;
#557 = CARTESIAN_POINT ( 'NONE',  ( -0.7599999999999997868, 0.5224999999999999645, 0.6250000000000000000 ) ) ;
#558 = ADVANCED_FACE ( 'NONE', ( #633 ), #871, .T. ) ;
#559 = AXIS2_PLACEMENT_3D ( 'NONE', #273, #162, #634 ) ;
#560 = EDGE_CURVE ( 'NONE', #126, #55, #894, .T. ) ;
#561 = ORIENTED_EDGE ( 'NONE', *, *, #308, .T. ) ;
#562 = PLANE ( 'NONE',  #1035 ) ;
#563 = LINE ( 'NONE', #284, #423 ) ;
#564 = CARTESIAN_POINT ( 'NONE',  ( -0.7599999999999997868, 0.5224999999999999645, -0.6249999999999997780 ) ) ;
#565 = EDGE_LOOP ( 'NONE', ( #1129, #763, #1, #884 ) ) ;
#566 = ADVANCED_FACE ( 'NONE', ( #922 ), #1084, .F. ) ;
#567 = FACE_OUTER_BOUND ( 'NONE', #1198, .T. ) ;
#568 = CARTESIAN_POINT ( 'NONE',  ( 0.7600000000000002309, 0.5224999999999997424, 0.4166666666666664631 ) ) ;
#569 = LINE ( 'NONE', #420, #256 ) ;
#570 = CARTESIAN_POINT ( 'NONE',  ( -0.9724999999999991429, 0.5224999999999999645, 0.6250000000000000000 ) ) ;
#571 = AXIS2_PLACEMENT_3D ( 'NONE', #1118, #550, #929 ) ;
#572 = VECTOR ( 'NONE', #1025, 1000.000000000000000 ) ;
#573 = ORIENTED_EDGE ( 'NONE', *, *, #743, .F. ) ;
#574 = CARTESIAN_POINT ( 'NONE',  ( -0.7599999999999997868, 0.5500000000000000444, 0.4166666666666666297 ) ) ;
#575 = SURFACE_SIDE_STYLE ('',( #135 ) ) ;
#576 = ORIENTED_EDGE ( 'NONE', *, *, #499, .T. ) ;
#577 = AXIS2_PLACEMENT_3D ( 'NONE', #1137, #282, #16 ) ;
#578 = FACE_OUTER_BOUND ( 'NONE', #960, .T. ) ;
#579 = DIRECTION ( 'NONE',  ( -1.000000000000000000, 1.182435255227479537E-16, 0.0000000000000000000 ) ) ;
#580 = EDGE_CURVE ( 'NONE', #661, #964, #662, .T. ) ;
#581 = ORIENTED_EDGE ( 'NONE', *, *, #852, .T. ) ;
#582 = DIRECTION ( 'NONE',  ( -1.000000000000000000, -0.0000000000000000000, -0.0000000000000000000 ) ) ;
#583 = CARTESIAN_POINT ( 'NONE',  ( 0.5999999999999994227, -1.210272345116345738, -0.6250000000000002220 ) ) ;
#584 = FACE_OUTER_BOUND ( 'NONE', #332, .T. ) ;
#585 = EDGE_CURVE ( 'NONE', #190, #141, #806, .T. ) ;
#586 = DIRECTION ( 'NONE',  ( 1.000000000000000000, 3.061616997868381662E-16, -0.0000000000000000000 ) ) ;
#587 = ADVANCED_FACE ( 'NONE', ( #651 ), #265, .F. ) ;
#588 = DIRECTION ( 'NONE',  ( 0.0000000000000000000, 1.000000000000000000, 0.0000000000000000000 ) ) ;
#589 = LINE ( 'NONE', #39, #916 ) ;
#590 = ORIENTED_EDGE ( 'NONE', *, *, #407, .T. ) ;
#591 = CARTESIAN_POINT ( 'NONE',  ( 0.9724999999999995870, 0.02750000000000012504, -2.632000249128035207 ) ) ;
#592 = LINE ( 'NONE', #410, #379 ) ;
#593 = EDGE_CURVE ( 'NONE', #536, #850, #945, .T. ) ;
#594 = LINE ( 'NONE', #463, #785 ) ;
#595 = SURFACE_STYLE_USAGE ( .BOTH. , #685 ) ;
#596 = ORIENTED_EDGE ( 'NONE', *, *, #986, .T. ) ;
#597 = MANIFOLD_SOLID_BREP ( 'Cut-Extrude1[1]', #969 ) ;
#598 = VECTOR ( 'NONE', #516, 1000.000000000000000 ) ;
#599 = ORIENTED_EDGE ( 'NONE', *, *, #658, .F. ) ;
#600 = ORIENTED_EDGE ( 'NONE', *, *, #294, .F. ) ;
#601 = CARTESIAN_POINT ( 'NONE',  ( -0.7599999999999997868, 0.5224999999999999645, -0.6249999999999997780 ) ) ;
#602 = EDGE_LOOP ( 'NONE', ( #825, #1178, #457, #556, #734, #138, #3, #858 ) ) ;
#603 = DIRECTION ( 'NONE',  ( 0.0000000000000000000, 0.0000000000000000000, 1.000000000000000000 ) ) ;
#604 = LINE ( 'NONE', #58, #708 ) ;
#605 = VERTEX_POINT ( 'NONE', #1187 ) ;
#606 = PLANE ( 'NONE',  #328 ) ;
#607 = AXIS2_PLACEMENT_3D ( 'NONE', #519, #1094, #1018 ) ;
#608 = CARTESIAN_POINT ( 'NONE',  ( -0.7599999999999997868, 0.5499999999999999334, 0.6250000000000000000 ) ) ;
#609 = CARTESIAN_POINT ( 'NONE',  ( -0.5999999999999998668, 0.5500000000000000444, -0.4166666666666665186 ) ) ;
#610 = CARTESIAN_POINT ( 'NONE',  ( -0.5999999999999996447, 0.5224999999999999645, 0.6250000000000000000 ) ) ;
#611 = CARTESIAN_POINT ( 'NONE',  ( -0.9999999999999995559, 0.5499999999999999334, 0.6250000000000000000 ) ) ;
#612 = EDGE_CURVE ( 'NONE', #184, #622, #820, .T. ) ;
#613 = VERTEX_POINT ( 'NONE', #608 ) ;
#614 = DIRECTION ( 'NONE',  ( -0.0000000000000000000, -0.0000000000000000000, -1.000000000000000000 ) ) ;
#615 = DIRECTION ( 'NONE',  ( -0.0000000000000000000, -0.0000000000000000000, -1.000000000000000000 ) ) ;
#616 = LINE ( 'NONE', #794, #1104 ) ;
#617 = VECTOR ( 'NONE', #896, 1000.000000000000000 ) ;
#618 = EDGE_CURVE ( 'NONE', #359, #277, #276, .T. ) ;
#619 = DIRECTION ( 'NONE',  ( 1.000000000000000000, 0.0000000000000000000, 0.0000000000000000000 ) ) ;
#620 = APPLICATION_PROTOCOL_DEFINITION ( 'draft international standard', 'automotive_design', 1998, #934 ) ;
#621 = CARTESIAN_POINT ( 'NONE',  ( -0.5999999999999996447, 0.02750000000000016320, 0.6250000000000000000 ) ) ;
#622 = VERTEX_POINT ( 'NONE', #912 ) ;
#623 = PRODUCT_DEFINITION ( 'UNKNOWN', '', #648, #99 ) ;
#624 = ADVANCED_FACE ( 'NONE', ( #109 ), #527, .F. ) ;
#625 = PLANE ( 'NONE',  #1196 ) ;
#626 = EDGE_CURVE ( 'NONE', #628, #837, #1078, .T. ) ;
#627 = DIRECTION ( 'NONE',  ( 9.856383386231860060E-17, 1.000000000000000000, 0.0000000000000000000 ) ) ;
#628 = VERTEX_POINT ( 'NONE', #621 ) ;
#629 = ORIENTED_EDGE ( 'NONE', *, *, #1068, .T. ) ;
#630 = COLOUR_RGB ( '',0.2509803921568627416, 0.2509803921568627416, 0.2509803921568627416 ) ;
#631 = VERTEX_POINT ( 'NONE', #275 ) ;
#632 = PLANE ( 'NONE',  #76 ) ;
#633 = FACE_OUTER_BOUND ( 'NONE', #812, .T. ) ;
#634 = DIRECTION ( 'NONE',  ( 1.000000000000000000, 0.0000000000000000000, 0.0000000000000000000 ) ) ;
#635 = AXIS2_PLACEMENT_3D ( 'NONE', #642, #474, #1036 ) ;
#636 = EDGE_CURVE ( 'NONE', #796, #55, #789, .T. ) ;
#637 = DIRECTION ( 'NONE',  ( 1.000000000000000000, 0.0000000000000000000, 0.0000000000000000000 ) ) ;
#638 = DIRECTION ( 'NONE',  ( 0.0000000000000000000, 1.000000000000000000, 0.0000000000000000000 ) ) ;
#639 = VERTEX_POINT ( 'NONE', #455 ) ;
#640 = ADVANCED_FACE ( 'NONE', ( #471 ), #723, .F. ) ;
#641 = ORIENTED_EDGE ( 'NONE', *, *, #986, .F. ) ;
#642 = CARTESIAN_POINT ( 'NONE',  ( 0.7600000000000002309, 0.5224999999999997424, -0.6250000000000000000 ) ) ;
#643 = AXIS2_PLACEMENT_3D ( 'NONE', #171, #1123, #178 ) ;
#644 = ORIENTED_EDGE ( 'NONE', *, *, #690, .F. ) ;
#645 = DIRECTION ( 'NONE',  ( -8.761229676650542385E-16, -1.000000000000000000, 0.0000000000000000000 ) ) ;
#646 = VECTOR ( 'NONE', #976, 1000.000000000000000 ) ;
#647 = LINE ( 'NONE', #393, #24 ) ;
#648 = PRODUCT_DEFINITION_FORMATION_WITH_SPECIFIED_SOURCE ( 'ANY', '', #245, .NOT_KNOWN. ) ;
#649 = CARTESIAN_POINT ( 'NONE',  ( 0.5999999999999996447, 0.02750000000000016320, 0.6250000000000000000 ) ) ;
#650 = EDGE_CURVE ( 'NONE', #153, #190, #1172, .T. ) ;
#651 = FACE_OUTER_BOUND ( 'NONE', #961, .T. ) ;
#652 = CARTESIAN_POINT ( 'NONE',  ( 0.7600000000000002309, 0.5224999999999997424, -0.6250000000000000000 ) ) ;
#653 = ORIENTED_EDGE ( 'NONE', *, *, #898, .T. ) ;
#654 = LINE ( 'NONE', #860, #702 ) ;
#655 = CARTESIAN_POINT ( 'NONE',  ( 0.9999999999999995559, 0.5499999999999999334, 0.6250000000000000000 ) ) ;
#656 = CARTESIAN_POINT ( 'NONE',  ( -0.9999999999999995559, 0.5499999999999999334, 0.6250000000000000000 ) ) ;
#657 = DIRECTION ( 'NONE',  ( 9.856383386231860060E-17, 1.000000000000000000, 0.0000000000000000000 ) ) ;
#658 = EDGE_CURVE ( 'NONE', #622, #1089, #1136, .T. ) ;
#659 = ORIENTED_EDGE ( 'NONE', *, *, #1223, .F. ) ;
#660 = LINE ( 'NONE', #779, #646 ) ;
#661 = VERTEX_POINT ( 'NONE', #1225 ) ;
#662 = LINE ( 'NONE', #1016, #175 ) ;
#663 = ADVANCED_FACE ( 'NONE', ( #1074 ), #181, .T. ) ;
#664 = CARTESIAN_POINT ( 'NONE',  ( 0.5999999999999996447, 0.0000000000000000000, 0.6250000000000000000 ) ) ;
#665 = ORIENTED_EDGE ( 'NONE', *, *, #695, .F. ) ;
#666 = DIRECTION ( 'NONE',  ( 1.000000000000000000, 0.0000000000000000000, -0.0000000000000000000 ) ) ;
#667 = LINE ( 'NONE', #228, #353 ) ;
#668 = SURFACE_STYLE_USAGE ( .BOTH. , #575 ) ;
#669 = EDGE_CURVE ( 'NONE', #436, #34, #81, .T. ) ;
#670 = VECTOR ( 'NONE', #1051, 1000.000000000000000 ) ;
#671 = VERTEX_POINT ( 'NONE', #1121 ) ;
#672 = CARTESIAN_POINT ( 'NONE',  ( -0.9724999999999991429, 0.5224999999999999645, -2.632000249128035207 ) ) ;
#673 = EDGE_LOOP ( 'NONE', ( #503, #57, #933, #748 ) ) ;
#674 = CARTESIAN_POINT ( 'NONE',  ( -0.9724999999999991429, 0.5224999999999999645, -0.6250000000000001110 ) ) ;
#675 = FACE_OUTER_BOUND ( 'NONE', #915, .T. ) ;
#676 = CARTESIAN_POINT ( 'NONE',  ( 0.9724999999999995870, 0.5224999999999999645, 0.6250000000000000000 ) ) ;
#677 = CARTESIAN_POINT ( 'NONE',  ( 0.5999999999999996447, 0.5499999999999998224, -0.6250000000000002220 ) ) ;
#678 = DIRECTION ( 'NONE',  ( 0.0000000000000000000, -0.0000000000000000000, -1.000000000000000000 ) ) ;
#679 = ORIENTED_EDGE ( 'NONE', *, *, #1107, .F. ) ;
#680 = ORIENTED_EDGE ( 'NONE', *, *, #252, .F. ) ;
#681 = VECTOR ( 'NONE', #428, 1000.000000000000000 ) ;
#682 = VERTEX_POINT ( 'NONE', #649 ) ;
#683 = ORIENTED_EDGE ( 'NONE', *, *, #799, .T. ) ;
#684 = CARTESIAN_POINT ( 'NONE',  ( 0.5999999999999996447, 0.02750000000000016320, 0.6250000000000000000 ) ) ;
#685 = SURFACE_SIDE_STYLE ('',( #543 ) ) ;
#686 = LINE ( 'NONE', #767, #719 ) ;
#687 = CARTESIAN_POINT ( 'NONE',  ( 0.5999999999999996447, 0.0000000000000000000, -0.6250000000000000000 ) ) ;
#688 = VECTOR ( 'NONE', #517, 1000.000000000000000 ) ;
#689 = VECTOR ( 'NONE', #238, 1000.000000000000000 ) ;
#690 = EDGE_CURVE ( 'NONE', #528, #536, #25, .T. ) ;
#691 = DIRECTION ( 'NONE',  ( -1.000000000000000000, 9.856383386231860060E-17, 0.0000000000000000000 ) ) ;
#692 = CARTESIAN_POINT ( 'NONE',  ( -0.9724999999999995870, 0.5224999999999999645, 0.6250000000000000000 ) ) ;
#693 = PLANE ( 'NONE',  #416 ) ;
#694 = CARTESIAN_POINT ( 'NONE',  ( -0.5999999999999998668, 0.5224999999999999645, 0.4166666666666666297 ) ) ;
#695 = EDGE_CURVE ( 'NONE', #190, #661, #755, .T. ) ;
#696 = VECTOR ( 'NONE', #861, 1000.000000000000000 ) ;
#697 =( NAMED_UNIT ( * ) PLANE_ANGLE_UNIT ( ) SI_UNIT ( $, .RADIAN. ) );
#698 = EDGE_LOOP ( 'NONE', ( #554, #1192, #523, #1054 ) ) ;
#699 = ORIENTED_EDGE ( 'NONE', *, *, #531, .T. ) ;
#700 = DIRECTION ( 'NONE',  ( 0.0000000000000000000, 0.0000000000000000000, 1.000000000000000000 ) ) ;
#701 = DIRECTION ( 'NONE',  ( -0.0000000000000000000, -0.0000000000000000000, -1.000000000000000000 ) ) ;
#702 = VECTOR ( 'NONE', #582, 1000.000000000000000 ) ;
#703 = ORIENTED_EDGE ( 'NONE', *, *, #1107, .T. ) ;
#704 = CARTESIAN_POINT ( 'NONE',  ( 0.5999999999999996447, 0.02750000000000016320, -0.6250000000000000000 ) ) ;
#705 = VECTOR ( 'NONE', #1069, 1000.000000000000000 ) ;
#706 = CLOSED_SHELL ( 'NONE', ( #958, #759, #458, #496, #354, #1181 ) ) ;
#707 = PLANE ( 'NONE',  #492 ) ;
#708 = VECTOR ( 'NONE', #161, 1000.000000000000000 ) ;
#709 = FACE_OUTER_BOUND ( 'NONE', #89, .T. ) ;
#710 = VECTOR ( 'NONE', #974, 1000.000000000000000 ) ;
#711 = EDGE_CURVE ( 'NONE', #395, #984, #908, .T. ) ;
#712 = EDGE_LOOP ( 'NONE', ( #913, #855, #15, #714 ) ) ;
#713 = PRESENTATION_LAYER_ASSIGNMENT (  '', '', ( #101 ) ) ;
#714 = ORIENTED_EDGE ( 'NONE', *, *, #736, .T. ) ;
#715 = EDGE_CURVE ( 'NONE', #773, #528, #158, .T. ) ;
#716 = ORIENTED_EDGE ( 'NONE', *, *, #618, .T. ) ;
#717 = CARTESIAN_POINT ( 'NONE',  ( -0.9724999999999995870, 0.02750000000000011810, -2.632000249128035207 ) ) ;
#718 = CARTESIAN_POINT ( 'NONE',  ( -0.5999999999999998668, 0.5224999999999999645, -0.4166666666666665186 ) ) ;
#719 = VECTOR ( 'NONE', #401, 1000.000000000000000 ) ;
#720 = ORIENTED_EDGE ( 'NONE', *, *, #612, .F. ) ;
#721 = VECTOR ( 'NONE', #338, 1000.000000000000000 ) ;
#722 = CARTESIAN_POINT ( 'NONE',  ( -0.5999999999999998668, -1.210272345116345294, -0.6250000000000000000 ) ) ;
#723 = PLANE ( 'NONE',  #917 ) ;
#724 = VECTOR ( 'NONE', #1040, 1000.000000000000000 ) ;
#725 = CARTESIAN_POINT ( 'NONE',  ( 0.6000000000000003109, 0.5499999999999998224, 0.4166666666666664631 ) ) ;
#726 = CARTESIAN_POINT ( 'NONE',  ( 0.6000000000000003109, 0.5224999999999997424, -0.4166666666666665741 ) ) ;
#727 =( NAMED_UNIT ( * ) SI_UNIT ( $, .STERADIAN. ) SOLID_ANGLE_UNIT ( ) );
#728 = UNCERTAINTY_MEASURE_WITH_UNIT (LENGTH_MEASURE( 1.000000000000000082E-05 ), #1001, 'distance_accuracy_value', 'NONE');
#729 = CARTESIAN_POINT ( 'NONE',  ( 0.9999999999999995559, 0.5499999999999999334, 0.6250000000000000000 ) ) ;
#730 =( NAMED_UNIT ( * ) PLANE_ANGLE_UNIT ( ) SI_UNIT ( $, .RADIAN. ) );
#731 = ORIENTED_EDGE ( 'NONE', *, *, #869, .T. ) ;
#732 = CARTESIAN_POINT ( 'NONE',  ( -0.9724999999999995870, 0.02750000000000011810, -0.6250000000000000000 ) ) ;
#733 = DIRECTION ( 'NONE',  ( -1.000000000000000000, 1.807003620809175125E-16, 1.807003620809175125E-16 ) ) ;
#734 = ORIENTED_EDGE ( 'NONE', *, *, #715, .T. ) ;
#735 = ORIENTED_EDGE ( 'NONE', *, *, #1161, .T. ) ;
#736 = EDGE_CURVE ( 'NONE', #55, #964, #1134, .T. ) ;
#737 = DIRECTION ( 'NONE',  ( 1.000000000000000000, 0.0000000000000000000, -6.776263578034404685E-16 ) ) ;
#738 = EDGE_LOOP ( 'NONE', ( #1195, #17, #823, #808 ) ) ;
#739 = VECTOR ( 'NONE', #233, 1000.000000000000000 ) ;
#740 = STYLED_ITEM ( 'NONE', ( #348 ), #914 ) ;
#741 = DIRECTION ( 'NONE',  ( -0.0000000000000000000, -1.000000000000000000, -0.0000000000000000000 ) ) ;
#742 = FACE_OUTER_BOUND ( 'NONE', #447, .T. ) ;
#743 = EDGE_CURVE ( 'NONE', #802, #309, #414, .T. ) ;
#744 = CARTESIAN_POINT ( 'NONE',  ( -0.9724999999999995870, 0.5224999999999999645, -0.6250000000000000000 ) ) ;
#745 = ORIENTED_EDGE ( 'NONE', *, *, #1003, .T. ) ;
#746 = ADVANCED_FACE ( 'NONE', ( #709 ), #1042, .F. ) ;
#747 = AXIS2_PLACEMENT_3D ( 'NONE', #318, #139, #882 ) ;
#748 = ORIENTED_EDGE ( 'NONE', *, *, #1185, .T. ) ;
#749 = ORIENTED_EDGE ( 'NONE', *, *, #956, .F. ) ;
#750 = LINE ( 'NONE', #847, #937 ) ;
#751 = VECTOR ( 'NONE', #21, 1000.000000000000000 ) ;
#752 = CARTESIAN_POINT ( 'NONE',  ( -0.5999999999999998668, 0.5224999999999999645, -0.4166666666666665186 ) ) ;
#753 = LINE ( 'NONE', #50, #920 ) ;
#754 = FACE_OUTER_BOUND ( 'NONE', #893, .T. ) ;
#755 = LINE ( 'NONE', #98, #724 ) ;
#756 = DIRECTION ( 'NONE',  ( 9.856383386231860060E-17, 1.000000000000000000, 0.0000000000000000000 ) ) ;
#757 = CARTESIAN_POINT ( 'NONE',  ( 0.7600000000000002309, 0.5224999999999997424, 0.6249999999999997780 ) ) ;
#758 = EDGE_CURVE ( 'NONE', #901, #613, #437, .T. ) ;
#759 = ADVANCED_FACE ( 'NONE', ( #943 ), #1131, .F. ) ;
#760 = VECTOR ( 'NONE', #1020, 1000.000000000000000 ) ;
#761 = CLOSED_SHELL ( 'NONE', ( #663, #489, #829, #765, #1060, #859 ) ) ;
#762 = CARTESIAN_POINT ( 'NONE',  ( -0.5999999999999996447, 0.02750000000000016320, -0.6250000000000000000 ) ) ;
#763 = ORIENTED_EDGE ( 'NONE', *, *, #580, .T. ) ;
#764 = ORIENTED_EDGE ( 'NONE', *, *, #910, .F. ) ;
#765 = ADVANCED_FACE ( 'NONE', ( #1175 ), #930, .T. ) ;
#766 = DIRECTION ( 'NONE',  ( -1.182435255227479537E-16, -1.000000000000000000, 0.0000000000000000000 ) ) ;
#767 = CARTESIAN_POINT ( 'NONE',  ( -0.5999999999999998668, 0.5500000000000000444, 0.6250000000000000000 ) ) ;
#768 = EDGE_CURVE ( 'NONE', #480, #35, #183, .T. ) ;
#769 = ORIENTED_EDGE ( 'NONE', *, *, #46, .T. ) ;
#770 = LINE ( 'NONE', #1218, #301 ) ;
#771 = ADVANCED_FACE ( 'NONE', ( #1208 ), #562, .F. ) ;
#772 = AXIS2_PLACEMENT_3D ( 'NONE', #383, #11, #292 ) ;
#773 = VERTEX_POINT ( 'NONE', #744 ) ;
#774 = CARTESIAN_POINT ( 'NONE',  ( 0.6000000000000003109, 0.5224999999999997424, 0.4166666666666664631 ) ) ;
#775 = ORIENTED_EDGE ( 'NONE', *, *, #389, .F. ) ;
#776 = LINE ( 'NONE', #928, #229 ) ;
#777 = EDGE_LOOP ( 'NONE', ( #281, #1213, #886, #340 ) ) ;
#778 = MECHANICAL_DESIGN_GEOMETRIC_PRESENTATION_REPRESENTATION (  '', ( #740 ), #803 ) ;
#779 = CARTESIAN_POINT ( 'NONE',  ( -0.9999999999999995559, -1.224646799147352468E-16, 0.6250000000000000000 ) ) ;
#780 = EDGE_CURVE ( 'NONE', #548, #169, #303, .T. ) ;
#781 = LINE ( 'NONE', #1087, #721 ) ;
#782 = FACE_OUTER_BOUND ( 'NONE', #602, .T. ) ;
#783 = VECTOR ( 'NONE', #701, 1000.000000000000000 ) ;
#784 =( NAMED_UNIT ( * ) PLANE_ANGLE_UNIT ( ) SI_UNIT ( $, .RADIAN. ) );
#785 = VECTOR ( 'NONE', #27, 1000.000000000000000 ) ;
#786 = DIRECTION ( 'NONE',  ( 0.0000000000000000000, -1.000000000000000000, 0.0000000000000000000 ) ) ;
#787 = EDGE_CURVE ( 'NONE', #510, #810, #818, .T. ) ;
#788 = CARTESIAN_POINT ( 'NONE',  ( -0.9724999999999995870, 0.5224999999999999645, 0.6250000000000000000 ) ) ;
#789 = LINE ( 'NONE', #240, #1191 ) ;
#790 = ORIENTED_EDGE ( 'NONE', *, *, #252, .T. ) ;
#791 = DIRECTION ( 'NONE',  ( 1.000000000000000000, 0.0000000000000000000, -0.0000000000000000000 ) ) ;
#792 = ORIENTED_EDGE ( 'NONE', *, *, #224, .T. ) ;
#793 = EDGE_LOOP ( 'NONE', ( #953, #1148, #234, #716 ) ) ;
#794 = CARTESIAN_POINT ( 'NONE',  ( 0.9724999999999995870, 0.5224999999999999645, -0.6250000000000000000 ) ) ;
#795 = CARTESIAN_POINT ( 'NONE',  ( 0.9999999999999995559, 0.5499999999999999334, 0.6250000000000000000 ) ) ;
#796 = VERTEX_POINT ( 'NONE', #211 ) ;
#797 = DIRECTION ( 'NONE',  ( -1.000000000000000000, 0.0000000000000000000, 0.0000000000000000000 ) ) ;
#798 = ORIENTED_EDGE ( 'NONE', *, *, #399, .T. ) ;
#799 = EDGE_CURVE ( 'NONE', #402, #169, #594, .T. ) ;
#800 = PLANE ( 'NONE',  #287 ) ;
#801 = DIRECTION ( 'NONE',  ( 0.0000000000000000000, 0.0000000000000000000, 1.000000000000000000 ) ) ;
#802 = VERTEX_POINT ( 'NONE', #841 ) ;
#803 =( GEOMETRIC_REPRESENTATION_CONTEXT ( 3 ) GLOBAL_UNCERTAINTY_ASSIGNED_CONTEXT ( ( #522 ) ) GLOBAL_UNIT_ASSIGNED_CONTEXT ( ( #541, #730, #1215 ) ) REPRESENTATION_CONTEXT ( 'NONE', 'WORKASPACE' ) );
#804 = DIRECTION ( 'NONE',  ( -1.000000000000000000, -0.0000000000000000000, -0.0000000000000000000 ) ) ;
#805 = EDGE_CURVE ( 'NONE', #309, #848, #927, .T. ) ;
#806 = LINE ( 'NONE', #987, #1065 ) ;
#807 = SURFACE_STYLE_USAGE ( .BOTH. , #1189 ) ;
#808 = ORIENTED_EDGE ( 'NONE', *, *, #429, .T. ) ;
#809 = ORIENTED_EDGE ( 'NONE', *, *, #1052, .F. ) ;
#810 = VERTEX_POINT ( 'NONE', #311 ) ;
#811 = DIRECTION ( 'NONE',  ( -1.000000000000000000, 9.856383386231860060E-17, 0.0000000000000000000 ) ) ;
#812 = EDGE_LOOP ( 'NONE', ( #890, #1027, #948, #931, #78, #508, #149, #390 ) ) ;
#813 = COLOUR_RGB ( '',0.7921568627450980005, 0.8196078431372548767, 0.9333333333333333481 ) ;
#814 = FACE_OUTER_BOUND ( 'NONE', #320, .T. ) ;
#815 = PRODUCT_CONTEXT ( 'NONE', #934, 'mechanical' ) ;
#816 = DIRECTION ( 'NONE',  ( 9.856383386231860060E-17, 1.000000000000000000, 0.0000000000000000000 ) ) ;
#817 = VECTOR ( 'NONE', #959, 1000.000000000000000 ) ;
#818 = LINE ( 'NONE', #1127, #84 ) ;
#819 = DIRECTION ( 'NONE',  ( -8.761229676650542385E-16, -1.000000000000000000, 0.0000000000000000000 ) ) ;
#820 = LINE ( 'NONE', #1108, #760 ) ;
#821 = CARTESIAN_POINT ( 'NONE',  ( -0.9724999999999995870, 0.02750000000000011810, -0.6250000000000001110 ) ) ;
#822 = EDGE_CURVE ( 'NONE', #810, #639, #1220, .T. ) ;
#823 = ORIENTED_EDGE ( 'NONE', *, *, #1045, .F. ) ;
#824 = ORIENTED_EDGE ( 'NONE', *, *, #580, .F. ) ;
#825 = ORIENTED_EDGE ( 'NONE', *, *, #1114, .T. ) ;
#826 =( NAMED_UNIT ( * ) SI_UNIT ( $, .STERADIAN. ) SOLID_ANGLE_UNIT ( ) );
#827 = ORIENTED_EDGE ( 'NONE', *, *, #799, .F. ) ;
#828 = PRESENTATION_LAYER_ASSIGNMENT (  '', '', ( #398 ) ) ;
#829 = ADVANCED_FACE ( 'NONE', ( #584 ), #857, .T. ) ;
#830 = EDGE_CURVE ( 'NONE', #639, #837, #973, .T. ) ;
#831 = CARTESIAN_POINT ( 'NONE',  ( 0.7600000000000002309, 0.5499999999999998224, 0.4166666666666664631 ) ) ;
#832 = DIRECTION ( 'NONE',  ( -1.000000000000000000, 0.0000000000000000000, 0.0000000000000000000 ) ) ;
#833 = VECTOR ( 'NONE', #1157, 1000.000000000000000 ) ;
#834 = DIRECTION ( 'NONE',  ( 9.856383386231860060E-17, 1.000000000000000000, -0.0000000000000000000 ) ) ;
#835 = ADVANCED_FACE ( 'NONE', ( #742 ), #111, .F. ) ;
#836 = DIRECTION ( 'NONE',  ( 0.0000000000000000000, 1.000000000000000000, 0.0000000000000000000 ) ) ;
#837 = VERTEX_POINT ( 'NONE', #495 ) ;
#838 = ORIENTED_EDGE ( 'NONE', *, *, #768, .F. ) ;
#839 = EDGE_LOOP ( 'NONE', ( #441, #581, #467, #460, #703, #100, #576, #921 ) ) ;
#840 = VECTOR ( 'NONE', #968, 1000.000000000000000 ) ;
#841 = CARTESIAN_POINT ( 'NONE',  ( 0.7600000000000002309, 0.5224999999999997424, -0.4166666666666666852 ) ) ;
#842 = VECTOR ( 'NONE', #911, 1000.000000000000000 ) ;
#843 = ORIENTED_EDGE ( 'NONE', *, *, #560, .F. ) ;
#844 = VECTOR ( 'NONE', #63, 1000.000000000000000 ) ;
#845 = CARTESIAN_POINT ( 'NONE',  ( -0.5999999999999996447, 0.5500000000000000444, -0.6250000000000000000 ) ) ;
#846 = EDGE_CURVE ( 'NONE', #605, #848, #378, .T. ) ;
#847 = CARTESIAN_POINT ( 'NONE',  ( 0.5999999999999994227, -1.210272345116345738, 0.6250000000000000000 ) ) ;
#848 = VERTEX_POINT ( 'NONE', #1056 ) ;
#849 = CARTESIAN_POINT ( 'NONE',  ( -0.6000000000000000888, 0.5224999999999999645, 0.6250000000000000000 ) ) ;
#850 = VERTEX_POINT ( 'NONE', #752 ) ;
#851 = CARTESIAN_POINT ( 'NONE',  ( -0.9724999999999995870, 0.02750000000000011810, -0.6250000000000000000 ) ) ;
#852 = EDGE_CURVE ( 'NONE', #848, #476, #431, .T. ) ;
#853 = VECTOR ( 'NONE', #804, 1000.000000000000000 ) ;
#854 = ORIENTED_EDGE ( 'NONE', *, *, #1082, .F. ) ;
#855 = ORIENTED_EDGE ( 'NONE', *, *, #315, .T. ) ;
#856 = ORIENTED_EDGE ( 'NONE', *, *, #830, .T. ) ;
#857 = PLANE ( 'NONE',  #352 ) ;
#858 = ORIENTED_EDGE ( 'NONE', *, *, #405, .F. ) ;
#859 = ADVANCED_FACE ( 'NONE', ( #1050 ), #119, .F. ) ;
#860 = CARTESIAN_POINT ( 'NONE',  ( -0.9999999999999995559, 0.5499999999999999334, 0.6250000000000000000 ) ) ;
#861 = DIRECTION ( 'NONE',  ( 1.000000000000000000, -0.0000000000000000000, -0.0000000000000000000 ) ) ;
#862 = EDGE_CURVE ( 'NONE', #391, #47, #932, .T. ) ;
#863 = CARTESIAN_POINT ( 'NONE',  ( -0.7599999999999997868, 0.5500000000000000444, -0.6249999999999997780 ) ) ;
#864 = CARTESIAN_POINT ( 'NONE',  ( 0.5999999999999996447, 0.0000000000000000000, 0.6250000000000000000 ) ) ;
#865 = ORIENTED_EDGE ( 'NONE', *, *, #695, .T. ) ;
#866 = EDGE_LOOP ( 'NONE', ( #1031, #477, #641, #925 ) ) ;
#867 = CARTESIAN_POINT ( 'NONE',  ( 0.9724999999999995870, 0.02750000000000012504, 0.6250000000000000000 ) ) ;
#868 = DIRECTION ( 'NONE',  ( 0.0000000000000000000, 0.0000000000000000000, -1.000000000000000000 ) ) ;
#869 = EDGE_CURVE ( 'NONE', #432, #613, #155, .T. ) ;
#870 = DIRECTION ( 'NONE',  ( 9.856383386231860060E-17, 1.000000000000000000, -0.0000000000000000000 ) ) ;
#871 = PLANE ( 'NONE',  #330 ) ;
#872 = CARTESIAN_POINT ( 'NONE',  ( 0.5999999999999996447, 0.0000000000000000000, -0.6250000000000000000 ) ) ;
#873 = VECTOR ( 'NONE', #1004, 1000.000000000000000 ) ;
#874 = VECTOR ( 'NONE', #1013, 1000.000000000000000 ) ;
#875 = VECTOR ( 'NONE', #939, 1000.000000000000000 ) ;
#876 = MANIFOLD_SOLID_BREP ( 'Boss-Extrude2', #706 ) ;
#877 = CARTESIAN_POINT ( 'NONE',  ( -0.5999999999999998668, 0.5224999999999999645, 0.4166666666666666297 ) ) ;
#878 = EDGE_CURVE ( 'NONE', #476, #1089, #479, .T. ) ;
#879 = PLANE ( 'NONE',  #49 ) ;
#880 = VECTOR ( 'NONE', #645, 1000.000000000000000 ) ;
#881 = PLANE ( 'NONE',  #243 ) ;
#882 = DIRECTION ( 'NONE',  ( -1.000000000000000000, 0.0000000000000000000, -0.0000000000000000000 ) ) ;
#883 = VERTEX_POINT ( 'NONE', #568 ) ;
#884 = ORIENTED_EDGE ( 'NONE', *, *, #636, .F. ) ;
#885 = ORIENTED_EDGE ( 'NONE', *, *, #499, .F. ) ;
#886 = ORIENTED_EDGE ( 'NONE', *, *, #372, .T. ) ;
#887 = ORIENTED_EDGE ( 'NONE', *, *, #947, .T. ) ;
#888 =( NAMED_UNIT ( * ) SI_UNIT ( $, .STERADIAN. ) SOLID_ANGLE_UNIT ( ) );
#889 = EDGE_CURVE ( 'NONE', #493, #1162, #500, .T. ) ;
#890 = ORIENTED_EDGE ( 'NONE', *, *, #1092, .F. ) ;
#891 = CARTESIAN_POINT ( 'NONE',  ( -0.6000000000000000888, 0.5224999999999999645, 0.6250000000000000000 ) ) ;
#892 = LINE ( 'NONE', #1093, #367 ) ;
#893 = EDGE_LOOP ( 'NONE', ( #699, #1028, #749, #653 ) ) ;
#894 = LINE ( 'NONE', #677, #427 ) ;
#895 = CARTESIAN_POINT ( 'NONE',  ( -0.9999999999999995559, 0.5499999999999999334, 0.6250000000000000000 ) ) ;
#896 = DIRECTION ( 'NONE',  ( 1.000000000000000000, 0.0000000000000000000, -6.776263578034403699E-16 ) ) ;
#897 = CARTESIAN_POINT ( 'NONE',  ( 0.9724999999999995870, 0.5224999999999999645, 0.6250000000000000000 ) ) ;
#898 = EDGE_CURVE ( 'NONE', #484, #905, #199, .T. ) ;
#899 = CARTESIAN_POINT ( 'NONE',  ( -0.9724999999999995870, 0.5224999999999999645, 0.6250000000000000000 ) ) ;
#900 = ORIENTED_EDGE ( 'NONE', *, *, #878, .F. ) ;
#901 = VERTEX_POINT ( 'NONE', #108 ) ;
#902 = DIRECTION ( 'NONE',  ( 1.000000000000000000, -9.856383386231858827E-17, 0.0000000000000000000 ) ) ;
#903 = VECTOR ( 'NONE', #801, 1000.000000000000000 ) ;
#904 = FACE_OUTER_BOUND ( 'NONE', #839, .T. ) ;
#905 = VERTEX_POINT ( 'NONE', #851 ) ;
#906 = VECTOR ( 'NONE', #834, 1000.000000000000000 ) ;
#907 = LINE ( 'NONE', #732, #197 ) ;
#908 = LINE ( 'NONE', #552, #1044 ) ;
#909 = MECHANICAL_DESIGN_GEOMETRIC_PRESENTATION_REPRESENTATION (  '', ( #1073 ), #267 ) ;
#910 = EDGE_CURVE ( 'NONE', #1059, #883, #157, .T. ) ;
#911 = DIRECTION ( 'NONE',  ( -0.0000000000000000000, 1.000000000000000000, -0.0000000000000000000 ) ) ;
#912 = CARTESIAN_POINT ( 'NONE',  ( 0.9999999999999995559, -1.224646799147352468E-16, 0.6250000000000000000 ) ) ;
#913 = ORIENTED_EDGE ( 'NONE', *, *, #456, .T. ) ;
#914 = ADVANCED_BREP_SHAPE_REPRESENTATION ( 'TNPW0805422KBYEN', ( #876, #1014, #597, #1141, #559 ), #387 ) ;
#915 = EDGE_LOOP ( 'NONE', ( #1142, #599, #289, #274 ) ) ;
#916 = VECTOR ( 'NONE', #586, 1000.000000000000000 ) ;
#917 = AXIS2_PLACEMENT_3D ( 'NONE', #430, #791, #603 ) ;
#918 =( LENGTH_UNIT ( ) NAMED_UNIT ( * ) SI_UNIT ( .MILLI., .METRE. ) );
#919 = EDGE_CURVE ( 'NONE', #883, #64, #1171, .T. ) ;
#920 = VECTOR ( 'NONE', #615, 1000.000000000000000 ) ;
#921 = ORIENTED_EDGE ( 'NONE', *, *, #1132, .T. ) ;
#922 = FACE_OUTER_BOUND ( 'NONE', #475, .T. ) ;
#923 = DIRECTION ( 'NONE',  ( 0.0000000000000000000, 0.0000000000000000000, -1.000000000000000000 ) ) ;
#924 = FILL_AREA_STYLE ('',( #1224 ) ) ;
#925 = ORIENTED_EDGE ( 'NONE', *, *, #977, .T. ) ;
#926 = DIRECTION ( 'NONE',  ( -9.856383386231860060E-17, -1.000000000000000000, 0.0000000000000000000 ) ) ;
#927 = LINE ( 'NONE', #652, #817 ) ;
#928 = CARTESIAN_POINT ( 'NONE',  ( -0.9724999999999995870, 0.02750000000000011810, -0.6250000000000001110 ) ) ;
#929 = DIRECTION ( 'NONE',  ( -1.000000000000000000, 0.0000000000000000000, -0.0000000000000000000 ) ) ;
#930 = PLANE ( 'NONE',  #227 ) ;
#931 = ORIENTED_EDGE ( 'NONE', *, *, #435, .F. ) ;
#932 = LINE ( 'NONE', #120, #670 ) ;
#933 = ORIENTED_EDGE ( 'NONE', *, *, #46, .F. ) ;
#934 = APPLICATION_CONTEXT ( 'automotive_design' ) ;
#935 = ORIENTED_EDGE ( 'NONE', *, *, #151, .F. ) ;
#936 = ADVANCED_FACE ( 'NONE', ( #80 ), #879, .F. ) ;
#937 = VECTOR ( 'NONE', #756, 1000.000000000000000 ) ;
#938 = SURFACE_STYLE_FILL_AREA ( #924 ) ;
#939 = DIRECTION ( 'NONE',  ( 0.0000000000000000000, 1.000000000000000000, 0.0000000000000000000 ) ) ;
#940 = VECTOR ( 'NONE', #48, 1000.000000000000000 ) ;
#941 = VECTOR ( 'NONE', #377, 1000.000000000000000 ) ;
#942 = EDGE_CURVE ( 'NONE', #1089, #997, #105, .T. ) ;
#943 = FACE_OUTER_BOUND ( 'NONE', #538, .T. ) ;
#944 = ADVANCED_FACE ( 'NONE', ( #469 ), #43, .F. ) ;
#945 = LINE ( 'NONE', #718, #681 ) ;
#946 = ORIENTED_EDGE ( 'NONE', *, *, #40, .F. ) ;
#947 = EDGE_CURVE ( 'NONE', #682, #548, #592, .T. ) ;
#948 = ORIENTED_EDGE ( 'NONE', *, *, #531, .F. ) ;
#949 = ORIENTED_EDGE ( 'NONE', *, *, #618, .F. ) ;
#950 = VECTOR ( 'NONE', #283, 1000.000000000000000 ) ;
#951 = DIRECTION ( 'NONE',  ( 1.000000000000000000, 3.483940142948280665E-18, 0.0000000000000000000 ) ) ;
#952 =( LENGTH_UNIT ( ) NAMED_UNIT ( * ) SI_UNIT ( .MILLI., .METRE. ) );
#953 = ORIENTED_EDGE ( 'NONE', *, *, #116, .T. ) ;
#954 = EDGE_LOOP ( 'NONE', ( #1149, #33, #385, #451 ) ) ;
#955 = CARTESIAN_POINT ( 'NONE',  ( 0.7600000000000002309, 0.5499999999999998224, -0.6250000000000000000 ) ) ;
#956 = EDGE_CURVE ( 'NONE', #484, #30, #173, .T. ) ;
#957 = UNCERTAINTY_MEASURE_WITH_UNIT (LENGTH_MEASURE( 1.000000000000000082E-05 ), #918, 'distance_accuracy_value', 'NONE');
#958 = ADVANCED_FACE ( 'NONE', ( #23 ), #417, .T. ) ;
#959 = DIRECTION ( 'NONE',  ( 9.856383386231860060E-17, 1.000000000000000000, -0.0000000000000000000 ) ) ;
#960 = EDGE_LOOP ( 'NONE', ( #809, #91, #187, #1057, #279, #18, #28, #720 ) ) ;
#961 = EDGE_LOOP ( 'NONE', ( #298, #854, #644, #226 ) ) ;
#962 = CARTESIAN_POINT ( 'NONE',  ( -0.7599999999999997868, 0.5500000000000000444, 0.6250000000000000000 ) ) ;
#963 = EDGE_CURVE ( 'NONE', #436, #395, #425, .T. ) ;
#964 = VERTEX_POINT ( 'NONE', #329 ) ;
#965 = ADVANCED_FACE ( 'NONE', ( #782 ), #45, .F. ) ;
#966 = VECTOR ( 'NONE', #85, 1000.000000000000000 ) ;
#967 = FILL_AREA_STYLE ('',( #1140 ) ) ;
#968 = DIRECTION ( 'NONE',  ( -1.000000000000000000, 0.0000000000000000000, 0.0000000000000000000 ) ) ;
#969 = CLOSED_SHELL ( 'NONE', ( #936, #188, #384, #965, #127, #404, #44, #624, #321, #558, #771, #587, #29, #195 ) ) ;
#970 = VECTOR ( 'NONE', #254, 1000.000000000000000 ) ;
#971 = ADVANCED_FACE ( 'NONE', ( #567 ), #130, .F. ) ;
#972 = DIRECTION ( 'NONE',  ( -1.000000000000000000, 0.0000000000000000000, 0.0000000000000000000 ) ) ;
#973 = LINE ( 'NONE', #762, #487 ) ;
#974 = DIRECTION ( 'NONE',  ( -1.000000000000000000, -0.0000000000000000000, -0.0000000000000000000 ) ) ;
#975 = EDGE_LOOP ( 'NONE', ( #246, #236, #600, #994 ) ) ;
#976 = DIRECTION ( 'NONE',  ( -0.0000000000000000000, -0.0000000000000000000, -1.000000000000000000 ) ) ;
#977 = EDGE_CURVE ( 'NONE', #335, #391, #208, .T. ) ;
#978 = CARTESIAN_POINT ( 'NONE',  ( 0.9724999999999995870, 0.02750000000000011810, 0.6250000000000000000 ) ) ;
#979 = FILL_AREA_STYLE ('',( #1075 ) ) ;
#980 = SURFACE_STYLE_FILL_AREA ( #991 ) ;
#981 = EDGE_LOOP ( 'NONE', ( #665, #443, #258, #824 ) ) ;
#982 = VECTOR ( 'NONE', #535, 1000.000000000000000 ) ;
#983 = VECTOR ( 'NONE', #1034, 1000.000000000000000 ) ;
#984 = VERTEX_POINT ( 'NONE', #676 ) ;
#985 = CARTESIAN_POINT ( 'NONE',  ( 0.5999999999999996447, 0.02750000000000016320, 0.6250000000000000000 ) ) ;
#986 = EDGE_CURVE ( 'NONE', #335, #671, #1043, .T. ) ;
#987 = CARTESIAN_POINT ( 'NONE',  ( -0.6000000000000000888, -1.210272345116345294, 0.6250000000000000000 ) ) ;
#988 = DIRECTION ( 'NONE',  ( 3.483940142948280665E-18, -1.000000000000000000, 0.0000000000000000000 ) ) ;
#989 = VECTOR ( 'NONE', #142, 1000.000000000000000 ) ;
#990 = ORIENTED_EDGE ( 'NONE', *, *, #768, .T. ) ;
#991 = FILL_AREA_STYLE ('',( #1200 ) ) ;
#992 = ORIENTED_EDGE ( 'NONE', *, *, #8, .T. ) ;
#993 = DIRECTION ( 'NONE',  ( -1.000000000000000000, -3.061616997868381662E-16, 0.0000000000000000000 ) ) ;
#994 = ORIENTED_EDGE ( 'NONE', *, *, #1033, .T. ) ;
#995 = EDGE_LOOP ( 'NONE', ( #865, #590, #421, #1164 ) ) ;
#996 = DIRECTION ( 'NONE',  ( 0.0000000000000000000, 1.000000000000000000, 0.0000000000000000000 ) ) ;
#997 = VERTEX_POINT ( 'NONE', #872 ) ;
#998 = PRESENTATION_STYLE_ASSIGNMENT (( #807 ) ) ;
#999 = PLANE ( 'NONE',  #137 ) ;
#1000 = LINE ( 'NONE', #409, #689 ) ;
#1001 =( LENGTH_UNIT ( ) NAMED_UNIT ( * ) SI_UNIT ( .MILLI., .METRE. ) );
#1002 = AXIS2_PLACEMENT_3D ( 'NONE', #86, #832, #285 ) ;
#1003 = EDGE_CURVE ( 'NONE', #1070, #432, #51, .T. ) ;
#1004 = DIRECTION ( 'NONE',  ( 9.856383386231860060E-17, 1.000000000000000000, -0.0000000000000000000 ) ) ;
#1005 = ORIENTED_EDGE ( 'NONE', *, *, #889, .F. ) ;
#1006 = PRESENTATION_STYLE_ASSIGNMENT (( #1219 ) ) ;
#1007 = ORIENTED_EDGE ( 'NONE', *, *, #435, .T. ) ;
#1008 = EDGE_LOOP ( 'NONE', ( #679, #935, #1009, #887 ) ) ;
#1009 = ORIENTED_EDGE ( 'NONE', *, *, #464, .T. ) ;
#1010 = DIRECTION ( 'NONE',  ( 1.807003620809174878E-16, 1.000000000000000000, 3.134651602192768148E-32 ) ) ;
#1011 = AXIS2_PLACEMENT_3D ( 'NONE', #788, #1165, #219 ) ;
#1012 = LINE ( 'NONE', #1139, #1179 ) ;
#1013 = DIRECTION ( 'NONE',  ( -1.734723475976807094E-16, 0.0000000000000000000, 1.000000000000000000 ) ) ;
#1014 = MANIFOLD_SOLID_BREP ( 'Boss-Extrude3', #761 ) ;
#1015 =( NAMED_UNIT ( * ) PLANE_ANGLE_UNIT ( ) SI_UNIT ( $, .RADIAN. ) );
#1016 = CARTESIAN_POINT ( 'NONE',  ( -0.5999999999999998668, -1.210272345116345294, -0.6250000000000000000 ) ) ;
#1017 = VECTOR ( 'NONE', #167, 1000.000000000000000 ) ;
#1018 = DIRECTION ( 'NONE',  ( 1.000000000000000000, 0.0000000000000000000, 0.0000000000000000000 ) ) ;
#1019 =( LENGTH_UNIT ( ) NAMED_UNIT ( * ) SI_UNIT ( .MILLI., .METRE. ) );
#1020 = DIRECTION ( 'NONE',  ( 0.0000000000000000000, -1.000000000000000000, -0.0000000000000000000 ) ) ;
#1021 = EDGE_CURVE ( 'NONE', #1037, #639, #753, .T. ) ;
#1022 = APPLICATION_CONTEXT ( 'automotive_design' ) ;
#1023 = EDGE_LOOP ( 'NONE', ( #838, #946, #150, #1120 ) ) ;
#1024 = DIRECTION ( 'NONE',  ( 0.0000000000000000000, -0.0000000000000000000, 1.000000000000000000 ) ) ;
#1025 = DIRECTION ( 'NONE',  ( -0.0000000000000000000, -0.0000000000000000000, -1.000000000000000000 ) ) ;
#1026 = CARTESIAN_POINT ( 'NONE',  ( -0.5999999999999996447, 0.02750000000000016320, 0.6250000000000000000 ) ) ;
#1027 = ORIENTED_EDGE ( 'NONE', *, *, #715, .F. ) ;
#1028 = ORIENTED_EDGE ( 'NONE', *, *, #1156, .F. ) ;
#1029 = CARTESIAN_POINT ( 'NONE',  ( 0.5999999999999996447, 0.5499999999999998224, -0.6250000000000002220 ) ) ;
#1030 = CARTESIAN_POINT ( 'NONE',  ( 0.6000000000000003109, 0.5224999999999997424, 0.4166666666666664631 ) ) ;
#1031 = ORIENTED_EDGE ( 'NONE', *, *, #862, .T. ) ;
#1032 = LINE ( 'NONE', #726, #1199 ) ;
#1033 = EDGE_CURVE ( 'NONE', #1046, #810, #660, .T. ) ;
#1034 = DIRECTION ( 'NONE',  ( 0.0000000000000000000, 0.0000000000000000000, 1.000000000000000000 ) ) ;
#1035 = AXIS2_PLACEMENT_3D ( 'NONE', #1125, #102, #737 ) ;
#1036 = DIRECTION ( 'NONE',  ( 9.856383386231858827E-17, 1.000000000000000000, 0.0000000000000000000 ) ) ;
#1037 = VERTEX_POINT ( 'NONE', #347 ) ;
#1038 = EDGE_CURVE ( 'NONE', #30, #901, #892, .T. ) ;
#1039 = ORIENTED_EDGE ( 'NONE', *, *, #919, .F. ) ;
#1040 = DIRECTION ( 'NONE',  ( 1.734723475976807341E-16, 0.0000000000000000000, -1.000000000000000000 ) ) ;
#1041 = FACE_OUTER_BOUND ( 'NONE', #337, .T. ) ;
#1042 = PLANE ( 'NONE',  #635 ) ;
#1043 = LINE ( 'NONE', #223, #397 ) ;
#1044 = VECTOR ( 'NONE', #836, 1000.000000000000000 ) ;
#1045 = EDGE_CURVE ( 'NONE', #1158, #1046, #413, .T. ) ;
#1046 = VERTEX_POINT ( 'NONE', #259 ) ;
#1047 = PLANE ( 'NONE',  #369 ) ;
#1048 = CARTESIAN_POINT ( 'NONE',  ( -0.9724999999999995870, 0.02750000000000011810, 0.6250000000000000000 ) ) ;
#1049 = VECTOR ( 'NONE', #7, 1000.000000000000000 ) ;
#1050 = FACE_OUTER_BOUND ( 'NONE', #995, .T. ) ;
#1051 = DIRECTION ( 'NONE',  ( 0.0000000000000000000, -0.0000000000000000000, -1.000000000000000000 ) ) ;
#1052 = EDGE_CURVE ( 'NONE', #209, #184, #450, .T. ) ;
#1053 = ORIENTED_EDGE ( 'NONE', *, *, #1161, .F. ) ;
#1054 = ORIENTED_EDGE ( 'NONE', *, *, #160, .F. ) ;
#1055 = ORIENTED_EDGE ( 'NONE', *, *, #90, .T. ) ;
#1056 = CARTESIAN_POINT ( 'NONE',  ( 0.7600000000000002309, 0.5499999999999999334, -0.6250000000000000000 ) ) ;
#1057 = ORIENTED_EDGE ( 'NONE', *, *, #1068, .F. ) ;
#1058 = VECTOR ( 'NONE', #614, 1000.000000000000000 ) ;
#1059 = VERTEX_POINT ( 'NONE', #70 ) ;
#1060 = ADVANCED_FACE ( 'NONE', ( #1088 ), #606, .T. ) ;
#1061 = AXIS2_PLACEMENT_3D ( 'NONE', #1144, #502, #1024 ) ;
#1062 = DIRECTION ( 'NONE',  ( 0.0000000000000000000, 0.0000000000000000000, 1.000000000000000000 ) ) ;
#1063 = CARTESIAN_POINT ( 'NONE',  ( 0.9999999999999995559, -1.224646799147352468E-16, -0.6250000000000000000 ) ) ;
#1064 = CARTESIAN_POINT ( 'NONE',  ( 0.9724999999999995870, 0.5224999999999999645, 0.6250000000000000000 ) ) ;
#1065 = VECTOR ( 'NONE', #816, 1000.000000000000000 ) ;
#1066 = CARTESIAN_POINT ( 'NONE',  ( -0.9724999999999991429, 0.5224999999999999645, 0.6250000000000000000 ) ) ;
#1067 = DIRECTION ( 'NONE',  ( 0.0000000000000000000, 0.0000000000000000000, 1.000000000000000000 ) ) ;
#1068 = EDGE_CURVE ( 'NONE', #402, #72, #604, .T. ) ;
#1069 = DIRECTION ( 'NONE',  ( 0.0000000000000000000, 0.0000000000000000000, 1.000000000000000000 ) ) ;
#1070 = VERTEX_POINT ( 'NONE', #520 ) ;
#1071 = VECTOR ( 'NONE', #1152, 1000.000000000000000 ) ;
#1072 = LINE ( 'NONE', #704, #844 ) ;
#1073 = STYLED_ITEM ( 'NONE', ( #1119 ), #1014 ) ;
#1074 = FACE_OUTER_BOUND ( 'NONE', #981, .T. ) ;
#1075 = FILL_AREA_STYLE_COLOUR ( '', #630 ) ;
#1076 = PLANE ( 'NONE',  #607 ) ;
#1077 = PLANE ( 'NONE',  #218 ) ;
#1078 = LINE ( 'NONE', #364, #572 ) ;
#1079 = DIRECTION ( 'NONE',  ( 9.856383386231860060E-17, 1.000000000000000000, -0.0000000000000000000 ) ) ;
#1080 = ORIENTED_EDGE ( 'NONE', *, *, #121, .T. ) ;
#1081 = DIRECTION ( 'NONE',  ( -1.000000000000000000, 1.807003620809174878E-16, 0.0000000000000000000 ) ) ;
#1082 = EDGE_CURVE ( 'NONE', #536, #1162, #193, .T. ) ;
#1083 = ORIENTED_EDGE ( 'NONE', *, *, #658, .T. ) ;
#1084 = PLANE ( 'NONE',  #1182 ) ;
#1085 = ORIENTED_EDGE ( 'NONE', *, *, #669, .T. ) ;
#1086 = UNCERTAINTY_MEASURE_WITH_UNIT (LENGTH_MEASURE( 1.000000000000000082E-05 ), #952, 'distance_accuracy_value', 'NONE');
#1087 = CARTESIAN_POINT ( 'NONE',  ( -0.9724999999999995870, 0.02750000000000011810, 0.6250000000000000000 ) ) ;
#1088 = FACE_OUTER_BOUND ( 'NONE', #712, .T. ) ;
#1089 = VERTEX_POINT ( 'NONE', #343 ) ;
#1090 = CARTESIAN_POINT ( 'NONE',  ( 0.6000000000000003109, 0.5224999999999997424, 0.4166666666666664631 ) ) ;
#1091 = PRESENTATION_STYLE_ASSIGNMENT (( #668 ) ) ;
#1092 = EDGE_CURVE ( 'NONE', #528, #493, #1133, .T. ) ;
#1093 = CARTESIAN_POINT ( 'NONE',  ( -0.9724999999999995870, 0.5224999999999999645, 0.6250000000000000000 ) ) ;
#1094 = DIRECTION ( 'NONE',  ( 0.0000000000000000000, 0.0000000000000000000, -1.000000000000000000 ) ) ;
#1095 = ORIENTED_EDGE ( 'NONE', *, *, #977, .F. ) ;
#1096 = STYLED_ITEM ( 'NONE', ( #1091 ), #876 ) ;
#1097 = ORIENTED_EDGE ( 'NONE', *, *, #956, .T. ) ;
#1098 = CARTESIAN_POINT ( 'NONE',  ( -0.5999999999999996447, 0.5500000000000000444, -0.6250000000000000000 ) ) ;
#1099 = LINE ( 'NONE', #1188, #323 ) ;
#1100 = DIRECTION ( 'NONE',  ( -0.0000000000000000000, -1.000000000000000000, -0.0000000000000000000 ) ) ;
#1101 = LINE ( 'NONE', #280, #842 ) ;
#1102 = EDGE_LOOP ( 'NONE', ( #433, #1209, #342, #125 ) ) ;
#1103 = DIRECTION ( 'NONE',  ( 0.0000000000000000000, 0.0000000000000000000, -1.000000000000000000 ) ) ;
#1104 = VECTOR ( 'NONE', #797, 1000.000000000000000 ) ;
#1105 = LINE ( 'NONE', #985, #485 ) ;
#1106 = PLANE ( 'NONE',  #1002 ) ;
#1107 = EDGE_CURVE ( 'NONE', #997, #548, #1072, .T. ) ;
#1108 = CARTESIAN_POINT ( 'NONE',  ( 0.9999999999999995559, -1.224646799147352468E-16, 0.6250000000000000000 ) ) ;
#1109 = ADVANCED_FACE ( 'NONE', ( #814 ), #693, .F. ) ;
#1110 = EDGE_LOOP ( 'NONE', ( #1113, #93, #336, #143, #1147, #163, #561, #1097 ) ) ;
#1111 = PRESENTATION_LAYER_ASSIGNMENT (  '', '', ( #1096 ) ) ;
#1112 = FACE_OUTER_BOUND ( 'NONE', #793, .T. ) ;
#1113 = ORIENTED_EDGE ( 'NONE', *, *, #1038, .T. ) ;
#1114 = EDGE_CURVE ( 'NONE', #359, #1070, #268, .T. ) ;
#1115 = DIRECTION ( 'NONE',  ( -1.000000000000000000, 0.0000000000000000000, 0.0000000000000000000 ) ) ;
#1116 = DIRECTION ( 'NONE',  ( 1.000000000000000000, 0.0000000000000000000, -6.776263578034403699E-16 ) ) ;
#1117 = DIRECTION ( 'NONE',  ( 9.856383386231860060E-17, 1.000000000000000000, -0.0000000000000000000 ) ) ;
#1118 = CARTESIAN_POINT ( 'NONE',  ( 0.0000000000000000000, 0.0000000000000000000, 0.6250000000000000000 ) ) ;
#1119 = PRESENTATION_STYLE_ASSIGNMENT (( #595 ) ) ;
#1120 = ORIENTED_EDGE ( 'NONE', *, *, #69, .F. ) ;
#1121 = CARTESIAN_POINT ( 'NONE',  ( 0.6000000000000003109, 0.5224999999999997424, -0.4166666666666665741 ) ) ;
#1122 = DIRECTION ( 'NONE',  ( -1.000000000000000000, -1.182435255227479537E-16, 0.0000000000000000000 ) ) ;
#1123 = DIRECTION ( 'NONE',  ( 1.000000000000000000, 0.0000000000000000000, 0.0000000000000000000 ) ) ;
#1124 = DIRECTION ( 'NONE',  ( -1.000000000000000000, 8.761229676650542385E-16, 0.0000000000000000000 ) ) ;
#1125 = CARTESIAN_POINT ( 'NONE',  ( -0.5999999999999998668, 0.5224999999999999645, -0.4166666666666665186 ) ) ;
#1126 = SURFACE_STYLE_FILL_AREA ( #444 ) ;
#1127 = CARTESIAN_POINT ( 'NONE',  ( -0.9999999999999995559, -1.224646799147352468E-16, -0.6250000000000000000 ) ) ;
#1128 = ORIENTED_EDGE ( 'NONE', *, *, #846, .T. ) ;
#1129 = ORIENTED_EDGE ( 'NONE', *, *, #407, .F. ) ;
#1130 = LINE ( 'NONE', #1064, #840 ) ;
#1131 = PLANE ( 'NONE',  #577 ) ;
#1132 = EDGE_CURVE ( 'NONE', #631, #309, #616, .T. ) ;
#1133 = LINE ( 'NONE', #601, #873 ) ;
#1134 = LINE ( 'NONE', #845, #1203 ) ;
#1135 = LINE ( 'NONE', #1066, #1204 ) ;
#1136 = LINE ( 'NONE', #545, #1017 ) ;
#1137 = CARTESIAN_POINT ( 'NONE',  ( 0.0000000000000000000, 0.0000000000000000000, 0.6250000000000000000 ) ) ;
#1138 = AXIS2_PLACEMENT_3D ( 'NONE', #239, #868, #507 ) ;
#1139 = CARTESIAN_POINT ( 'NONE',  ( 0.5999999999999996447, 0.0000000000000000000, 0.6250000000000000000 ) ) ;
#1140 = FILL_AREA_STYLE_COLOUR ( '', #349 ) ;
#1141 = MANIFOLD_SOLID_BREP ( 'Cut-Extrude1[2]', #174 ) ;
#1142 = ORIENTED_EDGE ( 'NONE', *, *, #942, .F. ) ;
#1143 = DIRECTION ( 'NONE',  ( -0.0000000000000000000, -0.0000000000000000000, -1.000000000000000000 ) ) ;
#1144 = CARTESIAN_POINT ( 'NONE',  ( -0.9724999999999991429, 0.5224999999999999645, -2.632000249128035207 ) ) ;
#1145 = ORIENTED_EDGE ( 'NONE', *, *, #372, .F. ) ;
#1146 = VECTOR ( 'NONE', #951, 1000.000000000000000 ) ;
#1147 = ORIENTED_EDGE ( 'NONE', *, *, #294, .T. ) ;
#1148 = ORIENTED_EDGE ( 'NONE', *, *, #1003, .F. ) ;
#1149 = ORIENTED_EDGE ( 'NONE', *, *, #449, .T. ) ;
#1150 = DIRECTION ( 'NONE',  ( 1.182435255227479537E-16, -1.000000000000000000, 0.0000000000000000000 ) ) ;
#1151 = DIRECTION ( 'NONE',  ( -1.000000000000000000, -1.182435255227479537E-16, 0.0000000000000000000 ) ) ;
#1152 = DIRECTION ( 'NONE',  ( -0.0000000000000000000, -0.0000000000000000000, 1.000000000000000000 ) ) ;
#1153 = CARTESIAN_POINT ( 'NONE',  ( -0.9999999999999995559, 0.5499999999999999334, -0.6250000000000000000 ) ) ;
#1154 = EDGE_LOOP ( 'NONE', ( #1145, #990, #792, #1053 ) ) ;
#1155 = VECTOR ( 'NONE', #532, 1000.000000000000000 ) ;
#1156 = EDGE_CURVE ( 'NONE', #30, #773, #131, .T. ) ;
#1157 = DIRECTION ( 'NONE',  ( 1.000000000000000000, 3.061616997868381662E-16, -0.0000000000000000000 ) ) ;
#1158 = VERTEX_POINT ( 'NONE', #611 ) ;
#1159 = DIRECTION ( 'NONE',  ( 0.0000000000000000000, -0.0000000000000000000, 1.000000000000000000 ) ) ;
#1160 = PLANE ( 'NONE',  #14 ) ;
#1161 = EDGE_CURVE ( 'NONE', #166, #310, #781, .T. ) ;
#1162 = VERTEX_POINT ( 'NONE', #253 ) ;
#1163 = DIRECTION ( 'NONE',  ( 0.0000000000000000000, 0.0000000000000000000, -1.000000000000000000 ) ) ;
#1164 = ORIENTED_EDGE ( 'NONE', *, *, #650, .T. ) ;
#1165 = DIRECTION ( 'NONE',  ( 0.0000000000000000000, 1.000000000000000000, 0.0000000000000000000 ) ) ;
#1166 = LINE ( 'NONE', #68, #903 ) ;
#1167 = CARTESIAN_POINT ( 'NONE',  ( 0.9999999999999995559, 0.5499999999999999334, -0.6250000000000000000 ) ) ;
#1168 = AXIS2_PLACEMENT_3D ( 'NONE', #672, #31, #1159 ) ;
#1169 = SHAPE_DEFINITION_REPRESENTATION ( #62, #914 ) ;
#1170 = CARTESIAN_POINT ( 'NONE',  ( -0.9724999999999995870, 0.02750000000000011810, 0.6250000000000000000 ) ) ;
#1171 = LINE ( 'NONE', #424, #688 ) ;
#1172 = LINE ( 'NONE', #891, #530 ) ;
#1173 = ADVANCED_FACE ( 'NONE', ( #350 ), #248, .F. ) ;
#1174 = DIRECTION ( 'NONE',  ( 0.0000000000000000000, 0.0000000000000000000, 1.000000000000000000 ) ) ;
#1175 = FACE_OUTER_BOUND ( 'NONE', #1102, .T. ) ;
#1176 = ORIENTED_EDGE ( 'NONE', *, *, #852, .F. ) ;
#1177 = ADVANCED_FACE ( 'NONE', ( #1041 ), #1106, .F. ) ;
#1178 = ORIENTED_EDGE ( 'NONE', *, *, #346, .T. ) ;
#1179 = VECTOR ( 'NONE', #20, 1000.000000000000000 ) ;
#1180 = CARTESIAN_POINT ( 'NONE',  ( -0.7599999999999997868, 0.5224999999999999645, 0.4166666666666666297 ) ) ;
#1181 = ADVANCED_FACE ( 'NONE', ( #266 ), #362, .T. ) ;
#1182 = AXIS2_PLACEMENT_3D ( 'NONE', #795, #176, #147 ) ;
#1183 = LINE ( 'NONE', #312, #1155 ) ;
#1184 = DIRECTION ( 'NONE',  ( 1.000000000000000000, 0.0000000000000000000, 0.0000000000000000000 ) ) ;
#1185 = EDGE_CURVE ( 'NONE', #671, #47, #156, .T. ) ;
#1186 = DIRECTION ( 'NONE',  ( 1.000000000000000000, -0.0000000000000000000, -0.0000000000000000000 ) ) ;
#1187 = CARTESIAN_POINT ( 'NONE',  ( 0.7600000000000002309, 0.5499999999999998224, -0.4166666666666666852 ) ) ;
#1188 = CARTESIAN_POINT ( 'NONE',  ( -0.5999999999999996447, 0.5499999999999999334, 0.6250000000000000000 ) ) ;
#1189 = SURFACE_SIDE_STYLE ('',( #980 ) ) ;
#1190 = DIRECTION ( 'NONE',  ( -1.000000000000000000, 0.0000000000000000000, -0.0000000000000000000 ) ) ;
#1191 = VECTOR ( 'NONE', #627, 1000.000000000000000 ) ;
#1192 = ORIENTED_EDGE ( 'NONE', *, *, #69, .T. ) ;
#1193 = CARTESIAN_POINT ( 'NONE',  ( 0.5999999999999996447, 0.0000000000000000000, 0.6250000000000000000 ) ) ;
#1194 = PLANE ( 'NONE',  #198 ) ;
#1195 = ORIENTED_EDGE ( 'NONE', *, *, #787, .T. ) ;
#1196 = AXIS2_PLACEMENT_3D ( 'NONE', #170, #1115, #1221 ) ;
#1197 = LINE ( 'NONE', #1090, #853 ) ;
#1198 = EDGE_LOOP ( 'NONE', ( #202, #1095, #122, #60 ) ) ;
#1199 = VECTOR ( 'NONE', #1116, 1000.000000000000000 ) ;
#1200 = FILL_AREA_STYLE_COLOUR ( '', #813 ) ;
#1201 = LINE ( 'NONE', #371, #497 ) ;
#1202 = VECTOR ( 'NONE', #588, 1000.000000000000000 ) ;
#1203 = VECTOR ( 'NONE', #733, 1000.000000000000000 ) ;
#1204 = VECTOR ( 'NONE', #129, 1000.000000000000000 ) ;
#1205 = DIRECTION ( 'NONE',  ( 0.0000000000000000000, 0.0000000000000000000, -1.000000000000000000 ) ) ;
#1206 = DIRECTION ( 'NONE',  ( 0.0000000000000000000, -0.0000000000000000000, -1.000000000000000000 ) ) ;
#1207 = EDGE_CURVE ( 'NONE', #796, #153, #1201, .T. ) ;
#1208 = FACE_OUTER_BOUND ( 'NONE', #954, .T. ) ;
#1209 = ORIENTED_EDGE ( 'NONE', *, *, #144, .T. ) ;
#1210 = ORIENTED_EDGE ( 'NONE', *, *, #160, .T. ) ;
#1211 = DIRECTION ( 'NONE',  ( -1.000000000000000000, 0.0000000000000000000, 1.807003620809175371E-16 ) ) ;
#1212 = PRESENTATION_LAYER_ASSIGNMENT (  '', '', ( #1073 ) ) ;
#1213 = ORIENTED_EDGE ( 'NONE', *, *, #40, .T. ) ;
#1214 = LINE ( 'NONE', #88, #950 ) ;
#1215 =( NAMED_UNIT ( * ) SI_UNIT ( $, .STERADIAN. ) SOLID_ANGLE_UNIT ( ) );
#1216 = EDGE_LOOP ( 'NONE', ( #1007, #271, #115, #97 ) ) ;
#1217 = VECTOR ( 'NONE', #148, 1000.000000000000000 ) ;
#1218 = CARTESIAN_POINT ( 'NONE',  ( 0.7600000000000002309, 0.5499999999999998224, 0.6249999999999997780 ) ) ;
#1219 = SURFACE_STYLE_USAGE ( .BOTH. , #453 ) ;
#1220 = LINE ( 'NONE', #314, #833 ) ;
#1221 = DIRECTION ( 'NONE',  ( 0.0000000000000000000, 0.0000000000000000000, 1.000000000000000000 ) ) ;
#1222 = PLANE ( 'NONE',  #643 ) ;
#1223 = EDGE_CURVE ( 'NONE', #1037, #628, #1101, .T. ) ;
#1224 = FILL_AREA_STYLE_COLOUR ( '', #10 ) ;
#1225 = CARTESIAN_POINT ( 'NONE',  ( -0.5999999999999998668, 0.5224999999999999645, -0.6250000000000000000 ) ) ;
ENDSEC;
END-ISO-10303-21;
